<?xml version="1.0" encoding="utf-8"?>
<!-- Generator: Adobe Illustrator 22.0.0, SVG Export Plug-In . SVG Version: 6.00 Build 0)  -->
<svg version="1.1" id="Layer_1" xmlns="http://www.w3.org/2000/svg" xmlns:xlink="http://www.w3.org/1999/xlink" x="0px" y="0px"
	 viewBox="0 0 261.7 675.1" style="enable-background:new 0 0 261.7 675.1;" xml:space="preserve" class="<%= className || ''%>">
<style type="text/css">
	.chaining-mobile-0{fill:#E8EBEF;}
	.chaining-mobile-1{fill:#72849D;}
	.chaining-mobile-2{fill:#397EFF;}
	.chaining-mobile-3{fill:#FFFFFF;}
</style>
<title>Artboard 1 copy</title>
<path class="chaining-mobile-0" d="M261.7,141.9V38.1c0.2-4.5,0-8.9-0.4-13.4l0,0c-0.6-5-4.6-9-9.6-9.6l0,0c-4.5-0.6-9.1-0.3-13.6-0.4H23.6
	c-4.5-0.2-8.9,0-13.4,0.4l0,0c-5,0.6-9,4.6-9.6,9.6l0,0c-0.7,4.5-0.5,8.8-0.5,13.4V142c-0.2,4.5,0,9.1,0.4,13.6l0,0
	c0.6,5,4.6,9,9.6,9.6l0,0c4.5,0.6,8.8,0.3,13.4,0.4H238c4.5,0.2,9.1,0,13.6-0.4l0,0c5-0.6,9-4.6,9.6-9.6l0,0
	C261.8,151,261.6,146.5,261.7,141.9z"/>
<path class="chaining-mobile-0" d="M261.7,651.1V547.3c0.2-4.5,0-8.9-0.4-13.4l0,0c-0.6-5-4.6-9-9.6-9.6l0,0c-4.5-0.6-9.1-0.3-13.6-0.4H23.5
	c-4.5-0.2-8.9,0-13.4,0.4l0,0c-5,0.6-9,4.6-9.6,9.6l0,0c-0.6,4.5-0.3,8.8-0.4,13.4v103.9c-0.2,4.5,0,9.1,0.4,13.6l0,0
	c0.6,5,4.6,9,9.6,9.6l0,0c4.5,0.6,8.8,0.3,13.4,0.4h214.6c4.5,0.2,9.1,0,13.6-0.4l0,0c5-0.6,9-4.6,9.6-9.6l0,0
	C261.8,660.2,261.6,655.7,261.7,651.1z"/>
<path class="chaining-mobile-0" d="M261.7,396.1V292.3c0.2-4.5,0-8.9-0.4-13.4l0,0c-0.6-5-4.6-9-9.6-9.6l0,0c-4.5-0.6-9.1-0.3-13.6-0.4H23.5
	c-4.5-0.2-8.9,0-13.4,0.4l0,0c-5,0.6-9,4.6-9.6,9.6l0,0c-0.6,4.5-0.3,8.8-0.4,13.4v103.9c-0.2,4.5,0,9.1,0.4,13.6l0,0
	c0.6,5,4.6,9,9.6,9.6l0,0c4.5,0.6,8.8,0.3,13.4,0.4h214.6c4.5,0.2,9.1,0,13.6-0.4l0,0c5-0.6,9-4.6,9.6-9.6l0,0
	C261.9,405.2,261.6,400.7,261.7,396.1z"/>
<g>
	<path class="chaining-mobile-1" d="M118.5,1.2c0.7-0.7,1.8-1.1,2.8-1.1c1.3-0.1,2.6,0.5,3.4,1.5c0.4,0.5,0.6,1.1,0.6,1.7h-1.9
		c-0.2-0.5-0.2-0.8-0.5-1c-0.4-0.4-0.9-0.6-1.5-0.6c-0.7,0-1.3,0.3-1.6,0.9c-0.4,0.7-0.6,1.6-0.6,2.4c-0.1,0.8,0.2,1.6,0.6,2.3
		c0.4,0.5,1,0.8,1.6,0.8c0.6,0,1.1-0.2,1.5-0.6c0.2-0.3,0.4-0.6,0.5-1h1.9c-0.1,0.9-0.6,1.8-1.3,2.4c-0.7,0.7-1.7,1-2.6,1
		c-1.2,0.1-2.3-0.4-3.1-1.3c-0.8-1-1.2-2.3-1.1-3.6C117.1,3.6,117.5,2.2,118.5,1.2z"/>
	<path class="chaining-mobile-1" d="M128.5,9.4h-1.8V0.2h1.8V9.4z"/>
	<path class="chaining-mobile-1" d="M132.1,1.8h-1.8V0.1h1.8V1.8z M130.2,2.6h1.8v6.8h-1.8V2.6z"/>
	<path class="chaining-mobile-1" d="M138.2,2.7c0.5,0.2,0.9,0.6,1.2,1c0.3,0.4,0.5,0.9,0.6,1.4c0.1,0.4,0.1,0.9,0.1,1.4h-5
		c-0.1,0.6,0.2,1.2,0.8,1.5c0.3,0.2,0.6,0.3,1,0.2c0.4,0,0.7-0.1,1-0.3c0.2-0.1,0.2-0.2,0.4-0.5h1.8c-0.1,0.5-0.3,0.9-0.6,1.2
		c-0.7,0.7-1.6,1-2.6,1c-0.9,0-1.7-0.3-2.4-0.8c-0.8-0.7-1.1-1.7-1-2.7c-0.1-1,0.3-2,1-2.7c0.6-0.7,1.5-1,2.4-1
		C137.3,2.4,137.8,2.5,138.2,2.7z M135.6,4.3c-0.2,0.3-0.4,0.6-0.5,1h3c0-0.4-0.2-0.8-0.5-1c-0.3-0.2-0.6-0.4-1-0.4
		C136.3,3.8,135.9,4,135.6,4.3z"/>
	<path class="chaining-mobile-1" d="M146.4,3c0.5,0.5,0.7,1.2,0.6,1.8v4.6h-1.8V5.3c0-0.3-0.1-0.5-0.2-0.8c-0.2-0.4-0.6-0.6-1-0.6
		c-0.5-0.1-1.1,0.3-1.2,0.8c-0.1,0.3-0.2,0.7-0.2,1v3.7h-1.8V2.6h1.8v1c0.2-0.3,0.4-0.5,0.6-0.7c0.4-0.3,0.9-0.4,1.4-0.4
		C145.3,2.4,145.9,2.6,146.4,3z"/>
	<path class="chaining-mobile-1" d="M148,3.9V2.6h1V0.7h1.8v1.9h1.1v1.3h-1.1v3.6c0,0.2,0,0.5,0.1,0.6s0.3,0.1,0.6,0.1h0.3v1.4h-0.9
		c-0.9,0-1.4-0.1-1.8-0.4c-0.2-0.3-0.3-0.6-0.3-1V4L148,3.9L148,3.9z"/>
</g>
<g>
	<path class="chaining-mobile-1" d="M83.6,259.5c-0.7,0.5-1.5,0.7-2.3,0.6h-1.9v3.4h-1.9v-9.2h3.9c0.8,0,1.5,0.2,2.2,0.7
		C84.5,256.3,84.6,258.1,83.6,259.5L83.6,259.5z M82.1,256.2c-0.3-0.2-0.6-0.4-1-0.3h-1.8v2.7H81c0.4,0,0.7-0.1,1-0.3
		c0.3-0.3,0.4-0.6,0.4-1C82.5,256.9,82.4,256.5,82.1,256.2z"/>
	<path class="chaining-mobile-1" d="M87.6,256.7v4.1c0,0.3,0.1,0.6,0.2,0.9c0.2,0.3,0.6,0.5,1,0.5c0.5,0.1,1-0.2,1.3-0.7c0.1-0.3,0.2-0.7,0.2-1
		v-3.7H92v6.8h-1.9v-1l-0.2,0.2l-0.2,0.2c-0.2,0.2-0.5,0.4-0.8,0.5c-0.3,0.1-0.6,0.2-0.9,0.2c-0.8,0.1-1.6-0.4-2-1.1
		c-0.2-0.6-0.3-1.2-0.3-1.8v-4.1h1.8V256.7z"/>
	<path class="chaining-mobile-1" d="M99.4,257.5c0.5,0.7,0.8,1.6,0.8,2.5c0,0.9-0.2,1.9-0.7,2.6c-0.5,0.7-1.3,1.1-2.1,1c-0.5,0-1-0.1-1.4-0.3
		c-0.3-0.2-0.5-0.4-0.6-0.7v0.9h-1.8v-9.2h1.8v3.3c0.2-0.3,0.4-0.5,0.7-0.7c0.4-0.2,0.8-0.3,1.2-0.3
		C98.1,256.5,98.9,256.9,99.4,257.5z M97.9,261.7c0.3-0.4,0.4-0.9,0.4-1.4c0-0.4-0.1-0.8-0.2-1.2c-0.2-0.6-0.8-0.9-1.4-0.9
		c-0.6,0-1.1,0.3-1.4,0.9c-0.1,0.4-0.2,0.8-0.2,1.2c0,0.5,0.1,1,0.4,1.4c0.3,0.4,0.7,0.6,1.2,0.6C97.3,262.2,97.7,262,97.9,261.7z"
		/>
	<path class="chaining-mobile-1" d="M103.3,263.5h-1.8v-9.2h1.8L103.3,263.5z"/>
	<path class="chaining-mobile-1" d="M106.8,255.9h-1.8v-1.7h1.8L106.8,255.9z M105,256.7h1.8v6.8H105V256.7z"/>
	<path class="chaining-mobile-1" d="M112.6,259.1c0-0.3-0.1-0.5-0.2-0.7c-0.3-0.3-0.6-0.4-1-0.4c-0.6,0-1.1,0.3-1.2,0.9c-0.1,0.4-0.2,0.8-0.2,1.3
		c0,0.4,0.1,0.8,0.2,1.2c0.2,0.5,0.7,0.9,1.2,0.9c0.3,0,0.7-0.1,0.9-0.3c0.2-0.3,0.3-0.6,0.3-0.9h1.9c-0.1,0.5-0.3,1.1-0.6,1.5
		c-1.2,1.4-3.3,1.6-4.7,0.4c-0.1-0.1-0.1-0.1-0.2-0.2c-0.5-0.7-0.8-1.6-0.8-2.6c-0.1-1,0.3-2,0.9-2.7c0.6-0.7,1.5-1,2.4-1
		c0.7,0,1.5,0.2,2.1,0.6c0.6,0.5,1,1.2,1,2L112.6,259.1z"/>
	<path class="chaining-mobile-1" d="M115.7,263.5v-9.2h1.9v3.5h3.6v-3.5h1.9v9.2h-1.9v-4.1h-3.6v4.1H115.7z"/>
	<path class="chaining-mobile-1" d="M129.3,256.8c0.5,0.2,0.9,0.6,1.2,1c0.3,0.4,0.5,0.9,0.6,1.4c0.1,0.4,0.1,0.9,0.1,1.4h-5
		c-0.1,0.6,0.2,1.1,0.7,1.4c0.3,0.2,0.6,0.3,1,0.2c0.4,0,0.7-0.1,1-0.3c0.2-0.1,0.2-0.2,0.4-0.5h1.8c-0.1,0.5-0.3,0.9-0.6,1.2
		c-0.7,0.7-1.6,1-2.6,1c-0.9,0-1.7-0.3-2.4-0.8c-0.8-0.7-1.1-1.7-1-2.7c-0.1-1,0.3-2,1-2.7c0.6-0.7,1.5-1,2.4-1
		C128.4,256.5,128.9,256.6,129.3,256.8z M126.6,258.4c-0.2,0.3-0.4,0.6-0.5,1h3c0-0.4-0.2-0.8-0.5-1c-0.3-0.2-0.6-0.4-1-0.4
		C127.3,258,126.9,258.1,126.6,258.4z"/>
	<path class="chaining-mobile-1" d="M133.8,263.5h-1.8v-9.2h1.8V263.5z"/>
	<path class="chaining-mobile-1" d="M137.3,263.5h-1.8v-9.2h1.8V263.5z"/>
	<path class="chaining-mobile-1" d="M144.8,262.6c-1.5,1.4-3.8,1.4-5.3,0c-1.2-1.5-1.2-3.6,0-5.1c1.4-1.5,3.7-1.5,5.2-0.1c0,0,0.1,0.1,0.1,0.1
		c0.6,0.7,0.9,1.6,0.9,2.6C145.7,261,145.4,261.9,144.8,262.6z M143.3,261.6c0.5-1,0.5-2.2,0-3.2c-0.6-0.7-1.5-0.7-2.2-0.2
		c-0.1,0.1-0.1,0.1-0.2,0.2c-0.5,1-0.5,2.2,0,3.2c0.6,0.7,1.5,0.7,2.2,0.2C143.2,261.8,143.3,261.7,143.3,261.6z"/>
	<path class="chaining-mobile-1" d="M148.5,260.6c0,0.4,0.1,0.7,0.3,1c0.4,0.4,1,0.6,1.6,0.6c0.4,0,0.7-0.1,1.1-0.2c0.5-0.1,0.8-0.5,0.8-1
		c0-0.3-0.2-0.6-0.4-0.7c-0.4-0.2-0.8-0.4-1.3-0.4l-1-0.2c-0.7-0.1-1.4-0.4-2-0.7c-0.7-0.4-1-1.2-1-2c0-0.8,0.3-1.5,0.9-2.1
		c0.8-0.6,1.7-0.9,2.6-0.8c0.9,0,1.8,0.2,2.5,0.8c0.7,0.5,1.1,1.4,1.1,2.2h-1.8c0-0.5-0.3-1-0.7-1.2c-0.4-0.2-0.7-0.2-1.1-0.2
		c-0.4,0-0.8,0.1-1.2,0.3c-0.3,0.2-0.5,0.5-0.5,0.8c0,0.3,0.2,0.6,0.5,0.7c0.4,0.2,0.8,0.3,1.2,0.4l1.6,0.4c0.6,0.1,1.1,0.3,1.6,0.6
		c0.6,0.5,0.9,1.2,0.8,1.9c0,0.8-0.4,1.6-1,2.1c-0.8,0.6-1.7,0.9-2.7,0.8c-1,0.1-2-0.2-2.9-0.8c-0.7-0.5-1.1-1.4-1-2.2L148.5,260.6z
		"/>
	<path class="chaining-mobile-1" d="M159.9,256.8c0.5,0.2,0.9,0.6,1.2,1c0.3,0.4,0.5,0.9,0.6,1.4c0.1,0.4,0.1,0.9,0.1,1.4h-5
		c-0.1,0.6,0.2,1.1,0.7,1.4c0.3,0.2,0.6,0.3,1,0.2c0.4,0,0.7-0.1,1-0.3c0.2-0.1,0.2-0.2,0.4-0.5h1.8c-0.1,0.5-0.3,0.9-0.6,1.2
		c-0.7,0.7-1.6,1-2.6,1c-0.9,0-1.7-0.3-2.4-0.8c-0.8-0.7-1.1-1.7-1-2.7c-0.1-1,0.3-2,1-2.7c0.6-0.7,1.5-1,2.4-1
		C159,256.5,159.4,256.6,159.9,256.8z M157.3,258.4c-0.2,0.3-0.4,0.6-0.5,1h3c0-0.4-0.2-0.8-0.5-1c-0.3-0.2-0.6-0.4-1-0.4
		C157.9,257.9,157.5,258.1,157.3,258.4z"/>
	<path class="chaining-mobile-1" d="M166.4,256.5h0.2v1.8H166c-0.6-0.1-1.1,0.2-1.4,0.7c-0.2,0.4-0.3,0.8-0.2,1.2v3.2h-1.8v-6.8h1.7v1.2
		c0.2-0.4,0.4-0.7,0.7-1c0.4-0.3,0.8-0.4,1.3-0.4L166.4,256.5z"/>
	<path class="chaining-mobile-1" d="M171.7,256.7h1.9l-2.5,6.8h-1.8l-2.5-6.8h2l1.4,5L171.7,256.7z"/>
	<path class="chaining-mobile-1" d="M176.5,255.9h-1.8v-1.7h1.8V255.9z M174.7,256.7h1.8v6.8h-1.8V256.7z"/>
	<path class="chaining-mobile-1" d="M182.3,259.1c0-0.3-0.1-0.5-0.2-0.7c-0.3-0.3-0.6-0.4-1-0.4c-0.6,0-1.1,0.3-1.2,0.9c-0.1,0.4-0.2,0.8-0.2,1.3
		c0,0.4,0.1,0.8,0.2,1.2c0.2,0.5,0.7,0.9,1.2,0.9c0.3,0,0.7-0.1,0.9-0.3c0.2-0.3,0.3-0.6,0.3-0.9h1.8c-0.1,0.5-0.3,1.1-0.6,1.5
		c-1.2,1.4-3.3,1.6-4.7,0.4c-0.1-0.1-0.1-0.1-0.2-0.2c-0.5-0.7-0.8-1.6-0.8-2.6c-0.1-1,0.3-2,0.9-2.7c0.6-0.7,1.5-1,2.4-1
		c0.7,0,1.5,0.2,2.1,0.6c0.6,0.5,1,1.2,1,2L182.3,259.1z"/>
	<path class="chaining-mobile-1" d="M189.8,256.8c0.5,0.2,0.9,0.6,1.2,1c0.3,0.4,0.5,0.9,0.6,1.4c0.1,0.4,0.1,0.9,0.1,1.4h-5
		c-0.1,0.6,0.2,1.1,0.7,1.4c0.3,0.2,0.6,0.3,1,0.2c0.4,0,0.7-0.1,1-0.3c0.2-0.1,0.2-0.2,0.4-0.5h1.8c-0.1,0.5-0.3,0.9-0.6,1.2
		c-0.7,0.7-1.6,1-2.6,1c-0.9,0-1.7-0.3-2.4-0.8c-0.8-0.7-1.1-1.7-1-2.7c-0.1-1,0.3-2,1-2.7c0.6-0.7,1.5-1,2.4-1
		C188.9,256.5,189.4,256.6,189.8,256.8z M187.1,258.4c-0.2,0.3-0.4,0.6-0.5,1h3c0-0.4-0.2-0.8-0.5-1c-0.3-0.2-0.6-0.4-1-0.4
		C187.7,258,187.4,258.1,187.1,258.4z"/>
</g>
<g>
	<path class="chaining-mobile-1" d="M81.4,514.4c-0.7,0.5-1.5,0.7-2.3,0.6h-2v3.4h-1.9v-9.2h3.9c0.8,0,1.6,0.2,2.2,0.7c0.6,0.6,0.9,1.4,0.8,2.2
		C82.3,513,82,513.8,81.4,514.4z M80,511.1c-0.3-0.2-0.6-0.4-1-0.3h-1.8v2.7h1.8c0.4,0,0.7-0.1,1-0.3c0.3-0.3,0.4-0.6,0.4-1
		C80.4,511.8,80.3,511.4,80,511.1L80,511.1z"/>
	<path class="chaining-mobile-1" d="M87.4,511.5h0.2v1.8H87c-0.6-0.1-1.1,0.2-1.4,0.7c-0.2,0.4-0.3,0.8-0.2,1.2v3.2h-1.8v-6.8h1.7v1.2
		c0.2-0.4,0.4-0.7,0.7-1c0.4-0.3,0.8-0.4,1.3-0.4L87.4,511.5z"/>
	<path class="chaining-mobile-1" d="M90.5,510.8h-1.8v-1.7h1.8V510.8z M88.7,511.6h1.8v6.8h-1.8V511.6z"/>
	<path class="chaining-mobile-1" d="M96.4,511.6h1.9l-2.5,6.8H94l-2.5-6.8h2l1.4,5L96.4,511.6z"/>
	<path class="chaining-mobile-1" d="M102,514.3c0.2,0,0.5-0.1,0.7-0.2c0.2-0.1,0.4-0.2,0.4-0.5c0-0.2-0.1-0.5-0.3-0.6c-0.3-0.1-0.6-0.2-0.9-0.2
		c-0.3,0-0.7,0.1-0.9,0.3c-0.2,0.2-0.2,0.4-0.2,0.6h-1.6c0-0.5,0.2-1,0.5-1.4c0.6-0.6,1.5-1,2.4-0.9c0.7,0,1.4,0.2,2,0.5
		c0.6,0.3,0.9,1,0.9,1.7v3.9c0,0.2,0,0.3,0.1,0.5c0,0.1,0.2,0.2,0.2,0.2v0.1h-2c-0.1-0.1-0.1-0.3-0.1-0.4c0-0.1,0-0.3-0.1-0.4
		c-0.3,0.3-0.6,0.5-0.9,0.7c-0.4,0.2-0.8,0.3-1.3,0.3c-0.6,0-1.1-0.2-1.5-0.6c-0.4-0.4-0.7-0.9-0.6-1.5c0-0.8,0.3-1.5,1-1.8
		c0.5-0.3,1-0.4,1.6-0.4L102,514.3z M103.1,515.1c-0.1,0.1-0.2,0.1-0.3,0.2c-0.1,0.1-0.2,0.1-0.5,0.2l-0.4,0.1
		c-0.3,0-0.5,0.1-0.8,0.2c-0.3,0.1-0.4,0.4-0.4,0.7c0,0.3,0.1,0.6,0.2,0.6c0.2,0.1,0.4,0.2,0.6,0.2c0.4,0,0.7-0.1,1-0.3
		c0.3-0.3,0.5-0.7,0.5-1.2L103.1,515.1L103.1,515.1z"/>
	<path class="chaining-mobile-1" d="M105.7,512.9v-1.3h1v-1.9h1.8v1.9h1.1v1.3h-1.2v3.6c0,0.2,0,0.5,0.1,0.6s0.3,0.1,0.6,0.1h0.3v1.4h-0.9
		c-0.9,0-1.4-0.1-1.8-0.4c-0.2-0.3-0.3-0.6-0.3-1V513L105.7,512.9L105.7,512.9z"/>
	<path class="chaining-mobile-1" d="M115.1,511.7c0.5,0.2,0.9,0.6,1.2,1c0.3,0.4,0.5,0.9,0.6,1.4c0.1,0.4,0.1,0.9,0.1,1.4h-5
		c-0.1,0.6,0.2,1.1,0.7,1.4c0.3,0.2,0.6,0.3,1,0.2c0.4,0,0.7-0.1,1-0.3c0.2-0.1,0.2-0.2,0.4-0.5h1.8c-0.1,0.5-0.3,0.9-0.6,1.2
		c-0.7,0.7-1.6,1-2.6,1c-0.9,0-1.7-0.3-2.4-0.8c-0.8-0.7-1.1-1.7-1-2.7c-0.1-1,0.3-2,1-2.7c0.6-0.7,1.5-1,2.4-1
		C114.2,511.4,114.7,511.5,115.1,511.7z M112.5,513.3c-0.2,0.3-0.4,0.6-0.5,1h3c0-0.4-0.2-0.8-0.5-1c-0.3-0.2-0.6-0.4-1-0.4
		C113.1,512.8,112.7,513,112.5,513.3L112.5,513.3z"/>
	<path class="chaining-mobile-1" d="M118,518.4v-9.2h1.9v3.5h3.6v-3.5h1.9v9.2h-1.9v-4.1h-3.6v4.1H118z"/>
	<path class="chaining-mobile-1" d="M131.5,511.7c0.5,0.2,0.9,0.6,1.2,1c0.3,0.4,0.5,0.9,0.6,1.4c0.1,0.4,0.1,0.9,0.1,1.4h-5
		c-0.1,0.6,0.2,1.2,0.8,1.5c0.3,0.2,0.6,0.3,1,0.2c0.4,0,0.7-0.1,1-0.3c0.2-0.1,0.2-0.2,0.4-0.5h1.8c-0.1,0.5-0.3,0.9-0.6,1.2
		c-0.7,0.7-1.6,1-2.6,1c-0.9,0-1.7-0.3-2.4-0.8c-0.8-0.7-1.1-1.7-1-2.7c-0.1-1,0.3-2,1-2.7c0.6-0.7,1.5-1,2.4-1
		C130.6,511.4,131.1,511.5,131.5,511.7z M128.9,513.3c-0.2,0.3-0.4,0.6-0.5,1h3c0-0.4-0.2-0.8-0.5-1c-0.3-0.2-0.6-0.4-1-0.4
		C129.5,512.8,129.1,513,128.9,513.3z"/>
	<path class="chaining-mobile-1" d="M136,518.4h-1.8v-9.2h1.8L136,518.4z"/>
	<path class="chaining-mobile-1" d="M139.6,518.4h-1.8v-9.2h1.8V518.4z"/>
	<path class="chaining-mobile-1" d="M146.9,517.5c-1.5,1.4-3.8,1.4-5.3,0c-1.2-1.5-1.2-3.6,0-5.1c1.4-1.5,3.7-1.5,5.2-0.1c0,0,0.1,0.1,0.1,0.1
		c0.6,0.7,0.9,1.6,0.9,2.6C147.9,515.9,147.6,516.8,146.9,517.5z M145.6,516.5c0.5-1,0.5-2.2,0-3.2c-0.6-0.7-1.5-0.7-2.2-0.2
		c-0.1,0.1-0.1,0.1-0.2,0.2c-0.5,1-0.5,2.2,0,3.2c0.3,0.4,0.7,0.6,1.2,0.6C144.8,517.1,145.3,516.9,145.6,516.5L145.6,516.5z"/>
	<path class="chaining-mobile-1" d="M150.6,515.5c0,0.4,0.1,0.7,0.3,1c0.4,0.4,1,0.6,1.6,0.6c0.4,0,0.8,0,1.1-0.2c0.5-0.1,0.8-0.5,0.8-1
		c0-0.3-0.2-0.6-0.4-0.7c-0.4-0.2-0.8-0.4-1.3-0.4l-1-0.2c-0.7-0.1-1.4-0.4-2-0.7c-0.7-0.4-1-1.2-1-2c0-0.8,0.3-1.5,0.9-2.1
		c0.8-0.6,1.7-0.9,2.6-0.8c0.9,0,1.8,0.2,2.5,0.8c0.7,0.5,1.1,1.4,1.1,2.2h-1.8c0-0.5-0.3-1-0.7-1.2c-0.4-0.2-0.7-0.2-1.1-0.2
		c-0.4,0-0.8,0.1-1.2,0.3c-0.3,0.2-0.5,0.5-0.5,0.8c0,0.3,0.2,0.6,0.5,0.7c0.4,0.2,0.8,0.3,1.2,0.4l1.6,0.4c0.6,0.1,1.1,0.3,1.6,0.6
		c0.6,0.5,0.9,1.2,0.8,1.9c0,0.8-0.4,1.6-1,2.1c-0.8,0.6-1.7,0.9-2.7,0.8c-1,0.1-2-0.2-2.9-0.8c-0.7-0.5-1.1-1.4-1-2.2L150.6,515.5z
		"/>
	<path class="chaining-mobile-1" d="M162.1,511.7c0.5,0.2,0.9,0.6,1.2,1c0.3,0.4,0.5,0.9,0.6,1.4c0.1,0.4,0.1,0.9,0.1,1.4h-5
		c-0.1,0.6,0.2,1.1,0.7,1.4c0.3,0.2,0.6,0.3,1,0.2c0.4,0,0.7-0.1,1-0.3c0.2-0.1,0.2-0.2,0.4-0.5h1.8c-0.1,0.5-0.3,0.9-0.6,1.2
		c-0.7,0.7-1.6,1-2.6,1c-0.9,0-1.7-0.3-2.4-0.8c-0.8-0.7-1.1-1.7-1-2.7c-0.1-1,0.3-2,1-2.7c0.6-0.7,1.5-1,2.4-1
		C161.1,511.4,161.6,511.5,162.1,511.7z M159.4,513.3c-0.2,0.3-0.4,0.6-0.5,1h3c0-0.4-0.2-0.8-0.5-1c-0.3-0.2-0.6-0.4-1-0.4
		C160.1,512.9,159.7,513,159.4,513.3z"/>
	<path class="chaining-mobile-1" d="M168.5,511.5h0.2v1.8h-0.6c-0.6-0.1-1.1,0.2-1.4,0.7c-0.2,0.4-0.3,0.8-0.2,1.2v3.2h-1.8v-6.8h1.7v1.2
		c0.2-0.4,0.4-0.7,0.7-1c0.4-0.3,0.8-0.4,1.3-0.4L168.5,511.5z"/>
	<path class="chaining-mobile-1" d="M174,511.6h1.9l-2.5,6.8h-1.8l-2.5-6.8h2l1.4,5L174,511.6z"/>
	<path class="chaining-mobile-1" d="M178.7,510.8h-1.8v-1.7h1.8V510.8z M176.9,511.6h1.8v6.8h-1.8V511.6z"/>
	<path class="chaining-mobile-1" d="M184.5,514c0-0.3-0.1-0.5-0.2-0.7c-0.3-0.3-0.6-0.4-1-0.4c-0.6,0-1.1,0.3-1.2,0.9c-0.1,0.4-0.2,0.8-0.2,1.3
		c0,0.4,0.1,0.8,0.2,1.2c0.2,0.5,0.7,0.9,1.2,0.9c0.3,0,0.7-0.1,0.9-0.3c0.2-0.3,0.3-0.6,0.3-0.9h1.8c-0.1,0.5-0.3,1.1-0.6,1.5
		c-1.2,1.4-3.3,1.6-4.7,0.4c-0.1-0.1-0.1-0.1-0.2-0.2c-0.5-0.7-0.8-1.6-0.8-2.6c-0.1-1,0.3-2,0.9-2.7c0.6-0.7,1.5-1,2.4-1
		c0.7,0,1.5,0.2,2.1,0.6c0.6,0.5,1,1.2,1,2L184.5,514z"/>
	<path class="chaining-mobile-1" d="M192,511.7c0.5,0.2,0.9,0.6,1.2,1c0.3,0.4,0.5,0.9,0.6,1.4c0.1,0.4,0.1,0.9,0.1,1.4h-5
		c-0.1,0.6,0.2,1.1,0.7,1.4c0.3,0.2,0.6,0.3,1,0.2c0.4,0,0.7-0.1,1-0.3c0.2-0.1,0.2-0.2,0.4-0.5h1.8c-0.1,0.5-0.3,0.9-0.6,1.2
		c-0.7,0.7-1.6,1-2.6,1c-0.9,0-1.7-0.3-2.4-0.8c-0.8-0.7-1.1-1.7-1-2.7c-0.1-1,0.3-2,1-2.7c0.6-0.7,1.5-1,2.4-1
		C191.1,511.4,191.5,511.5,192,511.7z M189.3,513.3c-0.2,0.3-0.4,0.6-0.5,1h3c0-0.4-0.2-0.8-0.5-1c-0.3-0.2-0.6-0.4-1-0.4
		C190,512.8,189.6,513,189.3,513.3z"/>
</g>
<g>
	<path class="chaining-mobile-2" d="M155.9,43c-0.3-2.6-2.4-4.7-5-5c-2.4-0.2-4.7-0.3-7.1-0.2H40.1c-2.3-0.1-4.6,0-6.9,0.2c-2.6,0.3-4.7,2.4-5,5
		c-0.2,2.3-0.3,4.6-0.2,6.9V60c-0.1,2.4,0,4.7,0.2,7.1c0.3,2.6,2.4,4.7,5,5c2.3,0.2,4.6,0.3,6.9,0.2h103.9c2.4,0.1,4.7,0,7.1-0.2
		c2.4-0.3,4.4-2.1,4.9-4.5V43z"/>
	<g>
		<path class="chaining-mobile-3" d="M53.4,52.1c-0.1-0.7-0.6-1.3-1.3-1.6c-0.4-0.2-0.8-0.3-1.3-0.3c-0.9,0-1.7,0.3-2.3,1c-0.7,0.9-1,2.1-0.9,3.2
			c-0.1,1.1,0.2,2.2,1,3c0.6,0.6,1.4,0.9,2.2,0.9c0.7,0,1.5-0.2,2-0.7c0.5-0.5,0.8-1.1,1-1.8h-2.7v-1.9h4.8v6.2h-1.6l-0.4-1.5
			l-1.2,1.2c-0.7,0.4-1.5,0.6-2.3,0.6c-1.4,0-2.8-0.5-3.8-1.6c-1.1-1.2-1.6-2.8-1.5-4.4c-0.1-1.6,0.4-3.2,1.5-4.5
			c1.1-1.1,2.6-1.8,4.1-1.7c1.3-0.1,2.5,0.3,3.5,1.1c0.9,0.7,1.4,1.7,1.5,2.8H53.4z"/>
		<path class="chaining-mobile-3" d="M66.6,50.6h-6.1V53h5.6v2h-5.6v3h6.4v2.1h-8.7V48.5h8.4V50.6z"/>
		<path class="chaining-mobile-3" d="M77.1,48.5v2h-3.4V60h-2.4v-9.5h-3.5v-2L77.1,48.5z"/>
	</g>
	<g>
		<path class="chaining-mobile-3" d="M90.2,60.5h-1.3l6.7-11.2h1.2L90.2,60.5z"/>
		<path class="chaining-mobile-3" d="M98.2,60.2v-11h1.3v5.1c0.4-0.5,0.8-1,1.3-1.4c0.4-0.3,1-0.5,1.5-0.5c0.4,0,0.8,0.1,1.2,0.3
			c0.3,0.2,0.6,0.4,0.7,0.8c0.1,0.2,0.2,0.5,0.2,0.8c0,0.3,0.1,0.8,0.1,1.7v4.3h-1.3v-4.4c0-0.5,0-1-0.1-1.5
			c-0.1-0.2-0.2-0.4-0.4-0.6c-0.2-0.2-0.4-0.2-0.6-0.2c-0.5,0-1,0.3-1.4,0.6c-0.5,0.5-0.9,1-1.3,1.6v4.5L98.2,60.2L98.2,60.2z"/>
		<path class="chaining-mobile-3" d="M113,59.7c-0.9,0.5-1.9,0.7-2.9,0.7c-0.6,0-1.3-0.2-1.8-0.5c-0.6-0.4-1-0.9-1.3-1.5c-0.7-1.2-0.7-2.8,0-4
			c0.3-0.6,0.7-1.1,1.3-1.5c0.6-0.4,1.2-0.5,1.9-0.5c0.8,0,1.7,0.3,2.2,1c0.6,0.9,0.9,1.9,0.8,3v0.3h-5.3c0,0.5,0.1,1,0.3,1.5
			c0.2,0.4,0.5,0.8,0.9,1c0.4,0.2,0.8,0.3,1.2,0.3c0.9-0.1,1.9-0.3,2.7-0.8L113,59.7z M107.9,55.6h3.8v-0.2c0-0.5-0.2-1.1-0.5-1.5
			c-0.3-0.4-0.7-0.6-1.2-0.6c-0.5,0-1,0.2-1.3,0.6C108.2,54.4,107.9,55,107.9,55.6z"/>
		<path class="chaining-mobile-3" d="M117.1,60.2v-10h-2.3v-1.1h3.6v10h2.4v1.1H117.1z"/>
		<path class="chaining-mobile-3" d="M125.5,60.2v-10h-2.3v-1.1h3.6v10h2.4v1.1H125.5z"/>
		<path class="chaining-mobile-3" d="M135,60.4c-1,0-1.9-0.4-2.6-1.1c-1.3-1.7-1.3-4.1,0-5.8c0.6-0.8,1.6-1.2,2.6-1.1c1,0,1.9,0.4,2.6,1.1
			c1.3,1.7,1.3,4.1,0,5.8C136.9,60,135.9,60.4,135,60.4z M135,59.3c0.6,0,1.2-0.3,1.6-0.8c0.4-0.6,0.6-1.4,0.6-2.2
			c0-0.8-0.2-1.5-0.6-2.2c-0.7-0.9-1.9-1.1-2.8-0.4c-0.2,0.1-0.3,0.2-0.4,0.4c-0.8,1.4-0.8,3,0,4.4C133.7,59.1,134.3,59.3,135,59.3z
			"/>
	</g>
	<path class="chaining-mobile-2" d="M31.5,277.4l8.4-15.2c0.6-1.1,0.2-2.5-0.9-3c-0.3-0.2-0.7-0.3-1.1-0.3h-4.8V60l-5,0.1V259h-4.9
		c-1.2,0-2.3,1-2.3,2.2c0,0.4,0.1,0.7,0.3,1.1l8.4,15.2c0.4,0.5,1.1,0.6,1.6,0.2C31.3,277.6,31.4,277.5,31.5,277.4z"/>
</g>
<g>
	<path class="chaining-mobile-1" d="M100.7,129.6c0.3,0.1,0.6,0.3,0.8,0.6c0.2,0.2,0.3,0.4,0.4,0.6c0.1,0.2,0.1,0.4,0.1,0.7c0,0.3,0,0.6-0.1,0.9
		l-0.1,0.7c-0.1,0.3-0.1,0.5-0.1,0.8c0,0.2,0.1,0.5,0.3,0.6c0.3,0.2,0.7,0.3,1.1,0.2h0.9v0.9h-0.9c-0.7,0.1-1.5-0.1-2.1-0.5
		c-0.3-0.3-0.5-0.7-0.5-1.2c0-0.2,0-0.5,0.1-0.7l0.1-0.5l0.1-0.5l0.1-0.3c0-0.1,0-0.3,0-0.4c0-0.3-0.1-0.7-0.4-0.9
		c-0.4-0.3-0.8-0.4-1.3-0.4h-0.5v-0.9h0.5c0.5,0,0.9-0.1,1.3-0.4c0.3-0.3,0.4-0.6,0.4-1c0-0.1,0-0.3,0-0.4l-0.1-0.3l-0.1-0.5
		l-0.1-0.5c-0.1-0.2-0.1-0.5-0.1-0.8c0-0.4,0.2-0.9,0.5-1.2c0.6-0.4,1.3-0.6,2.1-0.5h0.9v0.9h-0.9c-0.4,0-0.8,0-1.1,0.2
		c-0.2,0.2-0.3,0.4-0.3,0.6c0,0.3,0.1,0.5,0.1,0.8l0.1,0.7c0.1,0.3,0.1,0.6,0.1,0.9c0,0.2,0,0.5-0.1,0.7c-0.1,0.2-0.2,0.4-0.4,0.6
		C101.3,129.2,101,129.5,100.7,129.6z"/>
	<path class="chaining-mobile-1" d="M106.9,133.3v-6.5h1v1.5c0.2-0.5,0.5-0.9,0.8-1.3c0.2-0.2,0.5-0.3,0.8-0.4c0.3,0,0.6,0.1,0.8,0.4
		c0.2,0.3,0.3,0.7,0.3,1v0.4c0.1-0.4,0.3-0.7,0.5-1c0.2-0.2,0.3-0.4,0.6-0.6c0.2-0.1,0.4-0.2,0.7-0.2c0.3,0,0.5,0.1,0.7,0.4
		c0.2,0.4,0.4,0.9,0.3,1.4v4.9h-1v-4.5c0-0.2,0-0.5,0-0.8c0-0.1-0.1-0.2-0.1-0.3c-0.1-0.1-0.1-0.1-0.2-0.1c-0.2,0-0.4,0.2-0.7,0.5
		c-0.3,0.5-0.6,1-0.7,1.6v3.6h-0.9v-4.5c0-0.6-0.1-0.9-0.2-1c-0.1-0.1-0.2-0.1-0.3-0.2c-0.2,0-0.4,0.2-0.7,0.5
		c-0.3,0.4-0.5,0.9-0.7,1.3v3.8L106.9,133.3z"/>
	<path class="chaining-mobile-1" d="M114.7,133v-1.2c0.4,0.3,0.9,0.5,1.4,0.6c0.4,0.1,0.8,0.2,1.2,0.2c0.4,0,0.8-0.1,1.2-0.3
		c0.2-0.1,0.4-0.4,0.4-0.7c0-0.2-0.1-0.3-0.2-0.5c-0.3-0.2-0.5-0.4-0.8-0.5l-0.4-0.1l-0.8-0.3c-0.6-0.2-1.1-0.5-1.5-0.9
		c-0.2-0.3-0.3-0.6-0.3-1c0-0.5,0.2-1,0.6-1.3c0.6-0.4,1.3-0.6,2-0.5c0.7,0,1.4,0.1,2,0.3v1c-0.6-0.2-1.3-0.4-2-0.4
		c-0.4,0-0.7,0.1-1.1,0.2c-0.2,0.1-0.4,0.3-0.4,0.6c0,0.2,0.1,0.5,0.3,0.6c0.3,0.2,0.7,0.4,1.1,0.5l0.7,0.3c0.5,0.2,1,0.4,1.4,0.8
		c0.3,0.3,0.4,0.7,0.4,1.1c0,0.5-0.2,1.1-0.7,1.4c-0.6,0.4-1.4,0.6-2.1,0.6C116.4,133.5,115.5,133.3,114.7,133z"/>
	<path class="chaining-mobile-1" d="M125.6,131.9c-0.3,0.5-0.7,0.9-1.2,1.2c-0.4,0.3-0.8,0.4-1.3,0.4c-0.6,0-1.1-0.3-1.5-0.7
		c-0.5-0.6-0.7-1.4-0.7-2.1c0-0.7,0.1-1.4,0.4-2c0.3-0.6,0.7-1.1,1.2-1.4c0.5-0.4,1.2-0.5,1.8-0.5c0.2,0,0.5,0,0.9,0.1h0.3h1.1v4.6
		c0,1.1,0,1.8,0,2c0,0.2-0.1,0.5-0.1,0.7c-0.2,0.6-0.5,1.1-1.1,1.4c-0.6,0.4-1.3,0.5-2,0.5c-0.8,0-1.7-0.2-2.4-0.6v-1.1
		c0.4,0.2,0.7,0.4,1.1,0.6c0.4,0.2,0.9,0.2,1.3,0.2c0.3,0,0.6-0.1,0.9-0.2c0.3-0.1,0.5-0.2,0.7-0.4c0.2-0.2,0.3-0.4,0.4-0.7
		c0.1-0.3,0.1-0.7,0.1-1.1L125.6,131.9z M125.6,130.6v-2.8c-0.4-0.1-0.7-0.2-1.1-0.2c-0.6,0-1.3,0.3-1.7,0.8
		c-0.5,0.6-0.7,1.4-0.7,2.1c0,0.5,0.1,1,0.4,1.5c0.2,0.3,0.5,0.5,0.8,0.5c0.4,0,0.8-0.2,1.1-0.5C125,131.6,125.3,131.1,125.6,130.6z
		"/>
	<path class="chaining-mobile-1" d="M130.6,128.5c-0.6,0-1-0.4-1-1c0-0.6,0.4-1,1-1c0.3,0,0.5,0.1,0.7,0.3c0.2,0.2,0.3,0.4,0.3,0.7
		c0,0.3-0.1,0.5-0.3,0.7C131.1,128.4,130.9,128.5,130.6,128.5z M130.6,133.6c-0.3,0-0.5-0.1-0.7-0.3c-0.2-0.2-0.3-0.4-0.3-0.7
		c0-0.6,0.4-1,1-1c0.3,0,0.5,0.1,0.7,0.3c0.2,0.2,0.3,0.4,0.3,0.7C131.6,133.2,131.1,133.6,130.6,133.6L130.6,133.6z"/>
	<path class="chaining-mobile-1" d="M141.6,127.1h-0.8l-0.4-3.3h1.5L141.6,127.1z M144.1,127.1h-0.8l-0.3-3.3h1.4L144.1,127.1z"/>
	<path class="chaining-mobile-1" d="M146.3,133.3v-9.1h1.2v3.9h3.3v-3.9h1.2v9.1h-1.2v-4.3h-3.3v4.3H146.3z"/>
	<path class="chaining-mobile-1" d="M158.6,132.9c-0.8,0.4-1.6,0.6-2.5,0.6c-0.6,0-1.1-0.1-1.6-0.4c-0.5-0.3-0.9-0.7-1.1-1.3
		c-0.3-0.5-0.4-1.1-0.4-1.8c0-0.6,0.1-1.2,0.4-1.7c0.2-0.5,0.6-1,1.1-1.3c0.5-0.3,1-0.5,1.6-0.5c0.7,0,1.4,0.3,1.9,0.8
		c0.5,0.7,0.8,1.6,0.7,2.6v0.2h-4.5c0,0.4,0.1,0.9,0.3,1.2c0.2,0.3,0.4,0.6,0.8,0.9c0.3,0.2,0.6,0.3,1,0.3c0.8,0,1.6-0.3,2.3-0.7
		V132.9z M154.2,129.4h3.3v-0.2c0-0.5-0.1-0.9-0.4-1.3c-0.2-0.3-0.6-0.5-1-0.5c-0.4,0-0.8,0.2-1.2,0.5
		C154.5,128.4,154.3,128.9,154.2,129.4z"/>
	<path class="chaining-mobile-1" d="M161.5,133.3v-8.5h-2v-0.9h3.1v8.5h2v0.9L161.5,133.3z"/>
	<path class="chaining-mobile-1" d="M168.2,133.3v-8.5h-2v-0.9h3v8.5h2v0.9L168.2,133.3z"/>
	<path class="chaining-mobile-1" d="M175.8,133.5c-0.9,0-1.7-0.3-2.2-1c-1.1-1.5-1.1-3.5,0-4.9c1.1-1.2,3.1-1.3,4.3-0.2c0.1,0.1,0.1,0.1,0.2,0.2
		c1.1,1.5,1.1,3.5,0,4.9C177.5,133.2,176.7,133.6,175.8,133.5z M175.8,132.6c0.5,0,1.1-0.2,1.4-0.7c0.4-0.6,0.5-1.2,0.5-1.9
		c0-0.7-0.1-1.3-0.5-1.9c-0.3-0.4-0.8-0.7-1.4-0.7c-0.5,0-1.1,0.2-1.4,0.7c-0.4,0.5-0.6,1.2-0.5,1.9c0,0.7,0.1,1.3,0.5,1.9
		C174.7,132.4,175.2,132.6,175.8,132.6z"/>
	<path class="chaining-mobile-1" d="M186.7,133.3l-1.1-6.5h1l0.6,4l0.2,0.9l0.2-0.9l1-4h1l1.2,4l0.2,0.9l0.1-0.9l0.6-4h0.8l-1.1,6.5h-1l-1.3-4.2
		l-0.2-0.9l0,0l-0.2,0.9l-1.1,4.2H186.7z"/>
	<path class="chaining-mobile-1" d="M195.8,133.5c-0.9,0-1.7-0.3-2.2-1c-1.1-1.5-1.1-3.5,0-4.9c0.6-0.7,1.4-1,2.2-1c0.9,0,1.7,0.3,2.2,1
		c1.1,1.4,1.1,3.5,0,4.9C197.5,133.2,196.6,133.6,195.8,133.5z M195.8,132.6c0.5,0,1.1-0.2,1.4-0.7c0.4-0.6,0.5-1.2,0.5-1.9
		c0-0.7-0.1-1.3-0.5-1.9c-0.6-0.8-1.7-0.9-2.5-0.3c-0.1,0.1-0.2,0.2-0.3,0.3c-0.4,0.5-0.6,1.2-0.5,1.9c0,0.7,0.1,1.3,0.5,1.9
		C194.7,132.4,195.2,132.6,195.8,132.6z"/>
	<path class="chaining-mobile-1" d="M200.3,133.3v-6.5h1.1v1.4c0.3-0.5,0.7-0.9,1.2-1.2c0.4-0.3,0.9-0.4,1.5-0.4c0.4,0,0.8,0.1,1.2,0.2v2.4h-1
		v-1.5c-0.1,0-0.3,0-0.4,0c-0.4,0-0.9,0.2-1.2,0.5c-0.5,0.4-0.8,0.9-1.1,1.4v3.8L200.3,133.3z"/>
	<path class="chaining-mobile-1" d="M208.2,133.3v-8.5h-2v-0.9h3.1v8.5h2v0.9L208.2,133.3z"/>
	<path class="chaining-mobile-1" d="M217.4,131.9c-0.3,0.5-0.7,0.9-1.2,1.2c-0.4,0.3-0.8,0.4-1.3,0.4c-0.6,0-1.1-0.3-1.5-0.7
		c-0.5-0.6-0.7-1.4-0.7-2.1c0-0.7,0.1-1.4,0.4-2c0.3-0.6,0.7-1.1,1.2-1.4c0.5-0.4,1.2-0.5,1.8-0.5c0.2,0,0.5,0,0.9,0.1h0.3v-2.9h1.1
		v9.5h-1.1L217.4,131.9z M217.4,130.6v-2.8c-0.4-0.1-0.7-0.2-1.1-0.2c-0.6,0-1.3,0.3-1.7,0.8c-0.5,0.6-0.7,1.4-0.7,2.1
		c0,0.5,0.1,1,0.4,1.5c0.2,0.3,0.5,0.5,0.8,0.5c0.4,0,0.8-0.2,1.1-0.5C216.8,131.6,217.2,131.1,217.4,130.6z"/>
	<path class="chaining-mobile-1" d="M222.4,133.6c-0.5,0-0.8-0.4-0.8-0.8c0-0.5,0.3-0.8,0.8-0.8c0,0,0,0,0,0c0.5,0,0.8,0.4,0.8,0.8
		c0,0.2-0.1,0.5-0.3,0.6C222.9,133.5,222.6,133.6,222.4,133.6z M221.9,130.7l-0.3-6.5h1.5l-0.3,6.5H221.9z"/>
	<path class="chaining-mobile-1" d="M228.2,127.1h-0.8l-0.4-3.3h1.5L228.2,127.1z M230.7,127.1H230l-0.3-3.3h1.4L230.7,127.1z"/>
	<path class="chaining-mobile-1" d="M238,129.6c-0.3-0.1-0.6-0.3-0.8-0.6c-0.2-0.2-0.3-0.4-0.4-0.6c-0.1-0.2-0.1-0.4-0.1-0.7c0-0.3,0-0.6,0.1-0.9
		l0.1-0.7c0.1-0.3,0.1-0.5,0.1-0.8c0-0.2-0.1-0.5-0.3-0.6c-0.3-0.2-0.7-0.3-1.1-0.2h-0.9v-0.9h0.9c0.7-0.1,1.5,0.1,2.1,0.5
		c0.3,0.3,0.5,0.7,0.5,1.2c0,0.3,0,0.5-0.1,0.8l-0.1,0.5l-0.1,0.5l-0.1,0.3c0,0.1,0,0.3,0,0.4c0,0.3,0.1,0.7,0.4,0.9
		c0.4,0.3,0.8,0.4,1.3,0.4h0.5v0.9h-0.5c-0.5,0-0.9,0.1-1.3,0.4c-0.2,0.3-0.4,0.6-0.4,0.9c0,0.1,0,0.3,0,0.4l0.1,0.3l0.1,0.5
		l0.1,0.5c0.1,0.2,0.1,0.5,0.1,0.8c0,0.4-0.2,0.8-0.5,1.2c-0.6,0.4-1.3,0.6-2.1,0.5h-0.9v-0.9h0.9c0.4,0,0.8,0,1.1-0.2
		c0.2-0.2,0.3-0.4,0.3-0.6c0-0.3,0-0.5-0.1-0.8l-0.1-0.7c-0.1-0.3-0.1-0.6-0.1-0.9c0-0.2,0-0.5,0.1-0.7c0.1-0.2,0.2-0.4,0.4-0.6
		C237.4,129.9,237.7,129.8,238,129.6z"/>
</g>
<g>
	<path class="chaining-mobile-2" d="M241.8,612.5c0.1-2.3,0-4.6-0.2-6.9c-0.3-2.6-2.4-4.7-5-5c-2.4-0.2-4.7-0.3-7.1-0.2h-147
		c-2.3-0.1-4.6,0-6.9,0.2c-2.6,0.3-4.7,2.4-5,5c-0.2,2.3-0.3,4.6-0.2,6.9v34.8l0,0c0.3,2.6,2.4,4.7,5,5c2.3,0.2,4.6,0.3,6.9,0.2h147
		c2.4,0.1,4.7,0,7.1-0.2c2.6-0.3,4.7-2.4,5-5c0.2-2.4,0.3-4.7,0.2-7.1L241.8,612.5z"/>
	<g>
		<path class="chaining-mobile-3" d="M145.2,621.7c0.5-1.1,1.4-2,2.4-2.6c0.7-0.5,1.4-1.1,2.1-1.7c0.5-0.4,0.7-1.1,0.7-1.7c0-0.5-0.1-0.9-0.4-1.3
			c-0.7-0.7-1.8-0.7-2.5,0c-0.1,0.1-0.1,0.2-0.2,0.3c-0.2,0.5-0.3,1-0.3,1.5h-2.3c0-0.9,0.2-1.7,0.6-2.5c0.7-1.2,2-1.9,3.4-1.8
			c1.1,0,2.2,0.4,3.1,1.1c0.8,0.7,1.2,1.7,1.1,2.8c0,0.9-0.3,1.7-0.8,2.4c-0.5,0.6-1.1,1.1-1.7,1.6l-1,0.7c-0.4,0.3-0.8,0.6-1.2,0.9
			c-0.2,0.2-0.4,0.4-0.6,0.7h5.3v2.1h-8.4C144.6,623.3,144.8,622.5,145.2,621.7z"/>
		<path class="chaining-mobile-3" d="M161.7,613.4c0.7,1.5,1,3.1,0.9,4.7c0.1,1.6-0.2,3.2-0.9,4.6c-0.7,1.1-2,1.8-3.3,1.6
			c-1.3,0.1-2.6-0.5-3.3-1.6c-0.7-1.4-1-3-0.9-4.6c-0.1-1.6,0.2-3.2,0.9-4.7c1.4-1.8,4.1-2.1,5.9-0.7
			C161.2,612.9,161.5,613.1,161.7,613.4z M157,621.3c0.2,0.8,1,1.2,1.7,1.1c0.5-0.1,0.9-0.5,1.1-1.1c0.2-1,0.3-2.1,0.3-3.2
			c0-1.1-0.1-2.2-0.3-3.3c-0.2-0.8-1-1.2-1.7-1.1c-0.5,0.1-0.9,0.5-1.1,1.1c-0.2,1.1-0.3,2.2-0.3,3.3
			C156.6,619.1,156.7,620.2,157,621.3z"/>
		<path class="chaining-mobile-3" d="M171.3,613.4c0.7,1.5,1,3.1,0.9,4.7c0.1,1.6-0.2,3.2-0.9,4.6c-0.7,1.1-2,1.8-3.3,1.6
			c-1.3,0.1-2.6-0.5-3.3-1.6c-0.7-1.4-1-3-0.9-4.6c-0.1-1.6,0.2-3.2,0.9-4.7c0.7-1.1,2-1.8,3.3-1.6
			C169.3,611.6,170.6,612.2,171.3,613.4z M166.6,621.3c0.2,0.8,1,1.2,1.7,1.1c0.5-0.1,0.9-0.5,1.1-1.1c0.2-1,0.3-2.1,0.3-3.2
			c0-1.1-0.1-2.2-0.3-3.3c-0.2-0.8-1-1.2-1.7-1.1c-0.5,0.1-0.9,0.5-1.1,1.1c-0.2,1.1-0.3,2.2-0.3,3.3
			C166.2,619.1,166.3,620.2,166.6,621.3z"/>
	</g>
	<path class="chaining-mobile-2" d="M231.7,611.4v-238h4.9c1.2,0,2.3-1,2.3-2.2c0-0.4-0.1-0.7-0.3-1.1l-6.8-12.4v-5h4.9c1.2,0,2.3-1,2.3-2.2
		c0-0.4-0.1-0.7-0.3-1.1l-6.8-12.4v-3.3h4.9c1.2,0,2.3-1,2.3-2.2c0-0.4-0.1-0.7-0.3-1.1l-6.8-12.4V175.2h4.9c1.2,0,2.3-1,2.3-2.2
		c0-0.4-0.1-0.7-0.3-1.1l-8.4-15.2c-0.3-0.6-1-0.8-1.5-0.5c-0.2,0.1-0.4,0.3-0.5,0.5l-8.4,15.2c-0.6,1.1-0.2,2.5,0.9,3
		c0.3,0.2,0.7,0.3,1.1,0.3h4.9v142.6l-6.8,12.4c-0.6,1.1-0.2,2.5,0.9,3c0.3,0.2,0.7,0.3,1.1,0.3h4.9v3.3l-6.8,12.4
		c-0.6,1.1-0.2,2.5,0.9,3c0.3,0.2,0.7,0.3,1.1,0.3h4.9v5l-6.8,12.4c-0.6,1.1-0.2,2.5,0.9,3c0.3,0.2,0.7,0.3,1.1,0.3h4.9v238
		L231.7,611.4z"/>
	<g>
		<path class="chaining-mobile-3" d="M87.4,637.4c0.3,0.1,0.6,0.3,0.8,0.6c0.2,0.2,0.3,0.4,0.4,0.6c0.1,0.2,0.1,0.4,0.1,0.7c0,0.3,0,0.6-0.1,0.9
			l-0.1,0.7c-0.1,0.3-0.1,0.5-0.1,0.8c0,0.2,0.1,0.5,0.3,0.6c0.3,0.2,0.7,0.3,1.2,0.2h0.9v0.9h-0.9c-0.7,0.1-1.5-0.1-2.1-0.5
			c-0.3-0.3-0.5-0.7-0.5-1.2c0-0.3,0-0.5,0.1-0.8l0.1-0.5l0.1-0.5l0.1-0.3c0-0.1,0-0.3,0-0.4c0-0.3-0.1-0.7-0.4-0.9
			c-0.4-0.3-0.8-0.4-1.3-0.4h-0.5V637h0.5c0.5,0,0.9-0.1,1.3-0.4c0.2-0.2,0.4-0.6,0.4-0.9c0-0.1,0-0.3,0-0.4l-0.1-0.3l-0.1-0.5
			l-0.1-0.5c-0.1-0.2-0.1-0.5-0.1-0.8c0-0.4,0.2-0.8,0.5-1.2c0.6-0.4,1.3-0.6,2.1-0.5h0.9v0.9h-0.9c-0.4,0-0.8,0-1.2,0.2
			c-0.2,0.2-0.3,0.4-0.3,0.6c0,0.3,0.1,0.5,0.1,0.8l0.1,0.7c0.1,0.3,0.1,0.6,0.1,0.9c0,0.2,0,0.5-0.1,0.7c-0.1,0.2-0.2,0.4-0.4,0.6
			C88,637.1,87.7,637.3,87.4,637.4z"/>
		<path class="chaining-mobile-3" d="M93.6,641.1v-6.5h1v1.5c0.2-0.5,0.5-0.9,0.8-1.3c0.2-0.2,0.5-0.4,0.8-0.4c0.3,0,0.6,0.1,0.8,0.4
			c0.2,0.3,0.3,0.7,0.3,1.1v0.3c0.1-0.4,0.3-0.7,0.5-1c0.2-0.2,0.4-0.4,0.6-0.6c0.2-0.1,0.4-0.2,0.7-0.2c0.3,0,0.5,0.1,0.7,0.4
			c0.2,0.4,0.4,0.9,0.3,1.4v5h-1v-4.5c0-0.2,0-0.5,0-0.8c0-0.1-0.1-0.2-0.1-0.3c-0.1-0.1-0.1-0.1-0.2-0.1c-0.2,0-0.4,0.2-0.7,0.5
			c-0.3,0.5-0.6,1-0.7,1.5v3.6h-0.9v-4.5c0-0.3,0-0.7-0.2-1c-0.1-0.1-0.2-0.1-0.3-0.2c-0.2,0-0.4,0.2-0.6,0.5
			c-0.3,0.4-0.5,0.9-0.7,1.3v3.8L93.6,641.1z"/>
		<path class="chaining-mobile-3" d="M101.3,640.8v-1.2c0.4,0.3,0.9,0.5,1.4,0.6c0.4,0.1,0.8,0.2,1.2,0.2c0.4,0,0.8-0.1,1.2-0.3
			c0.2-0.1,0.4-0.4,0.4-0.7c0-0.2-0.1-0.3-0.2-0.5c-0.3-0.2-0.5-0.4-0.8-0.5l-0.4-0.2l-0.8-0.3c-0.6-0.2-1.1-0.5-1.5-0.9
			c-0.2-0.3-0.3-0.6-0.3-1c0-0.5,0.2-1,0.6-1.3c0.6-0.4,1.3-0.6,2-0.5c0.7,0,1.4,0.1,2,0.3v1c-0.6-0.2-1.3-0.4-2-0.4
			c-0.4,0-0.8,0.1-1.1,0.2c-0.2,0.1-0.4,0.4-0.4,0.6c0,0.2,0.1,0.4,0.3,0.6c0.3,0.2,0.7,0.4,1.1,0.5l0.7,0.3c0.5,0.2,1,0.4,1.4,0.8
			c0.3,0.3,0.4,0.7,0.4,1.1c0,0.5-0.2,1.1-0.7,1.4c-0.6,0.4-1.4,0.6-2.1,0.5C103,641.3,102.1,641.1,101.3,640.8z"/>
		<path class="chaining-mobile-3" d="M112.3,639.7c-0.3,0.5-0.7,0.9-1.2,1.2c-0.4,0.3-0.8,0.4-1.3,0.4c-0.6,0-1.1-0.3-1.5-0.7
			c-0.5-0.6-0.7-1.4-0.7-2.2c0-0.7,0.1-1.4,0.4-2c0.3-0.6,0.7-1.1,1.2-1.4c0.5-0.4,1.2-0.5,1.8-0.5c0.2,0,0.5,0,0.9,0.1h0.3h1.1v4.6
			c0,1.1,0,1.8-0.1,2c0,0.3-0.1,0.5-0.1,0.7c-0.2,0.6-0.5,1.1-1.1,1.4c-0.6,0.3-1.3,0.5-2,0.5c-0.8,0-1.7-0.2-2.4-0.6v-1.1
			c0.4,0.2,0.7,0.4,1.1,0.6c0.4,0.2,0.9,0.2,1.3,0.2c0.3,0,0.6-0.1,0.9-0.2c0.3-0.1,0.5-0.2,0.7-0.5c0.2-0.2,0.3-0.4,0.4-0.7
			c0.1-0.3,0.1-0.7,0.1-1.1L112.3,639.7z M112.3,638.4v-2.8c-0.4-0.1-0.7-0.1-1.1-0.2c-0.7,0-1.3,0.3-1.7,0.8
			c-0.5,0.6-0.7,1.4-0.7,2.1c0,0.5,0.1,1,0.4,1.5c0.2,0.3,0.5,0.5,0.8,0.5c0.4,0,0.8-0.2,1.1-0.5C111.6,639.4,112,638.9,112.3,638.4
			z"/>
		<path class="chaining-mobile-3" d="M117.2,636.3c-0.3,0-0.5-0.1-0.7-0.3c-0.5-0.2-0.7-0.9-0.4-1.3c0.2-0.5,0.9-0.7,1.3-0.4
			c0.2,0.1,0.3,0.2,0.4,0.4c0.4,0.4,0.4,0.9,0,1.3c0,0,0,0,0,0C117.7,636.2,117.5,636.3,117.2,636.3z M117.2,641.4
			c-0.5,0-0.9-0.4-1-1c0-0.3,0.1-0.5,0.3-0.7c0.4-0.4,1-0.4,1.3,0c0,0,0,0,0,0c0.2,0.2,0.3,0.4,0.3,0.7c0,0.3-0.1,0.5-0.3,0.7
			C117.7,641.3,117.5,641.4,117.2,641.4z"/>
		<path class="chaining-mobile-3" d="M128.3,635h-0.7l-0.4-3.3h1.5L128.3,635z M130.8,635H130l-0.3-3.3h1.4L130.8,635z"/>
		<path class="chaining-mobile-3" d="M132.9,641.1V632h1.2v4h3.4v-4h1.2v9.1h-1.2v-4.3h-3.4v4.3L132.9,641.1z"/>
		<path class="chaining-mobile-3" d="M145.2,640.7c-0.8,0.4-1.6,0.6-2.5,0.6c-0.6,0-1.1-0.1-1.6-0.4c-0.5-0.3-0.9-0.7-1.1-1.2
			c-0.3-0.5-0.4-1.1-0.4-1.8c0-0.6,0.1-1.2,0.4-1.7c0.2-0.5,0.6-1,1.1-1.3c0.5-0.3,1-0.5,1.6-0.5c0.7,0,1.4,0.3,1.9,0.8
			c0.5,0.7,0.8,1.7,0.7,2.6v0.2h-4.5c0,0.4,0.1,0.9,0.3,1.2c0.2,0.3,0.4,0.6,0.7,0.8c0.3,0.2,0.7,0.3,1.1,0.3c0.8,0,1.6-0.3,2.3-0.7
			V640.7z M140.8,637.2h3.3v-0.2c0-0.5-0.1-0.9-0.4-1.3c-0.2-0.3-0.6-0.5-1-0.5c-0.4,0-0.8,0.2-1.1,0.5
			C141.2,636.2,140.9,636.7,140.8,637.2z"/>
		<path class="chaining-mobile-3" d="M148.2,641.1v-8.5h-2v-0.9h3v8.5h2v0.9H148.2z"/>
		<path class="chaining-mobile-3" d="M154.8,641.1v-8.5h-2v-0.9h3v8.5h2v0.9H154.8z"/>
		<path class="chaining-mobile-3" d="M162.4,641.3c-0.9,0-1.7-0.3-2.2-1c-1.1-1.5-1.1-3.5,0-5c0.6-0.7,1.4-1,2.2-1c0.9,0,1.7,0.3,2.2,1
			c1.2,1.5,1.2,3.5,0,5C164.1,641,163.3,641.3,162.4,641.3z M162.4,640.4c0.5,0,1.1-0.2,1.4-0.7c0.7-1.2,0.7-2.6,0-3.7
			c-0.6-0.8-1.7-0.9-2.5-0.3c-0.1,0.1-0.2,0.2-0.3,0.3c-0.7,1.1-0.7,2.6,0,3.7C161.4,640.2,161.9,640.4,162.4,640.4z"/>
		<path class="chaining-mobile-3" d="M173.3,641.1l-1.1-6.5h1l0.6,4l0.2,0.9l0.2-0.9l1-4h1l1.2,4l0.2,0.9l0.1-0.9l0.6-4h0.8l-1.1,6.5h-1l-1.2-4.2
			l-0.2-0.9l0,0l-0.2,0.9l-1.1,4.2L173.3,641.1z"/>
		<path class="chaining-mobile-3" d="M182.4,641.3c-0.9,0-1.7-0.3-2.2-1c-1.2-1.5-1.2-3.5,0-5c1.1-1.2,3.1-1.3,4.3-0.2c0.1,0.1,0.1,0.1,0.2,0.2
			c1.1,1.5,1.1,3.5,0,5C184.1,641,183.3,641.3,182.4,641.3z M182.4,640.4c0.5,0,1.1-0.2,1.4-0.7c0.7-1.1,0.7-2.6,0-3.7
			c-0.3-0.4-0.8-0.7-1.4-0.7c-0.5,0-1.1,0.2-1.4,0.7c-0.7,1.2-0.7,2.6,0,3.7C181.3,640.2,181.9,640.4,182.4,640.4z"/>
		<path class="chaining-mobile-3" d="M186.9,641.1v-6.5h1.1v1.4c0.3-0.5,0.7-0.9,1.2-1.2c0.4-0.3,1-0.4,1.5-0.4c0.4,0,0.8,0.1,1.2,0.2v2.4h-1.1
			v-1.5c-0.1,0-0.3,0-0.4,0c-0.4,0-0.9,0.2-1.2,0.5c-0.5,0.4-0.8,0.9-1.1,1.5v3.8L186.9,641.1z"/>
		<path class="chaining-mobile-3" d="M194.8,641.1v-8.5h-1.9v-0.9h3v8.5h2v0.9H194.8z"/>
		<path class="chaining-mobile-3" d="M204.1,639.7c-0.3,0.5-0.7,0.9-1.2,1.2c-0.4,0.3-0.8,0.4-1.3,0.4c-0.6,0-1.1-0.3-1.5-0.7
			c-0.5-0.6-0.7-1.4-0.6-2.2c0-0.7,0.1-1.4,0.4-2c0.3-0.6,0.7-1,1.2-1.4c0.5-0.4,1.2-0.5,1.8-0.5c0.2,0,0.5,0,0.9,0.1h0.3v-2.9h1.1
			v9.5h-1.1L204.1,639.7z M204.1,638.4v-2.8c-0.4-0.1-0.7-0.1-1.1-0.2c-0.6,0-1.3,0.3-1.7,0.8c-0.5,0.6-0.7,1.4-0.7,2.1
			c0,0.5,0.1,1,0.4,1.5c0.2,0.3,0.5,0.5,0.8,0.5c0.4,0,0.8-0.2,1.1-0.5C203.4,639.4,203.8,638.9,204.1,638.4z"/>
		<path class="chaining-mobile-3" d="M209.1,641.4c-0.2,0-0.4-0.1-0.6-0.2c-0.2-0.2-0.3-0.4-0.2-0.6c0-0.5,0.4-0.8,0.8-0.8c0.5,0,0.8,0.4,0.8,0.8
			C209.9,641,209.5,641.4,209.1,641.4C209.1,641.4,209.1,641.4,209.1,641.4L209.1,641.4z M208.5,638.5l-0.3-6.5h1.5l-0.3,6.5H208.5z
			"/>
		<path class="chaining-mobile-3" d="M214.8,635h-0.8l-0.4-3.3h1.5L214.8,635z M217.4,635h-0.8l-0.3-3.3h1.4L217.4,635z"/>
		<path class="chaining-mobile-3" d="M224.6,637.4c-0.3-0.1-0.6-0.3-0.8-0.6c-0.2-0.2-0.3-0.4-0.4-0.6c-0.1-0.2-0.1-0.4-0.1-0.7
			c0-0.3,0-0.6,0.1-0.9l0.1-0.7c0.1-0.3,0.1-0.5,0.1-0.8c0-0.2-0.1-0.5-0.3-0.6c-0.3-0.2-0.7-0.3-1.1-0.2h-0.9v-0.9h0.9
			c0.7-0.1,1.5,0.1,2.1,0.5c0.3,0.3,0.5,0.7,0.5,1.2c0,0.3,0,0.5-0.1,0.8l-0.1,0.5l-0.1,0.5l-0.1,0.3c0,0.1,0,0.3,0,0.4
			c0,0.3,0.1,0.7,0.4,0.9c0.4,0.3,0.8,0.4,1.3,0.4h0.5v0.9h-0.5c-0.5,0-0.9,0.1-1.3,0.4c-0.3,0.3-0.4,0.6-0.4,1c0,0.1,0,0.3,0,0.4
			l0.1,0.3l0.1,0.5l0.1,0.5c0.1,0.2,0.1,0.5,0.1,0.8c0,0.4-0.2,0.9-0.5,1.2c-0.6,0.4-1.3,0.6-2.1,0.5h-0.9v-0.9h0.9
			c0.4,0,0.8,0,1.1-0.2c0.2-0.2,0.3-0.4,0.3-0.6c0-0.3-0.1-0.5-0.1-0.8l-0.1-0.7c-0.1-0.3-0.1-0.6-0.1-0.9c0-0.2,0-0.5,0.1-0.7
			c0.1-0.2,0.2-0.4,0.4-0.6C224.1,637.8,224.3,637.6,224.6,637.4z"/>
	</g>
</g>
<g>
	<path class="chaining-mobile-1" d="M25.6,558h-1.1l5.8-9.6h1L25.6,558z"/>
	<path class="chaining-mobile-1" d="M32.1,557.8v-9.5h1.1v4.3c0.3-0.5,0.7-0.9,1.1-1.2c0.4-0.3,0.9-0.4,1.3-0.4c0.4,0,0.7,0.1,1,0.3
		c0.3,0.2,0.5,0.4,0.6,0.7c0.1,0.2,0.2,0.4,0.2,0.7c0,0.5,0.1,1,0,1.4v3.7h-1.1V554c0-0.4,0-0.8-0.1-1.2c-0.1-0.2-0.2-0.4-0.3-0.5
		c-0.1-0.1-0.3-0.2-0.5-0.2c-0.5,0-0.9,0.2-1.2,0.5c-0.5,0.4-0.8,0.9-1.1,1.4v3.8L32.1,557.8z"/>
	<path class="chaining-mobile-1" d="M44.8,557.3c-0.8,0.4-1.6,0.6-2.5,0.6c-0.6,0-1.1-0.1-1.6-0.4c-0.5-0.3-0.9-0.7-1.1-1.3
		c-0.3-0.5-0.4-1.1-0.4-1.8c0-0.6,0.1-1.2,0.4-1.7c0.2-0.5,0.6-1,1.1-1.3c0.5-0.3,1-0.5,1.6-0.5c0.7,0,1.4,0.3,1.9,0.8
		c0.5,0.7,0.8,1.6,0.7,2.6v0.2h-4.5c0,0.4,0.1,0.9,0.3,1.2c0.2,0.3,0.4,0.6,0.8,0.8c0.3,0.2,0.6,0.3,1,0.3c0.8,0,1.6-0.3,2.3-0.7
		L44.8,557.3z M40.4,553.9h3.3v-0.2c0-0.5-0.1-0.9-0.4-1.3c-0.2-0.3-0.6-0.5-1-0.5c-0.4,0-0.8,0.2-1.1,0.5
		C40.8,552.8,40.5,553.3,40.4,553.9L40.4,553.9z"/>
	<path class="chaining-mobile-1" d="M47.1,557.8v-8.5h-2v-0.9h3v8.5h2v0.9H47.1z"/>
	<path class="chaining-mobile-1" d="M53.7,557.8v-8.5h-2v-0.9h3v8.5h2v0.9H53.7z"/>
	<path class="chaining-mobile-1" d="M61.2,558c-0.9,0-1.7-0.3-2.2-1c-1.1-1.5-1.1-3.5,0-4.9c1.1-1.2,3.1-1.3,4.3-0.2c0.1,0.1,0.1,0.1,0.2,0.2
		c1.1,1.4,1.1,3.5,0,4.9C62.9,557.7,62.1,558,61.2,558z M61.2,557.1c0.5,0,1.1-0.2,1.4-0.7c0.7-1.2,0.7-2.6,0-3.7
		c-0.6-0.8-1.7-0.9-2.5-0.3c-0.1,0.1-0.2,0.2-0.3,0.3c-0.7,1.2-0.7,2.6,0,3.7C60.2,556.8,60.7,557.1,61.2,557.1L61.2,557.1z"/>
</g>
<g>
	<path class="chaining-mobile-2" d="M155.9,296.1c-0.3-2.6-2.4-4.7-5-5c-2.4-0.2-4.7-0.3-7.1-0.2H40.1c-2.3-0.1-4.6,0-6.9,0.2
		c-2.6,0.3-4.7,2.4-5,5c-0.2,2.3-0.3,4.6-0.2,6.9v10.1c-0.1,2.4,0,4.7,0.2,7.1c0.3,2.6,2.4,4.7,5,5c2.3,0.2,4.6,0.3,6.9,0.2h103.9
		c2.4,0.1,4.7,0,7.1-0.2c2.4-0.3,4.4-2.1,4.9-4.5V296.1z"/>
	<g>
		<path class="chaining-mobile-3" d="M58.7,305.2c-0.1-0.7-0.6-1.3-1.3-1.6c-0.4-0.2-0.8-0.3-1.3-0.3c-0.9,0-1.7,0.3-2.3,1c-0.7,0.9-1,2.1-0.9,3.2
			c-0.1,1.1,0.2,2.2,1,3c0.6,0.6,1.4,0.9,2.2,0.9c0.7,0,1.5-0.2,2-0.7c0.5-0.5,0.8-1.1,1-1.8h-2.7V307h4.8v6.2h-1.6l-0.4-1.5
			l-1.2,1.2c-0.7,0.4-1.5,0.6-2.3,0.6c-1.4,0-2.8-0.5-3.8-1.6c-1.1-1.2-1.6-2.8-1.5-4.4c-0.1-1.6,0.4-3.2,1.5-4.5
			c1.1-1.1,2.6-1.8,4.1-1.7c1.3-0.1,2.5,0.3,3.5,1.1c0.9,0.7,1.4,1.7,1.5,2.8L58.7,305.2z"/>
		<path class="chaining-mobile-3" d="M71.9,303.7h-6.1v2.4h5.6v2h-5.6v3h6.4v2.1h-8.7v-11.6h8.4V303.7z"/>
		<path class="chaining-mobile-3" d="M82.4,301.6v2h-3.4v9.5h-2.4v-9.5h-3.5v-2H82.4z"/>
	</g>
	<path class="chaining-mobile-2" d="M31.5,530.5l8.4-15.2c0.6-1.1,0.2-2.5-0.9-3c-0.3-0.2-0.7-0.3-1.1-0.3h-4.8V313.1l-5,0.1V512h-4.9
		c-1.2,0-2.3,1-2.3,2.2c0,0.4,0.1,0.7,0.3,1.1l8.4,15.2c0.4,0.5,1.1,0.6,1.6,0.2C31.3,530.7,31.4,530.6,31.5,530.5z"/>
	<g>
		<path class="chaining-mobile-3" d="M94.8,313h-1.1l5.8-9.6h1L94.8,313z"/>
		<path class="chaining-mobile-3" d="M101.5,312.8v-9.5h1.1v4.4c0.3-0.5,0.7-0.9,1.1-1.2c0.4-0.3,0.9-0.5,1.4-0.5c0.4,0,0.7,0.1,1,0.3
			c0.3,0.2,0.5,0.4,0.7,0.7c0.1,0.2,0.2,0.4,0.2,0.7c0,0.5,0.1,1,0.1,1.4v3.7h-1.1V309c0-0.4,0-0.8-0.1-1.2
			c-0.1-0.2-0.2-0.4-0.3-0.5c-0.1-0.1-0.3-0.2-0.5-0.2c-0.5,0-0.9,0.2-1.2,0.5c-0.5,0.4-0.8,0.9-1.1,1.4v3.8L101.5,312.8z"/>
		<path class="chaining-mobile-3" d="M113.9,312.3c-0.8,0.4-1.6,0.6-2.5,0.6c-0.6,0-1.1-0.1-1.6-0.4c-0.5-0.3-0.9-0.7-1.1-1.2
			c-0.3-0.5-0.4-1.1-0.4-1.8c0-0.6,0.1-1.2,0.4-1.7c0.2-0.5,0.6-1,1.1-1.3c0.5-0.3,1-0.5,1.6-0.5c0.7,0,1.4,0.3,1.9,0.8
			c0.5,0.7,0.8,1.6,0.7,2.6v0.2h-4.5c0,0.4,0.1,0.9,0.3,1.2c0.2,0.3,0.4,0.6,0.8,0.8c0.3,0.2,0.6,0.3,1,0.3c0.8,0,1.6-0.3,2.3-0.7
			L113.9,312.3z M109.5,308.9h3.3v-0.2c0-0.5-0.1-0.9-0.4-1.3c-0.2-0.3-0.6-0.5-1-0.5c-0.4,0-0.8,0.2-1.2,0.5
			C109.8,307.8,109.6,308.3,109.5,308.9z"/>
		<path class="chaining-mobile-3" d="M116.4,312.8v-8.5h-2v-0.9h3v8.5h2.1v0.9H116.4z"/>
		<path class="chaining-mobile-3" d="M123.1,312.8v-8.5h-2v-0.9h3v8.5h2v0.9H123.1z"/>
		<path class="chaining-mobile-3" d="M130.6,313c-0.9,0-1.7-0.3-2.2-1c-1.1-1.5-1.1-3.5,0-5c1.1-1.2,3.1-1.3,4.3-0.2c0.1,0.1,0.1,0.1,0.2,0.2
			c1.2,1.5,1.2,3.5,0,5C132.3,312.7,131.4,313,130.6,313z M130.6,312.1c0.5,0,1.1-0.2,1.4-0.7c0.4-0.5,0.5-1.2,0.5-1.9
			c0-0.7-0.1-1.3-0.5-1.9c-0.6-0.8-1.7-0.9-2.5-0.3c-0.1,0.1-0.2,0.2-0.3,0.3c-0.4,0.5-0.6,1.2-0.5,1.9c0,0.7,0.1,1.3,0.5,1.9
			C129.5,311.8,130,312,130.6,312.1L130.6,312.1z"/>
	</g>
</g>
</svg>
