<?xml version="1.0" encoding="utf-8"?>
<!-- Generator: Adobe Illustrator 21.1.0, SVG Export Plug-In . SVG Version: 6.00 Build 0)  -->
<svg class="<%= className || '' %>" version="1.1" id="Layer_1" xmlns="http://www.w3.org/2000/svg" xmlns:xlink="http://www.w3.org/1999/xlink" x="0px" y="0px"
	 viewBox="0 0 954.7 175.5" style="enable-background:new 0 0 954.7 175.5;" xml:space="preserve">
<style type="text/css">
	.svg-chaining-diagram-st0{fill:#E8EBEF;}
	.svg-chaining-diagram-st1{fill:#72849D;}
	.svg-chaining-diagram-st2{fill:#397EFF;}
</style>
<path class="svg-chaining-diagram-st0" d="M189.2,48.8v-1.3c0-4.6,0.2-8.8-0.4-13.4v0c-0.6-5-4.6-9-9.6-9.6l0,0c-4.5-0.6-9.1-0.3-13.6-0.4l-142.1,0
	c-4.6,0-8.8-0.2-13.4,0.4h0c-5,0.6-9,4.6-9.6,9.6l0,0C-0.2,38.6,0,42.9,0,47.4l0,1.3c0,4.6-0.2,9.1,0.4,13.6v0c0.6,5,4.6,9,9.6,9.6
	l0,0c4.5,0.6,8.8,0.3,13.4,0.4l142.1,0c4.6,0,9.1,0.2,13.6-0.4h0c5-0.6,9-4.6,9.6-9.6l0,0C189.3,57.9,189.1,53.3,189.2,48.8z"/>
<path class="svg-chaining-diagram-st0" d="M585.4,48.8v-1.3c0-4.6,0.2-8.8-0.4-13.4v0c-0.6-5-4.6-9-9.6-9.6v0c-4.5-0.6-9.1-0.3-13.6-0.4l-142.1,0
	c-4.6,0-8.8-0.2-13.4,0.4h0c-5,0.6-9,4.6-9.6,9.6v0c-0.6,4.5-0.3,8.8-0.4,13.4l0,1.3c0,4.6-0.2,9.1,0.4,13.6v0c0.6,5,4.6,9,9.6,9.6
	l0,0c4.5,0.6,8.8,0.3,13.4,0.4l142.1,0c4.6,0,9.1,0.2,13.6-0.4l0,0c5-0.6,9-4.6,9.6-9.6v0C585.6,57.9,585.4,53.3,585.4,48.8z"/>
<path class="svg-chaining-diagram-st0" d="M585.4,151.8v-1.3c0-4.6,0.2-8.8-0.4-13.4v0c-0.6-5-4.6-9-9.6-9.6v0c-4.5-0.6-9.1-0.3-13.6-0.4l-142.1,0
	c-4.6,0-8.8-0.2-13.4,0.4h0c-5,0.6-9,4.6-9.6,9.6v0c-0.6,4.5-0.3,8.8-0.4,13.4l0,1.3c0,4.6-0.2,9.1,0.4,13.6v0c0.6,5,4.6,9,9.6,9.6
	h0c4.5,0.6,8.8,0.3,13.4,0.4h142.1c4.6,0,9.1,0.2,13.6-0.4l0,0c5-0.6,9-4.6,9.6-9.6v0C585.6,160.9,585.4,156.4,585.4,151.8z"/>
<path class="svg-chaining-diagram-st0" d="M189.5,151.8v-1.3c0-4.6,0.2-8.8-0.4-13.4v0c-0.6-5-4.6-9-9.6-9.6l0,0c-4.5-0.6-9.1-0.3-13.6-0.4l-142.1,0
	c-4.6,0-8.8-0.2-13.4,0.4h0c-5,0.6-9,4.6-9.6,9.6l0,0c-0.6,4.5-0.3,8.8-0.4,13.4l0,1.3c0,4.6-0.2,9.1,0.4,13.6v0
	c0.6,5,4.6,9,9.6,9.6h0c4.5,0.6,8.8,0.3,13.4,0.4h142.1c4.6,0,9.1,0.2,13.6-0.4h0c5-0.6,9-4.6,9.6-9.6v0
	C189.7,160.9,189.5,156.4,189.5,151.8z"/>
<path class="svg-chaining-diagram-st0" d="M954.7,48.8v-1.3c0-4.6,0.2-8.8-0.4-13.4v0c-0.6-5-4.6-9-9.6-9.6v0c-4.5-0.6-9.1-0.3-13.6-0.4l-142.1,0
	c-4.6,0-8.8-0.2-13.4,0.4l0,0c-5,0.6-9,4.6-9.6,9.6v0c-0.6,4.5-0.3,8.8-0.4,13.4v1.3c0,4.6-0.2,9.1,0.4,13.6v0c0.6,5,4.6,9,9.6,9.6
	v0c4.5,0.6,8.8,0.3,13.4,0.4l142.1,0c4.6,0,9.1,0.2,13.6-0.4l0,0c5-0.6,9-4.6,9.6-9.6v0C954.9,57.9,954.6,53.3,954.7,48.8z"/>
<g>
	<path class="svg-chaining-diagram-st1" d="M74.7,1.5c0.9-0.9,2.1-1.4,3.5-1.4c1.9,0,3.3,0.6,4.2,1.9c0.5,0.7,0.8,1.4,0.8,2.1h-2.4
		c-0.2-0.6-0.3-1-0.6-1.2c-0.4-0.5-1.1-0.8-1.9-0.8c-0.9,0-1.5,0.4-2,1.1c-0.5,0.7-0.7,1.7-0.7,3c0,1.3,0.3,2.3,0.8,2.9
		c0.5,0.6,1.2,1,2,1c0.8,0,1.5-0.3,1.9-0.8c0.2-0.3,0.4-0.7,0.6-1.3h2.4c-0.2,1.3-0.7,2.3-1.6,3.1c-0.8,0.8-1.9,1.2-3.3,1.2
		c-1.6,0-2.9-0.5-3.9-1.6c-0.9-1.1-1.4-2.5-1.4-4.4C73.1,4.2,73.6,2.6,74.7,1.5z"/>
	<path class="svg-chaining-diagram-st1" d="M87.2,11.9H85V0.3h2.2V11.9z"/>
	<path class="svg-chaining-diagram-st1" d="M91.7,2.3h-2.3V0.3h2.3V2.3z M89.4,3.3h2.3v8.5h-2.3V3.3z"/>
	<path class="svg-chaining-diagram-st1" d="M99.4,3.5c0.6,0.3,1.1,0.7,1.5,1.3c0.3,0.5,0.6,1.1,0.7,1.8c0.1,0.4,0.1,1,0.1,1.7h-6.2c0,0.9,0.3,1.5,0.9,1.8
		c0.3,0.2,0.7,0.3,1.2,0.3c0.5,0,0.9-0.1,1.2-0.4c0.2-0.1,0.3-0.3,0.5-0.6h2.3c-0.1,0.5-0.3,1-0.8,1.5c-0.8,0.8-1.8,1.2-3.2,1.2
		c-1.1,0-2.1-0.3-3-1s-1.3-1.8-1.3-3.4c0-1.5,0.4-2.6,1.2-3.4s1.8-1.2,3-1.2C98.1,3.1,98.8,3.2,99.4,3.5z M96.1,5.4
		c-0.3,0.3-0.5,0.8-0.6,1.3h3.8c0-0.6-0.2-1-0.6-1.3c-0.4-0.3-0.8-0.5-1.3-0.5C96.8,4.9,96.4,5.1,96.1,5.4z"/>
	<path class="svg-chaining-diagram-st1" d="M109.6,3.8c0.6,0.5,0.8,1.2,0.8,2.3v5.7h-2.3V6.7c0-0.4-0.1-0.8-0.2-1c-0.2-0.4-0.6-0.7-1.2-0.7
		c-0.8,0-1.3,0.3-1.5,1c-0.1,0.3-0.2,0.8-0.2,1.3v4.6h-2.2V3.4h2.2v1.2c0.3-0.4,0.6-0.8,0.8-0.9c0.5-0.3,1-0.5,1.7-0.5
		C108.3,3.1,109.1,3.4,109.6,3.8z"/>
	<path class="svg-chaining-diagram-st1" d="M111.6,5V3.4h1.2V1h2.2v2.4h1.4V5H115v4.5c0,0.3,0,0.6,0.1,0.7s0.4,0.1,0.8,0.1c0.1,0,0.1,0,0.2,0s0.1,0,0.2,0
		v1.7l-1.1,0c-1.1,0-1.8-0.1-2.2-0.5c-0.2-0.3-0.4-0.6-0.4-1.2V5H111.6z"/>
</g>
<g>
	<path class="svg-chaining-diagram-st1" d="M218.9,29.9c-0.2-0.8-0.6-1.3-1.3-1.6c-0.4-0.2-0.8-0.3-1.3-0.3c-0.9,0-1.7,0.3-2.3,1s-0.9,1.8-0.9,3.2
		c0,1.4,0.3,2.4,1,3c0.6,0.6,1.4,0.9,2.2,0.9c0.8,0,1.5-0.2,2-0.7c0.5-0.5,0.8-1.1,1-1.8h-2.7v-1.9h4.8v6.2h-1.6l-0.2-1.4
		c-0.5,0.5-0.9,0.9-1.2,1.2c-0.6,0.4-1.4,0.6-2.3,0.6c-1.5,0-2.8-0.5-3.8-1.6c-1-1.1-1.5-2.5-1.5-4.4c0-1.9,0.5-3.4,1.5-4.5
		c1-1.1,2.4-1.7,4.1-1.7c1.5,0,2.6,0.4,3.5,1.1s1.4,1.7,1.5,2.8H218.9z"/>
	<path class="svg-chaining-diagram-st1" d="M232.1,28.4H226v2.4h5.6v2H226v3h6.4v2.1h-8.7V26.3h8.4V28.4z"/>
	<path class="svg-chaining-diagram-st1" d="M242.7,26.3v2h-3.4v9.5h-2.4v-9.5h-3.5v-2H242.7z"/>
</g>
<g>
	<path class="svg-chaining-diagram-st1" d="M216,68.5h-1.1l5.8-9.6h1L216,68.5z"/>
	<path class="svg-chaining-diagram-st1" d="M222.9,68.3v-9.5h1.1v4.3c0.3-0.5,0.7-0.9,1.1-1.2s0.9-0.4,1.3-0.4c0.4,0,0.7,0.1,1,0.3s0.5,0.4,0.6,0.7
		c0.1,0.2,0.2,0.4,0.2,0.7s0.1,0.7,0.1,1.4v3.7h-1.1v-3.8c0-0.6,0-1-0.1-1.2s-0.2-0.4-0.3-0.5s-0.3-0.2-0.5-0.2
		c-0.4,0-0.8,0.2-1.2,0.5s-0.8,0.8-1.1,1.4v3.8H222.9z"/>
	<path class="svg-chaining-diagram-st1" d="M235.5,67.8c-0.9,0.4-1.7,0.6-2.5,0.6c-0.6,0-1.1-0.1-1.6-0.4c-0.5-0.3-0.8-0.7-1.1-1.3
		c-0.3-0.5-0.4-1.1-0.4-1.7c0-0.6,0.1-1.2,0.4-1.7s0.6-1,1.1-1.3c0.5-0.3,1-0.5,1.6-0.5c0.8,0,1.4,0.3,1.9,0.8
		c0.5,0.6,0.7,1.4,0.7,2.6v0.2h-4.5c0,0.5,0.1,0.9,0.3,1.2s0.4,0.7,0.7,0.8c0.3,0.2,0.7,0.3,1.1,0.3c0.7,0,1.5-0.2,2.3-0.7V67.8z
		 M231.1,64.3h3.3v-0.2c0-0.5-0.1-1-0.4-1.3s-0.6-0.5-1-0.5c-0.4,0-0.8,0.2-1.1,0.5S231.3,63.7,231.1,64.3z"/>
	<path class="svg-chaining-diagram-st1" d="M239,68.3v-8.5h-2v-0.9h3v8.5h2v0.9H239z"/>
	<path class="svg-chaining-diagram-st1" d="M246.2,68.3v-8.5h-2v-0.9h3v8.5h2v0.9H246.2z"/>
	<path class="svg-chaining-diagram-st1" d="M254.4,68.4c-0.9,0-1.7-0.3-2.2-1c-0.6-0.7-0.8-1.5-0.8-2.5s0.3-1.8,0.8-2.5c0.6-0.7,1.3-1,2.2-1
		c0.9,0,1.7,0.3,2.2,1c0.6,0.7,0.8,1.5,0.8,2.5s-0.3,1.8-0.8,2.5C256,68.1,255.3,68.4,254.4,68.4z M254.4,67.5c0.6,0,1-0.2,1.4-0.7
		c0.3-0.5,0.5-1.1,0.5-1.9c0-0.8-0.2-1.4-0.5-1.9c-0.3-0.5-0.8-0.7-1.4-0.7c-0.6,0-1,0.2-1.4,0.7c-0.3,0.5-0.5,1.1-0.5,1.9
		c0,0.8,0.2,1.4,0.5,1.9C253.3,67.3,253.8,67.5,254.4,67.5z"/>
</g>
<g>
	<path class="svg-chaining-diagram-st1" d="M467.1,54.4h-1.3l6.7-11.2h1.2L467.1,54.4z"/>
	<path class="svg-chaining-diagram-st1" d="M475.1,54.1V43h1.3v5.1c0.4-0.6,0.8-1,1.3-1.4s1-0.5,1.5-0.5c0.4,0,0.8,0.1,1.2,0.3c0.4,0.2,0.6,0.5,0.7,0.8
		c0.1,0.2,0.2,0.5,0.2,0.8s0.1,0.8,0.1,1.7v4.3h-1.3v-4.4c0-0.7,0-1.2-0.1-1.5c-0.1-0.2-0.2-0.4-0.4-0.6c-0.2-0.2-0.4-0.2-0.6-0.2
		c-0.4,0-0.9,0.2-1.4,0.6c-0.5,0.4-0.9,1-1.3,1.6v4.5H475.1z"/>
	<path class="svg-chaining-diagram-st1" d="M489.9,53.6c-1,0.5-2,0.7-2.9,0.7c-0.7,0-1.3-0.2-1.8-0.5c-0.5-0.3-1-0.8-1.3-1.5c-0.3-0.6-0.5-1.3-0.5-2
		c0-0.7,0.2-1.4,0.5-2c0.3-0.6,0.7-1.1,1.3-1.5s1.2-0.5,1.9-0.5c0.9,0,1.6,0.3,2.2,1c0.5,0.6,0.8,1.6,0.8,3v0.3h-5.3
		c0,0.5,0.1,1,0.3,1.5c0.2,0.4,0.5,0.8,0.9,1c0.4,0.2,0.8,0.3,1.2,0.3c0.8,0,1.7-0.3,2.7-0.8V53.6z M484.8,49.5h3.8v-0.2
		c0-0.6-0.2-1.1-0.5-1.5c-0.3-0.4-0.7-0.6-1.2-0.6c-0.5,0-1,0.2-1.3,0.6C485.2,48.2,484.9,48.8,484.8,49.5z"/>
	<path class="svg-chaining-diagram-st1" d="M494,54.1v-10h-2.3V43h3.6v10h2.4v1.1H494z"/>
	<path class="svg-chaining-diagram-st1" d="M502.4,54.1v-10h-2.3V43h3.6v10h2.4v1.1H502.4z"/>
	<path class="svg-chaining-diagram-st1" d="M511.9,54.3c-1.1,0-2-0.4-2.6-1.1c-0.7-0.8-1-1.7-1-2.9s0.3-2.1,1-2.9s1.5-1.1,2.6-1.1c1.1,0,2,0.4,2.6,1.1
		s1,1.7,1,2.9s-0.3,2.1-1,2.9C513.8,53.9,512.9,54.3,511.9,54.3z M511.9,53.2c0.7,0,1.2-0.3,1.6-0.8s0.6-1.3,0.6-2.2
		c0-0.9-0.2-1.6-0.6-2.2s-0.9-0.8-1.6-0.8c-0.7,0-1.2,0.3-1.6,0.8s-0.6,1.3-0.6,2.2c0,0.9,0.2,1.7,0.6,2.2S511.2,53.2,511.9,53.2z"
		/>
</g>
<g>
	<path class="svg-chaining-diagram-st1" d="M836.4,54.4h-1.3l6.7-11.2h1.2L836.4,54.4z"/>
	<path class="svg-chaining-diagram-st1" d="M844.4,54.1V43h1.3v5.1c0.4-0.6,0.8-1,1.3-1.4s1-0.5,1.5-0.5c0.4,0,0.8,0.1,1.2,0.3c0.4,0.2,0.6,0.5,0.7,0.8
		c0.1,0.2,0.2,0.5,0.2,0.8s0.1,0.8,0.1,1.7v4.3h-1.3v-4.4c0-0.7,0-1.2-0.1-1.5c-0.1-0.2-0.2-0.4-0.4-0.6c-0.2-0.2-0.4-0.2-0.6-0.2
		c-0.4,0-0.9,0.2-1.4,0.6c-0.5,0.4-0.9,1-1.3,1.6v4.5H844.4z"/>
	<path class="svg-chaining-diagram-st1" d="M859.1,53.6c-1,0.5-2,0.7-2.9,0.7c-0.7,0-1.3-0.2-1.8-0.5c-0.5-0.3-1-0.8-1.3-1.5c-0.3-0.6-0.5-1.3-0.5-2
		c0-0.7,0.2-1.4,0.5-2c0.3-0.6,0.7-1.1,1.3-1.5s1.2-0.5,1.9-0.5c0.9,0,1.6,0.3,2.2,1c0.5,0.6,0.8,1.6,0.8,3v0.3H854
		c0,0.5,0.1,1,0.3,1.5c0.2,0.4,0.5,0.8,0.9,1c0.4,0.2,0.8,0.3,1.2,0.3c0.8,0,1.7-0.3,2.7-0.8V53.6z M854,49.5h3.8v-0.2
		c0-0.6-0.2-1.1-0.5-1.5c-0.3-0.4-0.7-0.6-1.2-0.6c-0.5,0-1,0.2-1.3,0.6C854.4,48.2,854.2,48.8,854,49.5z"/>
	<path class="svg-chaining-diagram-st1" d="M863.2,54.1v-10h-2.3V43h3.6v10h2.4v1.1H863.2z"/>
	<path class="svg-chaining-diagram-st1" d="M871.6,54.1v-10h-2.3V43h3.6v10h2.4v1.1H871.6z"/>
	<path class="svg-chaining-diagram-st1" d="M881.1,54.3c-1.1,0-2-0.4-2.6-1.1c-0.7-0.8-1-1.7-1-2.9s0.3-2.1,1-2.9s1.5-1.1,2.6-1.1c1.1,0,2,0.4,2.6,1.1
		s1,1.7,1,2.9s-0.3,2.1-1,2.9C883.1,53.9,882.2,54.3,881.1,54.3z M881.1,53.2c0.7,0,1.2-0.3,1.6-0.8s0.6-1.3,0.6-2.2
		c0-0.9-0.2-1.6-0.6-2.2s-0.9-0.8-1.6-0.8c-0.7,0-1.2,0.3-1.6,0.8s-0.6,1.3-0.6,2.2c0,0.9,0.2,1.7,0.6,2.2S880.4,53.2,881.1,53.2z"
		/>
</g>
<g>
	<path class="svg-chaining-diagram-st1" d="M427.8,6.9c-0.7,0.6-1.6,0.8-2.9,0.8h-2.4v4.1h-2.4V0.3h4.9c1.1,0,2,0.3,2.7,0.9s1,1.5,1,2.8
		C428.8,5.3,428.4,6.3,427.8,6.9z M425.9,2.7c-0.3-0.3-0.7-0.4-1.3-0.4h-2.2v3.4h2.2c0.5,0,1-0.1,1.3-0.4c0.3-0.3,0.5-0.7,0.5-1.3
		C426.4,3.4,426.2,3,425.9,2.7z"/>
	<path class="svg-chaining-diagram-st1" d="M432.8,3.3v5.1c0,0.5,0.1,0.8,0.2,1.1c0.2,0.4,0.6,0.6,1.2,0.6c0.8,0,1.3-0.3,1.6-0.9c0.1-0.3,0.2-0.8,0.2-1.3
		V3.3h2.3v8.5H436v-1.2c0,0-0.1,0.1-0.2,0.2c-0.1,0.1-0.2,0.2-0.3,0.3c-0.3,0.3-0.7,0.5-1,0.6c-0.3,0.1-0.7,0.2-1.1,0.2
		c-1.3,0-2.1-0.5-2.5-1.4c-0.2-0.5-0.4-1.2-0.4-2.2V3.3H432.8z"/>
	<path class="svg-chaining-diagram-st1" d="M447.6,4.4c0.6,0.8,1,1.8,1,3.1c0,1.3-0.3,2.4-0.9,3.3s-1.5,1.3-2.6,1.3c-0.7,0-1.3-0.1-1.7-0.4
		c-0.3-0.2-0.5-0.5-0.8-0.9v1.1h-2.2V0.4h2.2v4.1c0.3-0.4,0.6-0.7,0.9-0.9c0.4-0.3,0.9-0.4,1.5-0.4C446.1,3.1,446.9,3.6,447.6,4.4z
		 M445.7,9.5c0.3-0.5,0.5-1.1,0.5-1.8c0-0.6-0.1-1.1-0.2-1.5c-0.3-0.8-0.9-1.1-1.7-1.1c-0.8,0-1.4,0.4-1.7,1.1
		c-0.2,0.4-0.2,0.9-0.2,1.5c0,0.7,0.2,1.3,0.5,1.8c0.3,0.5,0.8,0.7,1.5,0.7C445,10.2,445.4,10,445.7,9.5z"/>
	<path class="svg-chaining-diagram-st1" d="M452.4,11.9h-2.2V0.3h2.2V11.9z"/>
	<path class="svg-chaining-diagram-st1" d="M456.8,2.3h-2.3V0.3h2.3V2.3z M454.6,3.3h2.3v8.5h-2.3V3.3z"/>
	<path class="svg-chaining-diagram-st1" d="M464.1,6.4c0-0.3-0.1-0.6-0.3-0.9c-0.3-0.3-0.6-0.5-1.2-0.5c-0.8,0-1.3,0.4-1.5,1.1c-0.1,0.4-0.2,0.9-0.2,1.6
		c0,0.6,0.1,1.1,0.2,1.5c0.3,0.7,0.8,1.1,1.5,1.1c0.5,0,0.9-0.1,1.1-0.4s0.4-0.6,0.4-1.1h2.3c-0.1,0.7-0.3,1.3-0.7,1.9
		c-0.7,1-1.7,1.5-3.1,1.5s-2.4-0.4-3-1.2s-1-1.9-1-3.2c0-1.5,0.4-2.6,1.1-3.4s1.7-1.2,3-1.2c1.1,0,1.9,0.2,2.6,0.7
		c0.7,0.5,1.1,1.3,1.2,2.5H464.1z"/>
	<path class="svg-chaining-diagram-st1" d="M468,11.9V0.3h2.4v4.4h4.5V0.3h2.4v11.5h-2.4V6.7h-4.5v5.1H468z"/>
	<path class="svg-chaining-diagram-st1" d="M485,3.5c0.6,0.3,1.1,0.7,1.5,1.3c0.3,0.5,0.6,1.1,0.7,1.8c0.1,0.4,0.1,1,0.1,1.7H481c0,0.9,0.3,1.5,0.9,1.8
		c0.3,0.2,0.7,0.3,1.2,0.3c0.5,0,0.9-0.1,1.2-0.4c0.2-0.1,0.3-0.3,0.5-0.6h2.3c-0.1,0.5-0.3,1-0.8,1.5c-0.8,0.8-1.8,1.2-3.2,1.2
		c-1.1,0-2.1-0.3-3-1s-1.3-1.8-1.3-3.4c0-1.5,0.4-2.6,1.2-3.4s1.8-1.2,3-1.2C483.7,3.1,484.4,3.2,485,3.5z M481.6,5.4
		c-0.3,0.3-0.5,0.8-0.6,1.3h3.8c0-0.6-0.2-1-0.6-1.3c-0.4-0.3-0.8-0.5-1.3-0.5C482.4,4.9,482,5.1,481.6,5.4z"/>
	<path class="svg-chaining-diagram-st1" d="M490.6,11.9h-2.2V0.3h2.2V11.9z"/>
	<path class="svg-chaining-diagram-st1" d="M495,11.9h-2.2V0.3h2.2V11.9z"/>
	<path class="svg-chaining-diagram-st1" d="M504.3,10.8c-0.7,0.9-1.8,1.3-3.3,1.3s-2.6-0.4-3.3-1.3c-0.7-0.9-1.1-2-1.1-3.2c0-1.2,0.4-2.3,1.1-3.2
		s1.8-1.4,3.3-1.4s2.6,0.5,3.3,1.4s1.1,2,1.1,3.2C505.4,8.9,505,9.9,504.3,10.8z M502.5,9.6c0.3-0.5,0.5-1.1,0.5-2s-0.2-1.5-0.5-2
		s-0.8-0.7-1.5-0.7s-1.2,0.2-1.5,0.7s-0.5,1.1-0.5,2s0.2,1.5,0.5,2s0.9,0.7,1.5,0.7S502.2,10,502.5,9.6z"/>
	<path class="svg-chaining-diagram-st1" d="M508.9,8.3c0.1,0.5,0.2,0.9,0.4,1.2c0.4,0.5,1.1,0.7,2,0.7c0.6,0,1.1-0.1,1.4-0.2c0.7-0.2,1-0.7,1-1.3
		c0-0.4-0.2-0.7-0.5-0.9c-0.3-0.2-0.9-0.4-1.6-0.5L510.5,7c-1.2-0.3-2.1-0.6-2.5-0.9c-0.8-0.5-1.2-1.4-1.2-2.5c0-1,0.4-1.9,1.1-2.6
		c0.8-0.7,1.9-1,3.3-1c1.2,0,2.3,0.3,3.1,1c0.9,0.6,1.3,1.6,1.4,2.8h-2.3c0-0.7-0.4-1.2-0.9-1.5c-0.4-0.2-0.9-0.3-1.4-0.3
		c-0.6,0-1.1,0.1-1.5,0.4S509,3,509,3.4c0,0.4,0.2,0.7,0.6,0.9c0.2,0.1,0.8,0.3,1.5,0.5l2,0.5c0.9,0.2,1.5,0.5,2,0.8
		c0.7,0.5,1,1.3,1,2.4c0,1.1-0.4,1.9-1.2,2.6s-2,1-3.4,1c-1.5,0-2.7-0.3-3.6-1c-0.9-0.7-1.3-1.6-1.3-2.8H508.9z"/>
	<path class="svg-chaining-diagram-st1" d="M523.2,3.5c0.6,0.3,1.1,0.7,1.5,1.3c0.3,0.5,0.6,1.1,0.7,1.8c0.1,0.4,0.1,1,0.1,1.7h-6.2
		c0,0.9,0.3,1.5,0.9,1.8c0.3,0.2,0.7,0.3,1.2,0.3c0.5,0,0.9-0.1,1.2-0.4c0.2-0.1,0.3-0.3,0.5-0.6h2.3c-0.1,0.5-0.3,1-0.8,1.5
		c-0.8,0.8-1.8,1.2-3.2,1.2c-1.1,0-2.1-0.3-3-1S517,9.3,517,7.7c0-1.5,0.4-2.6,1.2-3.4s1.8-1.2,3-1.2C521.9,3.1,522.6,3.2,523.2,3.5
		z M519.9,5.4c-0.3,0.3-0.5,0.8-0.6,1.3h3.8c0-0.6-0.2-1-0.6-1.3c-0.4-0.3-0.8-0.5-1.3-0.5C520.6,4.9,520.2,5.1,519.9,5.4z"/>
	<path class="svg-chaining-diagram-st1" d="M531.3,3.1c0,0,0.1,0,0.2,0v2.3c-0.1,0-0.3,0-0.4,0c-0.1,0-0.2,0-0.3,0c-0.9,0-1.5,0.3-1.8,0.9
		c-0.2,0.3-0.3,0.8-0.3,1.5v4.1h-2.2V3.3h2.1v1.5c0.3-0.6,0.6-1,0.9-1.2c0.4-0.3,1-0.5,1.6-0.5C531.2,3.1,531.3,3.1,531.3,3.1z"/>
	<path class="svg-chaining-diagram-st1" d="M538,3.3h2.4l-3.1,8.5H535l-3.1-8.5h2.5l1.8,6.3L538,3.3z"/>
	<path class="svg-chaining-diagram-st1" d="M544,2.3h-2.3V0.3h2.3V2.3z M541.7,3.3h2.3v8.5h-2.3V3.3z"/>
	<path class="svg-chaining-diagram-st1" d="M551.2,6.4c0-0.3-0.1-0.6-0.3-0.9c-0.3-0.3-0.6-0.5-1.2-0.5c-0.8,0-1.3,0.4-1.5,1.1C548,6.5,548,7.1,548,7.7
		c0,0.6,0.1,1.1,0.2,1.5c0.3,0.7,0.8,1.1,1.5,1.1c0.5,0,0.9-0.1,1.1-0.4s0.4-0.6,0.4-1.1h2.3c-0.1,0.7-0.3,1.3-0.7,1.9
		c-0.7,1-1.7,1.5-3.1,1.5s-2.4-0.4-3-1.2s-1-1.9-1-3.2c0-1.5,0.4-2.6,1.1-3.4s1.7-1.2,3-1.2c1.1,0,1.9,0.2,2.6,0.7
		c0.7,0.5,1.1,1.3,1.2,2.5H551.2z"/>
	<path class="svg-chaining-diagram-st1" d="M560.6,3.5c0.6,0.3,1.1,0.7,1.5,1.3c0.3,0.5,0.6,1.1,0.7,1.8c0.1,0.4,0.1,1,0.1,1.7h-6.2
		c0,0.9,0.3,1.5,0.9,1.8c0.3,0.2,0.7,0.3,1.2,0.3c0.5,0,0.9-0.1,1.2-0.4c0.2-0.1,0.3-0.3,0.5-0.6h2.3c-0.1,0.5-0.3,1-0.8,1.5
		c-0.8,0.8-1.8,1.2-3.2,1.2c-1.1,0-2.1-0.3-3-1s-1.3-1.8-1.3-3.4c0-1.5,0.4-2.6,1.2-3.4s1.8-1.2,3-1.2C559.3,3.1,560,3.2,560.6,3.5z
		 M557.2,5.4c-0.3,0.3-0.5,0.8-0.6,1.3h3.8c0-0.6-0.2-1-0.6-1.3c-0.4-0.3-0.8-0.5-1.3-0.5C558,4.9,557.6,5.1,557.2,5.4z"/>
</g>
<g>
	<path class="svg-chaining-diagram-st1" d="M794.3,6.9c-0.7,0.6-1.6,0.8-2.9,0.8h-2.4v4.1h-2.4V0.3h4.9c1.1,0,2,0.3,2.7,0.9s1,1.5,1,2.8
		C795.3,5.3,795,6.3,794.3,6.9z M792.5,2.7c-0.3-0.3-0.7-0.4-1.3-0.4h-2.2v3.4h2.2c0.5,0,1-0.1,1.3-0.4C792.8,5,793,4.6,793,4
		C793,3.4,792.8,3,792.5,2.7z"/>
	<path class="svg-chaining-diagram-st1" d="M801.8,3.1c0,0,0.1,0,0.2,0v2.3c-0.1,0-0.3,0-0.4,0c-0.1,0-0.2,0-0.3,0c-0.9,0-1.5,0.3-1.8,0.9
		c-0.2,0.3-0.3,0.8-0.3,1.5v4.1h-2.2V3.3h2.1v1.5c0.3-0.6,0.6-1,0.9-1.2c0.4-0.3,1-0.5,1.6-0.5C801.8,3.1,801.8,3.1,801.8,3.1z"/>
	<path class="svg-chaining-diagram-st1" d="M805.6,2.3h-2.3V0.3h2.3V2.3z M803.4,3.3h2.3v8.5h-2.3V3.3z"/>
	<path class="svg-chaining-diagram-st1" d="M813,3.3h2.4l-3.1,8.5H810l-3.1-8.5h2.5l1.8,6.3L813,3.3z"/>
	<path class="svg-chaining-diagram-st1" d="M820,6.7c0.4-0.1,0.7-0.1,0.9-0.2c0.3-0.1,0.5-0.3,0.5-0.6c0-0.3-0.1-0.6-0.4-0.7s-0.6-0.2-1.1-0.2
		c-0.5,0-0.9,0.1-1.1,0.4c-0.2,0.2-0.3,0.5-0.3,0.8h-2.1c0-0.7,0.3-1.4,0.6-1.8c0.6-0.8,1.6-1.1,3-1.1c0.9,0,1.8,0.2,2.5,0.6
		c0.7,0.4,1.1,1.1,1.1,2.1v3.9c0,0.3,0,0.6,0,1c0,0.3,0.1,0.5,0.1,0.6s0.2,0.2,0.3,0.3v0.3h-2.4c-0.1-0.2-0.1-0.3-0.1-0.5
		s0-0.3-0.1-0.5c-0.3,0.3-0.7,0.6-1.1,0.9c-0.5,0.3-1,0.4-1.6,0.4c-0.8,0-1.4-0.2-1.9-0.7c-0.5-0.4-0.8-1.1-0.8-1.9
		c0-1,0.4-1.8,1.2-2.3c0.4-0.3,1.1-0.4,2-0.5L820,6.7z M821.4,7.7c-0.1,0.1-0.3,0.2-0.4,0.2c-0.1,0.1-0.3,0.1-0.6,0.2l-0.5,0.1
		c-0.5,0.1-0.8,0.2-1,0.3c-0.4,0.2-0.5,0.5-0.5,0.9c0,0.4,0.1,0.7,0.3,0.8s0.5,0.3,0.8,0.3c0.5,0,0.9-0.1,1.3-0.4s0.6-0.8,0.6-1.5
		V7.7z"/>
	<path class="svg-chaining-diagram-st1" d="M824.7,5V3.4h1.2V1h2.2v2.4h1.4V5h-1.4v4.5c0,0.3,0,0.6,0.1,0.7s0.4,0.1,0.8,0.1c0.1,0,0.1,0,0.2,0
		s0.1,0,0.2,0v1.7l-1.1,0c-1.1,0-1.8-0.1-2.2-0.5c-0.2-0.3-0.4-0.6-0.4-1.2V5H824.7z"/>
	<path class="svg-chaining-diagram-st1" d="M836.4,3.5c0.6,0.3,1.1,0.7,1.5,1.3c0.3,0.5,0.6,1.1,0.7,1.8c0.1,0.4,0.1,1,0.1,1.7h-6.2
		c0,0.9,0.3,1.5,0.9,1.8c0.3,0.2,0.7,0.3,1.2,0.3c0.5,0,0.9-0.1,1.2-0.4c0.2-0.1,0.3-0.3,0.5-0.6h2.3c-0.1,0.5-0.3,1-0.8,1.5
		c-0.8,0.8-1.8,1.2-3.2,1.2c-1.1,0-2.1-0.3-3-1s-1.3-1.8-1.3-3.4c0-1.5,0.4-2.6,1.2-3.4s1.8-1.2,3-1.2
		C835.2,3.1,835.9,3.2,836.4,3.5z M833.1,5.4c-0.3,0.3-0.5,0.8-0.6,1.3h3.8c0-0.6-0.2-1-0.6-1.3c-0.4-0.3-0.8-0.5-1.3-0.5
		C833.9,4.9,833.4,5.1,833.1,5.4z"/>
	<path class="svg-chaining-diagram-st1" d="M840,11.9V0.3h2.4v4.4h4.5V0.3h2.4v11.5h-2.4V6.7h-4.5v5.1H840z"/>
	<path class="svg-chaining-diagram-st1" d="M856.9,3.5c0.6,0.3,1.1,0.7,1.5,1.3c0.3,0.5,0.6,1.1,0.7,1.8c0.1,0.4,0.1,1,0.1,1.7h-6.2
		c0,0.9,0.3,1.5,0.9,1.8c0.3,0.2,0.7,0.3,1.2,0.3c0.5,0,0.9-0.1,1.2-0.4c0.2-0.1,0.3-0.3,0.5-0.6h2.3c-0.1,0.5-0.3,1-0.8,1.5
		c-0.8,0.8-1.8,1.2-3.2,1.2c-1.1,0-2.1-0.3-3-1s-1.3-1.8-1.3-3.4c0-1.5,0.4-2.6,1.2-3.4s1.8-1.2,3-1.2
		C855.6,3.1,856.3,3.2,856.9,3.5z M853.6,5.4c-0.3,0.3-0.5,0.8-0.6,1.3h3.8c0-0.6-0.2-1-0.6-1.3c-0.4-0.3-0.8-0.5-1.3-0.5
		C854.3,4.9,853.9,5.1,853.6,5.4z"/>
	<path class="svg-chaining-diagram-st1" d="M862.5,11.9h-2.2V0.3h2.2V11.9z"/>
	<path class="svg-chaining-diagram-st1" d="M867,11.9h-2.2V0.3h2.2V11.9z"/>
	<path class="svg-chaining-diagram-st1" d="M876.2,10.8c-0.7,0.9-1.8,1.3-3.3,1.3s-2.6-0.4-3.3-1.3c-0.7-0.9-1.1-2-1.1-3.2c0-1.2,0.4-2.3,1.1-3.2
		s1.8-1.4,3.3-1.4s2.6,0.5,3.3,1.4s1.1,2,1.1,3.2C877.3,8.9,877,9.9,876.2,10.8z M874.5,9.6c0.3-0.5,0.5-1.1,0.5-2s-0.2-1.5-0.5-2
		s-0.8-0.7-1.5-0.7s-1.2,0.2-1.5,0.7s-0.5,1.1-0.5,2s0.2,1.5,0.5,2s0.9,0.7,1.5,0.7S874.1,10,874.5,9.6z"/>
	<path class="svg-chaining-diagram-st1" d="M880.8,8.3c0.1,0.5,0.2,0.9,0.4,1.2c0.4,0.5,1.1,0.7,2,0.7c0.6,0,1.1-0.1,1.4-0.2c0.7-0.2,1-0.7,1-1.3
		c0-0.4-0.2-0.7-0.5-0.9c-0.3-0.2-0.9-0.4-1.6-0.5L882.4,7c-1.2-0.3-2.1-0.6-2.5-0.9c-0.8-0.5-1.2-1.4-1.2-2.5c0-1,0.4-1.9,1.1-2.6
		c0.8-0.7,1.9-1,3.3-1c1.2,0,2.3,0.3,3.1,1c0.9,0.6,1.3,1.6,1.4,2.8h-2.3c0-0.7-0.4-1.2-0.9-1.5C884.1,2.1,883.6,2,883,2
		c-0.6,0-1.1,0.1-1.5,0.4s-0.6,0.6-0.6,1c0,0.4,0.2,0.7,0.6,0.9c0.2,0.1,0.8,0.3,1.5,0.5l2,0.5c0.9,0.2,1.5,0.5,2,0.8
		c0.7,0.5,1,1.3,1,2.4c0,1.1-0.4,1.9-1.2,2.6s-2,1-3.4,1c-1.5,0-2.7-0.3-3.6-1c-0.9-0.7-1.3-1.6-1.3-2.8H880.8z"/>
	<path class="svg-chaining-diagram-st1" d="M895.1,3.5c0.6,0.3,1.1,0.7,1.5,1.3c0.3,0.5,0.6,1.1,0.7,1.8c0.1,0.4,0.1,1,0.1,1.7h-6.2
		c0,0.9,0.3,1.5,0.9,1.8c0.3,0.2,0.7,0.3,1.2,0.3c0.5,0,0.9-0.1,1.2-0.4c0.2-0.1,0.3-0.3,0.5-0.6h2.3c-0.1,0.5-0.3,1-0.8,1.5
		c-0.8,0.8-1.8,1.2-3.2,1.2c-1.1,0-2.1-0.3-3-1s-1.3-1.8-1.3-3.4c0-1.5,0.4-2.6,1.2-3.4s1.8-1.2,3-1.2
		C893.9,3.1,894.5,3.2,895.1,3.5z M891.8,5.4c-0.3,0.3-0.5,0.8-0.6,1.3h3.8c0-0.6-0.2-1-0.6-1.3c-0.4-0.3-0.8-0.5-1.3-0.5
		C892.6,4.9,892.1,5.1,891.8,5.4z"/>
	<path class="svg-chaining-diagram-st1" d="M903.2,3.1c0,0,0.1,0,0.2,0v2.3c-0.1,0-0.3,0-0.4,0c-0.1,0-0.2,0-0.3,0c-0.9,0-1.5,0.3-1.8,0.9
		c-0.2,0.3-0.3,0.8-0.3,1.5v4.1h-2.2V3.3h2.1v1.5c0.3-0.6,0.6-1,0.9-1.2c0.4-0.3,1-0.5,1.6-0.5C903.1,3.1,903.2,3.1,903.2,3.1z"/>
	<path class="svg-chaining-diagram-st1" d="M910,3.3h2.4l-3.1,8.5h-2.3l-3.1-8.5h2.5l1.8,6.3L910,3.3z"/>
	<path class="svg-chaining-diagram-st1" d="M915.9,2.3h-2.3V0.3h2.3V2.3z M913.6,3.3h2.3v8.5h-2.3V3.3z"/>
	<path class="svg-chaining-diagram-st1" d="M923.1,6.4c0-0.3-0.1-0.6-0.3-0.9c-0.3-0.3-0.6-0.5-1.2-0.5c-0.8,0-1.3,0.4-1.5,1.1c-0.1,0.4-0.2,0.9-0.2,1.6
		c0,0.6,0.1,1.1,0.2,1.5c0.3,0.7,0.8,1.1,1.5,1.1c0.5,0,0.9-0.1,1.1-0.4s0.4-0.6,0.4-1.1h2.3c-0.1,0.7-0.3,1.3-0.7,1.9
		c-0.7,1-1.7,1.5-3.1,1.5s-2.4-0.4-3-1.2s-1-1.9-1-3.2c0-1.5,0.4-2.6,1.1-3.4s1.7-1.2,3-1.2c1.1,0,1.9,0.2,2.6,0.7
		c0.7,0.5,1.1,1.3,1.2,2.5H923.1z"/>
	<path class="svg-chaining-diagram-st1" d="M932.5,3.5c0.6,0.3,1.1,0.7,1.5,1.3c0.3,0.5,0.6,1.1,0.7,1.8c0.1,0.4,0.1,1,0.1,1.7h-6.2
		c0,0.9,0.3,1.5,0.9,1.8c0.3,0.2,0.7,0.3,1.2,0.3c0.5,0,0.9-0.1,1.2-0.4c0.2-0.1,0.3-0.3,0.5-0.6h2.3c-0.1,0.5-0.3,1-0.8,1.5
		c-0.8,0.8-1.8,1.2-3.2,1.2c-1.1,0-2.1-0.3-3-1s-1.3-1.8-1.3-3.4c0-1.5,0.4-2.6,1.2-3.4s1.8-1.2,3-1.2
		C931.2,3.1,931.9,3.2,932.5,3.5z M929.2,5.4c-0.3,0.3-0.5,0.8-0.6,1.3h3.8c0-0.6-0.2-1-0.6-1.3c-0.4-0.3-0.8-0.5-1.3-0.5
		C929.9,4.9,929.5,5.1,929.2,5.4z"/>
</g>
<rect x="189.2" y="44.9" class="svg-chaining-diagram-st2" width="207.1" height="5"/>
<rect x="189.2" y="148.7" class="svg-chaining-diagram-st2" width="207.1" height="5"/>
<rect x="585.4" y="44.9" class="svg-chaining-diagram-st2" width="180.1" height="5"/>
<g>
	<path class="svg-chaining-diagram-st1" d="M615.9,29.9c-0.2-0.8-0.6-1.3-1.3-1.6c-0.4-0.2-0.8-0.3-1.3-0.3c-0.9,0-1.7,0.3-2.3,1s-0.9,1.8-0.9,3.2
		c0,1.4,0.3,2.4,1,3c0.6,0.6,1.4,0.9,2.2,0.9c0.8,0,1.5-0.2,2-0.7c0.5-0.5,0.8-1.1,1-1.8h-2.7v-1.9h4.8v6.2h-1.6l-0.2-1.4
		c-0.5,0.5-0.9,0.9-1.2,1.2c-0.6,0.4-1.4,0.6-2.3,0.6c-1.5,0-2.8-0.5-3.8-1.6c-1-1.1-1.5-2.5-1.5-4.4c0-1.9,0.5-3.4,1.5-4.5
		c1-1.1,2.4-1.7,4.1-1.7c1.5,0,2.6,0.4,3.5,1.1s1.4,1.7,1.5,2.8H615.9z"/>
	<path class="svg-chaining-diagram-st1" d="M629.1,28.4H623v2.4h5.6v2H623v3h6.4v2.1h-8.7V26.3h8.4V28.4z"/>
	<path class="svg-chaining-diagram-st1" d="M639.7,26.3v2h-3.4v9.5h-2.4v-9.5h-3.5v-2H639.7z"/>
</g>
<g>
	<path class="svg-chaining-diagram-st1" d="M611.1,139.7c0.3-0.8,1.1-1.6,2.2-2.4c1-0.7,1.7-1.3,2-1.6c0.5-0.5,0.7-1,0.7-1.6c0-0.5-0.1-0.9-0.4-1.2
		s-0.6-0.5-1.1-0.5c-0.7,0-1.1,0.3-1.4,0.8c-0.1,0.3-0.2,0.8-0.2,1.4h-2.2c0-1,0.2-1.7,0.5-2.3c0.6-1.1,1.7-1.7,3.2-1.7
		c1.2,0,2.2,0.3,2.9,1s1.1,1.5,1.1,2.6c0,0.8-0.2,1.6-0.8,2.2c-0.3,0.4-0.9,0.9-1.6,1.4l-0.9,0.6c-0.6,0.4-0.9,0.7-1.1,0.9
		s-0.4,0.4-0.5,0.6h4.9v2h-7.8C610.6,141.1,610.7,140.4,611.1,139.7z"/>
	<path class="svg-chaining-diagram-st1" d="M626.4,132c0.6,1,0.9,2.5,0.9,4.3s-0.3,3.3-0.9,4.3s-1.6,1.5-3,1.5s-2.5-0.5-3-1.5s-0.9-2.5-0.9-4.3
		s0.3-3.3,0.9-4.3s1.6-1.5,3-1.5S625.8,131,626.4,132z M622,139.3c0.2,0.7,0.7,1,1.3,1s1.1-0.3,1.3-1s0.3-1.7,0.3-3
		c0-1.4-0.1-2.4-0.3-3s-0.6-1-1.3-1s-1.1,0.3-1.3,1s-0.3,1.7-0.3,3C621.7,137.7,621.8,138.7,622,139.3z"/>
	<path class="svg-chaining-diagram-st1" d="M635.3,132c0.6,1,0.9,2.5,0.9,4.3s-0.3,3.3-0.9,4.3s-1.6,1.5-3,1.5s-2.5-0.5-3-1.5s-0.9-2.5-0.9-4.3
		s0.3-3.3,0.9-4.3s1.6-1.5,3-1.5S634.7,131,635.3,132z M630.9,139.3c0.2,0.7,0.7,1,1.3,1s1.1-0.3,1.3-1s0.3-1.7,0.3-3
		c0-1.4-0.1-2.4-0.3-3s-0.6-1-1.3-1s-1.1,0.3-1.3,1s-0.3,1.7-0.3,3C630.6,137.7,630.7,138.7,630.9,139.3z"/>
</g>
<g>
	<path class="svg-chaining-diagram-st1" d="M613,68.5h-1.1l5.8-9.6h1L613,68.5z"/>
	<path class="svg-chaining-diagram-st1" d="M619.9,68.3v-9.5h1.1v4.3c0.3-0.5,0.7-0.9,1.1-1.2s0.9-0.4,1.3-0.4c0.4,0,0.7,0.1,1,0.3s0.5,0.4,0.6,0.7
		c0.1,0.2,0.2,0.4,0.2,0.7s0.1,0.7,0.1,1.4v3.7h-1.1v-3.8c0-0.6,0-1-0.1-1.2s-0.2-0.4-0.3-0.5s-0.3-0.2-0.5-0.2
		c-0.4,0-0.8,0.2-1.2,0.5s-0.8,0.8-1.1,1.4v3.8H619.9z"/>
	<path class="svg-chaining-diagram-st1" d="M632.5,67.8c-0.9,0.4-1.7,0.6-2.5,0.6c-0.6,0-1.1-0.1-1.6-0.4c-0.5-0.3-0.8-0.7-1.1-1.3
		c-0.3-0.5-0.4-1.1-0.4-1.7c0-0.6,0.1-1.2,0.4-1.7s0.6-1,1.1-1.3c0.5-0.3,1-0.5,1.6-0.5c0.8,0,1.4,0.3,1.9,0.8
		c0.5,0.6,0.7,1.4,0.7,2.6v0.2h-4.5c0,0.5,0.1,0.9,0.3,1.2s0.4,0.7,0.7,0.8c0.3,0.2,0.7,0.3,1.1,0.3c0.7,0,1.5-0.2,2.3-0.7V67.8z
		 M628.2,64.3h3.3v-0.2c0-0.5-0.1-1-0.4-1.3s-0.6-0.5-1-0.5c-0.4,0-0.8,0.2-1.1,0.5S628.3,63.7,628.2,64.3z"/>
	<path class="svg-chaining-diagram-st1" d="M636,68.3v-8.5h-2v-0.9h3v8.5h2v0.9H636z"/>
	<path class="svg-chaining-diagram-st1" d="M643.2,68.3v-8.5h-2v-0.9h3v8.5h2v0.9H643.2z"/>
	<path class="svg-chaining-diagram-st1" d="M651.4,68.4c-0.9,0-1.7-0.3-2.2-1c-0.6-0.7-0.8-1.5-0.8-2.5s0.3-1.8,0.8-2.5c0.6-0.7,1.3-1,2.2-1
		c0.9,0,1.7,0.3,2.2,1c0.6,0.7,0.8,1.5,0.8,2.5s-0.3,1.8-0.8,2.5C653,68.1,652.3,68.4,651.4,68.4z M651.4,67.5c0.6,0,1-0.2,1.4-0.7
		c0.3-0.5,0.5-1.1,0.5-1.9c0-0.8-0.2-1.4-0.5-1.9c-0.3-0.5-0.8-0.7-1.4-0.7c-0.6,0-1,0.2-1.4,0.7c-0.3,0.5-0.5,1.1-0.5,1.9
		c0,0.8,0.2,1.4,0.5,1.9C650.3,67.3,650.8,67.5,651.4,67.5z"/>
</g>
<g>
	<path class="svg-chaining-diagram-st1" d="M611.8,169c0.4,0.2,0.6,0.4,0.8,0.6s0.3,0.4,0.4,0.6c0.1,0.2,0.1,0.4,0.1,0.7c0,0.2,0,0.5-0.1,0.9l-0.1,0.7
		c-0.1,0.4-0.1,0.6-0.1,0.8c0,0.2,0.1,0.4,0.3,0.6s0.6,0.2,1.1,0.2h0.9v0.9h-0.9c-1.1,0-1.8-0.2-2.1-0.5c-0.3-0.3-0.5-0.7-0.5-1.2
		c0-0.2,0-0.5,0.1-0.7l0.1-0.5l0.1-0.5l0.1-0.3c0-0.1,0-0.3,0-0.4c0-0.4-0.1-0.7-0.4-0.9s-0.7-0.4-1.3-0.4h-0.5v-0.9h0.5
		c0.6,0,1-0.1,1.3-0.4s0.4-0.6,0.4-0.9c0-0.1,0-0.3,0-0.4l-0.1-0.3l-0.1-0.5l-0.1-0.5c-0.1-0.3-0.1-0.5-0.1-0.8
		c0-0.4,0.2-0.8,0.5-1.2c0.3-0.3,1-0.5,2.1-0.5h0.9v0.9h-0.9c-0.6,0-1,0.1-1.1,0.2c-0.2,0.2-0.3,0.4-0.3,0.6c0,0.2,0,0.4,0.1,0.8
		l0.1,0.7c0.1,0.4,0.1,0.7,0.1,0.9c0,0.2,0,0.5-0.1,0.7c-0.1,0.2-0.2,0.4-0.4,0.6S612.2,168.8,611.8,169z"/>
	<path class="svg-chaining-diagram-st1" d="M623.4,172.8v-6.5h1v1.5c0.3-0.6,0.6-1.1,0.8-1.3s0.5-0.4,0.8-0.4c0.3,0,0.6,0.1,0.8,0.4s0.3,0.6,0.3,1.1v0.4
		c0.1-0.4,0.3-0.7,0.5-1s0.4-0.4,0.6-0.6s0.4-0.2,0.7-0.2c0.3,0,0.5,0.1,0.7,0.4s0.3,0.7,0.3,1.4v4.9h-1v-4.5c0-0.4,0-0.6,0-0.8
		s-0.1-0.2-0.1-0.3s-0.1-0.1-0.2-0.1c-0.2,0-0.4,0.2-0.7,0.5s-0.5,0.8-0.7,1.5v3.6h-0.9v-4.5c0-0.6-0.1-0.9-0.2-1
		c-0.1-0.1-0.2-0.2-0.3-0.2c-0.2,0-0.4,0.2-0.6,0.5s-0.4,0.8-0.7,1.3v3.8H623.4z"/>
	<path class="svg-chaining-diagram-st1" d="M631.2,172.4v-1.2c0.4,0.3,0.9,0.5,1.4,0.6s0.9,0.2,1.2,0.2c0.6,0,0.9-0.1,1.2-0.3s0.4-0.4,0.4-0.7
		c0-0.2-0.1-0.3-0.2-0.5s-0.4-0.3-0.8-0.5L634,170l-0.8-0.3c-0.8-0.3-1.3-0.6-1.5-0.9c-0.2-0.3-0.3-0.6-0.3-1c0-0.5,0.2-1,0.6-1.3
		c0.4-0.3,1.1-0.5,2-0.5c0.7,0,1.4,0.1,2,0.3v1c-0.7-0.3-1.4-0.4-2-0.4c-0.5,0-0.8,0.1-1.1,0.2c-0.3,0.2-0.4,0.4-0.4,0.6
		c0,0.2,0.1,0.4,0.3,0.6c0.2,0.1,0.6,0.3,1.1,0.5l0.7,0.3c0.7,0.2,1.2,0.5,1.4,0.8c0.3,0.3,0.4,0.7,0.4,1.1c0,0.6-0.2,1-0.7,1.4
		s-1.1,0.5-2.1,0.5C632.9,172.9,632.1,172.8,631.2,172.4z"/>
	<path class="svg-chaining-diagram-st1" d="M642.7,171.3c-0.3,0.5-0.7,1-1.2,1.2c-0.5,0.3-0.9,0.4-1.3,0.4c-0.5,0-1-0.2-1.5-0.7c-0.4-0.5-0.7-1.2-0.7-2.2
		c0-0.8,0.1-1.4,0.4-2c0.3-0.6,0.7-1.1,1.2-1.4c0.5-0.3,1.1-0.5,1.8-0.5c0.2,0,0.5,0,0.9,0.1c0.1,0,0.2,0,0.3,0h1.1v4.6
		c0,1.1,0,1.8,0,2s-0.1,0.5-0.1,0.7c-0.2,0.6-0.5,1-1.1,1.4c-0.6,0.3-1.2,0.5-2,0.5c-0.8,0-1.6-0.2-2.4-0.6v-1.1
		c0.3,0.2,0.7,0.4,1.1,0.6c0.5,0.2,0.9,0.2,1.3,0.2c0.3,0,0.6-0.1,0.9-0.2c0.3-0.1,0.5-0.3,0.7-0.5c0.2-0.2,0.3-0.4,0.4-0.7
		s0.1-0.6,0.1-1.1V171.3z M642.7,170v-2.8c-0.4-0.1-0.7-0.2-1.1-0.2c-0.7,0-1.2,0.3-1.7,0.8c-0.4,0.5-0.7,1.2-0.7,2.1
		c0,0.6,0.1,1.1,0.4,1.5c0.2,0.3,0.5,0.5,0.8,0.5c0.3,0,0.7-0.2,1.1-0.5C642,171,642.4,170.6,642.7,170z"/>
	<path class="svg-chaining-diagram-st1" d="M648.2,167.9c-0.3,0-0.5-0.1-0.7-0.3s-0.3-0.4-0.3-0.7c0-0.3,0.1-0.5,0.3-0.7s0.4-0.3,0.7-0.3s0.5,0.1,0.7,0.3
		s0.3,0.4,0.3,0.7c0,0.3-0.1,0.5-0.3,0.7S648.5,167.9,648.2,167.9z M648.2,173c-0.3,0-0.5-0.1-0.7-0.3s-0.3-0.4-0.3-0.7
		c0-0.3,0.1-0.5,0.3-0.7s0.4-0.3,0.7-0.3s0.5,0.1,0.7,0.3s0.3,0.4,0.3,0.7c0,0.3-0.1,0.5-0.3,0.7S648.5,173,648.2,173z"/>
	<path class="svg-chaining-diagram-st1" d="M662.3,163.1v0.7c-0.3,0.1-0.5,0.2-0.6,0.3c-0.1,0.1-0.3,0.3-0.4,0.5s-0.1,0.5-0.1,0.8c0.4,0,0.6,0.1,0.8,0.3
		s0.3,0.4,0.3,0.7c0,0.3-0.1,0.5-0.3,0.7s-0.4,0.3-0.7,0.3c-0.3,0-0.6-0.1-0.8-0.4c-0.2-0.3-0.4-0.7-0.4-1.2c0-0.4,0.1-0.8,0.3-1.2
		c0.2-0.4,0.4-0.7,0.8-1C661.4,163.4,661.8,163.2,662.3,163.1z M665.2,163.1v0.7c-0.3,0.1-0.5,0.2-0.6,0.3c-0.1,0.1-0.3,0.3-0.4,0.5
		s-0.1,0.5-0.1,0.8c0.4,0,0.6,0.1,0.8,0.3s0.3,0.4,0.3,0.7c0,0.3-0.1,0.5-0.3,0.7s-0.4,0.3-0.7,0.3c-0.3,0-0.6-0.1-0.9-0.4
		c-0.2-0.3-0.4-0.7-0.4-1.2c0-0.4,0.1-0.8,0.3-1.2c0.2-0.4,0.4-0.7,0.8-1C664.3,163.4,664.7,163.2,665.2,163.1z"/>
	<path class="svg-chaining-diagram-st1" d="M667,172.8v-9.1h1.2v3.9h3.4v-3.9h1.2v9.1h-1.2v-4.3h-3.4v4.3H667z"/>
	<path class="svg-chaining-diagram-st1" d="M679.8,172.3c-0.9,0.4-1.7,0.6-2.5,0.6c-0.6,0-1.1-0.1-1.6-0.4c-0.5-0.3-0.8-0.7-1.1-1.3
		c-0.3-0.5-0.4-1.1-0.4-1.7c0-0.6,0.1-1.2,0.4-1.7c0.3-0.6,0.6-1,1.1-1.3s1-0.5,1.6-0.5c0.8,0,1.4,0.3,1.9,0.8s0.7,1.4,0.7,2.6v0.2
		h-4.5c0,0.5,0.1,0.9,0.3,1.2s0.4,0.7,0.7,0.8c0.3,0.2,0.7,0.3,1.1,0.3c0.7,0,1.5-0.2,2.3-0.7V172.3z M675.4,168.8h3.3v-0.2
		c0-0.5-0.1-1-0.4-1.3s-0.6-0.5-1-0.5c-0.4,0-0.8,0.2-1.1,0.5S675.5,168.2,675.4,168.8z"/>
	<path class="svg-chaining-diagram-st1" d="M683.3,172.8v-8.5h-2v-0.9h3v8.5h2v0.9H683.3z"/>
	<path class="svg-chaining-diagram-st1" d="M690.5,172.8v-8.5h-2v-0.9h3v8.5h2v0.9H690.5z"/>
	<path class="svg-chaining-diagram-st1" d="M698.6,172.9c-0.9,0-1.7-0.3-2.2-1c-0.6-0.7-0.8-1.5-0.8-2.5s0.3-1.8,0.8-2.5c0.6-0.7,1.3-1,2.2-1
		c0.9,0,1.7,0.3,2.2,1c0.6,0.7,0.8,1.5,0.8,2.5s-0.3,1.8-0.8,2.5C700.3,172.6,699.6,172.9,698.6,172.9z M698.6,172
		c0.6,0,1-0.2,1.4-0.7c0.3-0.5,0.5-1.1,0.5-1.9c0-0.8-0.2-1.4-0.5-1.9c-0.3-0.5-0.8-0.7-1.4-0.7c-0.6,0-1,0.2-1.4,0.7
		c-0.3,0.5-0.5,1.1-0.5,1.9c0,0.8,0.2,1.4,0.5,1.9C697.6,171.8,698,172,698.6,172z"/>
	<path class="svg-chaining-diagram-st1" d="M710.6,172.8l-1.1-6.5h1l0.6,4l0.2,0.9l0.2-0.9l1-4h1l1.2,4l0.2,0.9l0.1-0.9l0.6-4h0.8l-1.1,6.5h-1l-1.3-4.2
		l-0.2-0.9h0l-0.2,0.9l-1.1,4.2H710.6z"/>
	<path class="svg-chaining-diagram-st1" d="M720.2,172.9c-0.9,0-1.7-0.3-2.2-1c-0.6-0.7-0.8-1.5-0.8-2.5s0.3-1.8,0.8-2.5c0.6-0.7,1.3-1,2.2-1
		c0.9,0,1.7,0.3,2.2,1c0.6,0.7,0.8,1.5,0.8,2.5s-0.3,1.8-0.8,2.5C721.9,172.6,721.2,172.9,720.2,172.9z M720.2,172
		c0.6,0,1-0.2,1.4-0.7c0.3-0.5,0.5-1.1,0.5-1.9c0-0.8-0.2-1.4-0.5-1.9c-0.3-0.5-0.8-0.7-1.4-0.7c-0.6,0-1,0.2-1.4,0.7
		c-0.3,0.5-0.5,1.1-0.5,1.9c0,0.8,0.2,1.4,0.5,1.9C719.2,171.8,719.6,172,720.2,172z"/>
	<path class="svg-chaining-diagram-st1" d="M725.3,172.8v-6.5h1.1v1.4c0.3-0.5,0.7-0.9,1.2-1.2s0.9-0.4,1.5-0.4c0.4,0,0.8,0.1,1.2,0.2v2.4h-1v-1.5
		c-0.2,0-0.3,0-0.4,0c-0.4,0-0.8,0.2-1.2,0.5s-0.8,0.8-1.1,1.4v3.8H725.3z"/>
	<path class="svg-chaining-diagram-st1" d="M733.7,172.8v-8.5h-2v-0.9h3v8.5h2v0.9H733.7z"/>
	<path class="svg-chaining-diagram-st1" d="M743.5,171.3c-0.3,0.5-0.7,1-1.2,1.2c-0.5,0.3-0.9,0.4-1.3,0.4c-0.5,0-1-0.2-1.5-0.7c-0.4-0.5-0.7-1.2-0.7-2.2
		c0-0.8,0.1-1.4,0.4-2c0.3-0.6,0.7-1.1,1.2-1.4s1.1-0.5,1.8-0.5c0.2,0,0.5,0,0.9,0.1c0.1,0,0.2,0,0.3,0v-2.9h1.1v9.5h-1.1V171.3z
		 M743.5,170v-2.8c-0.4-0.1-0.7-0.2-1.1-0.2c-0.7,0-1.2,0.3-1.7,0.8c-0.4,0.5-0.7,1.2-0.7,2.1c0,0.6,0.1,1.1,0.4,1.5
		c0.2,0.3,0.5,0.5,0.8,0.5c0.3,0,0.7-0.2,1.1-0.5C742.8,171,743.2,170.6,743.5,170z"/>
	<path class="svg-chaining-diagram-st1" d="M749,173c-0.2,0-0.4-0.1-0.6-0.2s-0.2-0.4-0.2-0.6s0.1-0.4,0.2-0.6s0.4-0.2,0.6-0.2c0.2,0,0.4,0.1,0.6,0.2
		s0.2,0.4,0.2,0.6s-0.1,0.4-0.3,0.6S749.3,173,749,173z M748.5,170.2l-0.3-6.5h1.5l-0.3,6.5H748.5z"/>
	<path class="svg-chaining-diagram-st1" d="M753.4,167.4v-0.7c0.3-0.1,0.5-0.2,0.6-0.3c0.1-0.1,0.3-0.3,0.4-0.5c0.1-0.2,0.1-0.5,0.1-0.8
		c-0.4,0-0.6-0.1-0.8-0.3s-0.3-0.4-0.3-0.7c0-0.3,0.1-0.5,0.3-0.7s0.4-0.3,0.7-0.3c0.3,0,0.6,0.1,0.8,0.4c0.2,0.3,0.4,0.7,0.4,1.2
		c0,0.4-0.1,0.8-0.3,1.2c-0.2,0.4-0.4,0.7-0.8,1S753.9,167.3,753.4,167.4z M756.3,167.4v-0.7c0.3-0.1,0.5-0.2,0.6-0.3
		c0.1-0.1,0.3-0.3,0.4-0.5c0.1-0.2,0.1-0.5,0.1-0.8c-0.4,0-0.6-0.1-0.8-0.3s-0.3-0.4-0.3-0.7c0-0.3,0.1-0.5,0.3-0.7s0.4-0.3,0.7-0.3
		c0.3,0,0.6,0.1,0.9,0.4c0.2,0.3,0.4,0.7,0.4,1.2c0,0.4-0.1,0.8-0.3,1.2c-0.2,0.4-0.4,0.7-0.8,1S756.8,167.3,756.3,167.4z"/>
	<path class="svg-chaining-diagram-st1" d="M770.8,169c-0.4-0.2-0.6-0.4-0.8-0.6s-0.3-0.4-0.4-0.6s-0.1-0.4-0.1-0.7c0-0.2,0-0.5,0.1-0.9l0.1-0.7
		c0.1-0.4,0.1-0.6,0.1-0.8c0-0.2-0.1-0.4-0.3-0.6c-0.2-0.2-0.6-0.2-1.1-0.2h-0.9v-0.9h0.9c1.1,0,1.8,0.2,2.1,0.5s0.5,0.7,0.5,1.2
		c0,0.2,0,0.5-0.1,0.8l-0.1,0.5l-0.1,0.5l-0.1,0.3c0,0.1,0,0.3,0,0.4c0,0.4,0.1,0.7,0.4,0.9s0.7,0.4,1.3,0.4h0.5v0.9h-0.5
		c-0.6,0-1,0.1-1.3,0.4s-0.4,0.6-0.4,1c0,0.1,0,0.3,0,0.4l0.1,0.3l0.1,0.5l0.1,0.5c0.1,0.3,0.1,0.5,0.1,0.8c0,0.4-0.2,0.8-0.5,1.2
		s-1,0.5-2.1,0.5h-0.9V174h0.9c0.6,0,1-0.1,1.1-0.2s0.3-0.4,0.3-0.6c0-0.2,0-0.4-0.1-0.8l-0.1-0.7c-0.1-0.4-0.1-0.7-0.1-0.9
		c0-0.2,0-0.5,0.1-0.7s0.2-0.4,0.4-0.6S770.4,169.2,770.8,169z"/>
</g>
<g>
	<path class="svg-chaining-diagram-st1" d="M217.5,139.7c0.3-0.8,1.1-1.6,2.2-2.4c1-0.7,1.7-1.3,2-1.6c0.5-0.5,0.7-1,0.7-1.6c0-0.5-0.1-0.9-0.4-1.2
		s-0.6-0.5-1.1-0.5c-0.7,0-1.1,0.3-1.4,0.8c-0.1,0.3-0.2,0.8-0.2,1.4h-2.2c0-1,0.2-1.7,0.5-2.3c0.6-1.1,1.7-1.7,3.2-1.7
		c1.2,0,2.2,0.3,2.9,1s1.1,1.5,1.1,2.6c0,0.8-0.2,1.6-0.8,2.2c-0.3,0.4-0.9,0.9-1.6,1.4l-0.9,0.6c-0.6,0.4-0.9,0.7-1.1,0.9
		s-0.4,0.4-0.5,0.6h4.9v2H217C217,141.1,217.1,140.4,217.5,139.7z"/>
	<path class="svg-chaining-diagram-st1" d="M232.8,132c0.6,1,0.9,2.5,0.9,4.3s-0.3,3.3-0.9,4.3s-1.6,1.5-3,1.5s-2.5-0.5-3-1.5s-0.9-2.5-0.9-4.3
		s0.3-3.3,0.9-4.3s1.6-1.5,3-1.5S232.2,131,232.8,132z M228.4,139.3c0.2,0.7,0.7,1,1.3,1s1.1-0.3,1.3-1s0.3-1.7,0.3-3
		c0-1.4-0.1-2.4-0.3-3s-0.6-1-1.3-1s-1.1,0.3-1.3,1s-0.3,1.7-0.3,3C228.1,137.7,228.2,138.7,228.4,139.3z"/>
	<path class="svg-chaining-diagram-st1" d="M241.7,132c0.6,1,0.9,2.5,0.9,4.3s-0.3,3.3-0.9,4.3s-1.6,1.5-3,1.5s-2.5-0.5-3-1.5s-0.9-2.5-0.9-4.3
		s0.3-3.3,0.9-4.3s1.6-1.5,3-1.5S241.1,131,241.7,132z M237.3,139.3c0.2,0.7,0.7,1,1.3,1s1.1-0.3,1.3-1s0.3-1.7,0.3-3
		c0-1.4-0.1-2.4-0.3-3s-0.6-1-1.3-1s-1.1,0.3-1.3,1s-0.3,1.7-0.3,3C237,137.7,237.1,138.7,237.3,139.3z"/>
</g>
<g>
	<path class="svg-chaining-diagram-st1" d="M218.2,169c0.4,0.2,0.6,0.4,0.8,0.6s0.3,0.4,0.4,0.6c0.1,0.2,0.1,0.4,0.1,0.7c0,0.2,0,0.5-0.1,0.9l-0.1,0.7
		c-0.1,0.4-0.1,0.6-0.1,0.8c0,0.2,0.1,0.4,0.3,0.6s0.6,0.2,1.1,0.2h0.9v0.9h-0.9c-1.1,0-1.8-0.2-2.1-0.5c-0.3-0.3-0.5-0.7-0.5-1.2
		c0-0.2,0-0.5,0.1-0.7l0.1-0.5l0.1-0.5l0.1-0.3c0-0.1,0-0.3,0-0.4c0-0.4-0.1-0.7-0.4-0.9s-0.7-0.4-1.3-0.4h-0.5v-0.9h0.5
		c0.6,0,1-0.1,1.3-0.4s0.4-0.6,0.4-0.9c0-0.1,0-0.3,0-0.4l-0.1-0.3l-0.1-0.5l-0.1-0.5c-0.1-0.3-0.1-0.5-0.1-0.8
		c0-0.4,0.2-0.8,0.5-1.2c0.3-0.3,1-0.5,2.1-0.5h0.9v0.9h-0.9c-0.6,0-1,0.1-1.1,0.2c-0.2,0.2-0.3,0.4-0.3,0.6c0,0.2,0,0.4,0.1,0.8
		l0.1,0.7c0.1,0.4,0.1,0.7,0.1,0.9c0,0.2,0,0.5-0.1,0.7c-0.1,0.2-0.2,0.4-0.4,0.6S218.6,168.8,218.2,169z"/>
	<path class="svg-chaining-diagram-st1" d="M229.8,172.8v-6.5h1v1.5c0.3-0.6,0.6-1.1,0.8-1.3s0.5-0.4,0.8-0.4c0.3,0,0.6,0.1,0.8,0.4s0.3,0.6,0.3,1.1v0.4
		c0.1-0.4,0.3-0.7,0.5-1s0.4-0.4,0.6-0.6s0.4-0.2,0.7-0.2c0.3,0,0.5,0.1,0.7,0.4s0.3,0.7,0.3,1.4v4.9h-1v-4.5c0-0.4,0-0.6,0-0.8
		s-0.1-0.2-0.1-0.3s-0.1-0.1-0.2-0.1c-0.2,0-0.4,0.2-0.7,0.5s-0.5,0.8-0.7,1.5v3.6h-0.9v-4.5c0-0.6-0.1-0.9-0.2-1
		c-0.1-0.1-0.2-0.2-0.3-0.2c-0.2,0-0.4,0.2-0.6,0.5s-0.4,0.8-0.7,1.3v3.8H229.8z"/>
	<path class="svg-chaining-diagram-st1" d="M237.6,172.4v-1.2c0.4,0.3,0.9,0.5,1.4,0.6s0.9,0.2,1.2,0.2c0.6,0,0.9-0.1,1.2-0.3s0.4-0.4,0.4-0.7
		c0-0.2-0.1-0.3-0.2-0.5s-0.4-0.3-0.8-0.5l-0.4-0.2l-0.8-0.3c-0.8-0.3-1.3-0.6-1.5-0.9c-0.2-0.3-0.3-0.6-0.3-1c0-0.5,0.2-1,0.6-1.3
		c0.4-0.3,1.1-0.5,2-0.5c0.7,0,1.4,0.1,2,0.3v1c-0.7-0.3-1.4-0.4-2-0.4c-0.5,0-0.8,0.1-1.1,0.2c-0.3,0.2-0.4,0.4-0.4,0.6
		c0,0.2,0.1,0.4,0.3,0.6c0.2,0.1,0.6,0.3,1.1,0.5l0.7,0.3c0.7,0.2,1.2,0.5,1.4,0.8c0.3,0.3,0.4,0.7,0.4,1.1c0,0.6-0.2,1-0.7,1.4
		s-1.1,0.5-2.1,0.5C239.3,172.9,238.5,172.8,237.6,172.4z"/>
	<path class="svg-chaining-diagram-st1" d="M249.1,171.3c-0.3,0.5-0.7,1-1.2,1.2c-0.5,0.3-0.9,0.4-1.3,0.4c-0.5,0-1-0.2-1.5-0.7c-0.4-0.5-0.7-1.2-0.7-2.2
		c0-0.8,0.1-1.4,0.4-2c0.3-0.6,0.7-1.1,1.2-1.4c0.5-0.3,1.1-0.5,1.8-0.5c0.2,0,0.5,0,0.9,0.1c0.1,0,0.2,0,0.3,0h1.1v4.6
		c0,1.1,0,1.8,0,2s-0.1,0.5-0.1,0.7c-0.2,0.6-0.5,1-1.1,1.4c-0.6,0.3-1.2,0.5-2,0.5c-0.8,0-1.6-0.2-2.4-0.6v-1.1
		c0.3,0.2,0.7,0.4,1.1,0.6c0.5,0.2,0.9,0.2,1.3,0.2c0.3,0,0.6-0.1,0.9-0.2c0.3-0.1,0.5-0.3,0.7-0.5c0.2-0.2,0.3-0.4,0.4-0.7
		s0.1-0.6,0.1-1.1V171.3z M249.1,170v-2.8c-0.4-0.1-0.7-0.2-1.1-0.2c-0.7,0-1.2,0.3-1.7,0.8c-0.4,0.5-0.7,1.2-0.7,2.1
		c0,0.6,0.1,1.1,0.4,1.5c0.2,0.3,0.5,0.5,0.8,0.5c0.3,0,0.7-0.2,1.1-0.5C248.4,171,248.8,170.6,249.1,170z"/>
	<path class="svg-chaining-diagram-st1" d="M254.6,167.9c-0.3,0-0.5-0.1-0.7-0.3s-0.3-0.4-0.3-0.7c0-0.3,0.1-0.5,0.3-0.7s0.4-0.3,0.7-0.3s0.5,0.1,0.7,0.3
		s0.3,0.4,0.3,0.7c0,0.3-0.1,0.5-0.3,0.7S254.9,167.9,254.6,167.9z M254.6,173c-0.3,0-0.5-0.1-0.7-0.3s-0.3-0.4-0.3-0.7
		c0-0.3,0.1-0.5,0.3-0.7s0.4-0.3,0.7-0.3s0.5,0.1,0.7,0.3s0.3,0.4,0.3,0.7c0,0.3-0.1,0.5-0.3,0.7S254.9,173,254.6,173z"/>
	<path class="svg-chaining-diagram-st1" d="M268.7,163.1v0.7c-0.3,0.1-0.5,0.2-0.6,0.3c-0.1,0.1-0.3,0.3-0.4,0.5s-0.1,0.5-0.1,0.8c0.4,0,0.6,0.1,0.8,0.3
		s0.3,0.4,0.3,0.7c0,0.3-0.1,0.5-0.3,0.7s-0.4,0.3-0.7,0.3c-0.3,0-0.6-0.1-0.8-0.4c-0.2-0.3-0.4-0.7-0.4-1.2c0-0.4,0.1-0.8,0.3-1.2
		c0.2-0.4,0.4-0.7,0.8-1C267.8,163.4,268.2,163.2,268.7,163.1z M271.6,163.1v0.7c-0.3,0.1-0.5,0.2-0.6,0.3c-0.1,0.1-0.3,0.3-0.4,0.5
		s-0.1,0.5-0.1,0.8c0.4,0,0.6,0.1,0.8,0.3s0.3,0.4,0.3,0.7c0,0.3-0.1,0.5-0.3,0.7s-0.4,0.3-0.7,0.3c-0.3,0-0.6-0.1-0.9-0.4
		c-0.2-0.3-0.4-0.7-0.4-1.2c0-0.4,0.1-0.8,0.3-1.2c0.2-0.4,0.4-0.7,0.8-1C270.7,163.4,271.1,163.2,271.6,163.1z"/>
	<path class="svg-chaining-diagram-st1" d="M273.4,172.8v-9.1h1.2v3.9h3.4v-3.9h1.2v9.1h-1.2v-4.3h-3.4v4.3H273.4z"/>
	<path class="svg-chaining-diagram-st1" d="M286.2,172.3c-0.9,0.4-1.7,0.6-2.5,0.6c-0.6,0-1.1-0.1-1.6-0.4c-0.5-0.3-0.8-0.7-1.1-1.3
		c-0.3-0.5-0.4-1.1-0.4-1.7c0-0.6,0.1-1.2,0.4-1.7c0.3-0.6,0.6-1,1.1-1.3s1-0.5,1.6-0.5c0.8,0,1.4,0.3,1.9,0.8s0.7,1.4,0.7,2.6v0.2
		h-4.5c0,0.5,0.1,0.9,0.3,1.2s0.4,0.7,0.7,0.8c0.3,0.2,0.7,0.3,1.1,0.3c0.7,0,1.5-0.2,2.3-0.7V172.3z M281.8,168.8h3.3v-0.2
		c0-0.5-0.1-1-0.4-1.3s-0.6-0.5-1-0.5c-0.4,0-0.8,0.2-1.1,0.5S281.9,168.2,281.8,168.8z"/>
	<path class="svg-chaining-diagram-st1" d="M289.7,172.8v-8.5h-2v-0.9h3v8.5h2v0.9H289.7z"/>
	<path class="svg-chaining-diagram-st1" d="M296.9,172.8v-8.5h-2v-0.9h3v8.5h2v0.9H296.9z"/>
	<path class="svg-chaining-diagram-st1" d="M305,172.9c-0.9,0-1.7-0.3-2.2-1c-0.6-0.7-0.8-1.5-0.8-2.5s0.3-1.8,0.8-2.5c0.6-0.7,1.3-1,2.2-1
		c0.9,0,1.7,0.3,2.2,1c0.6,0.7,0.8,1.5,0.8,2.5s-0.3,1.8-0.8,2.5C306.7,172.6,306,172.9,305,172.9z M305,172c0.6,0,1-0.2,1.4-0.7
		c0.3-0.5,0.5-1.1,0.5-1.9c0-0.8-0.2-1.4-0.5-1.9c-0.3-0.5-0.8-0.7-1.4-0.7c-0.6,0-1,0.2-1.4,0.7c-0.3,0.5-0.5,1.1-0.5,1.9
		c0,0.8,0.2,1.4,0.5,1.9C304,171.8,304.4,172,305,172z"/>
	<path class="svg-chaining-diagram-st1" d="M317,172.8l-1.1-6.5h1l0.6,4l0.2,0.9l0.2-0.9l1-4h1l1.2,4l0.2,0.9l0.1-0.9l0.6-4h0.8l-1.1,6.5h-1l-1.3-4.2
		l-0.2-0.9h0l-0.2,0.9l-1.1,4.2H317z"/>
	<path class="svg-chaining-diagram-st1" d="M326.6,172.9c-0.9,0-1.7-0.3-2.2-1c-0.6-0.7-0.8-1.5-0.8-2.5s0.3-1.8,0.8-2.5c0.6-0.7,1.3-1,2.2-1
		c0.9,0,1.7,0.3,2.2,1c0.6,0.7,0.8,1.5,0.8,2.5s-0.3,1.8-0.8,2.5C328.3,172.6,327.6,172.9,326.6,172.9z M326.6,172
		c0.6,0,1-0.2,1.4-0.7c0.3-0.5,0.5-1.1,0.5-1.9c0-0.8-0.2-1.4-0.5-1.9c-0.3-0.5-0.8-0.7-1.4-0.7c-0.6,0-1,0.2-1.4,0.7
		c-0.3,0.5-0.5,1.1-0.5,1.9c0,0.8,0.2,1.4,0.5,1.9C325.6,171.8,326,172,326.6,172z"/>
	<path class="svg-chaining-diagram-st1" d="M331.7,172.8v-6.5h1.1v1.4c0.3-0.5,0.7-0.9,1.2-1.2s0.9-0.4,1.5-0.4c0.4,0,0.8,0.1,1.2,0.2v2.4h-1v-1.5
		c-0.2,0-0.3,0-0.4,0c-0.4,0-0.8,0.2-1.2,0.5s-0.8,0.8-1.1,1.4v3.8H331.7z"/>
	<path class="svg-chaining-diagram-st1" d="M340.1,172.8v-8.5h-2v-0.9h3v8.5h2v0.9H340.1z"/>
	<path class="svg-chaining-diagram-st1" d="M349.9,171.3c-0.3,0.5-0.7,1-1.2,1.2c-0.5,0.3-0.9,0.4-1.3,0.4c-0.5,0-1-0.2-1.5-0.7c-0.4-0.5-0.7-1.2-0.7-2.2
		c0-0.8,0.1-1.4,0.4-2c0.3-0.6,0.7-1.1,1.2-1.4s1.1-0.5,1.8-0.5c0.2,0,0.5,0,0.9,0.1c0.1,0,0.2,0,0.3,0v-2.9h1.1v9.5h-1.1V171.3z
		 M349.9,170v-2.8c-0.4-0.1-0.7-0.2-1.1-0.2c-0.7,0-1.2,0.3-1.7,0.8c-0.4,0.5-0.7,1.2-0.7,2.1c0,0.6,0.1,1.1,0.4,1.5
		c0.2,0.3,0.5,0.5,0.8,0.5c0.3,0,0.7-0.2,1.1-0.5C349.2,171,349.6,170.6,349.9,170z"/>
	<path class="svg-chaining-diagram-st1" d="M355.4,173c-0.2,0-0.4-0.1-0.6-0.2s-0.2-0.4-0.2-0.6s0.1-0.4,0.2-0.6s0.4-0.2,0.6-0.2c0.2,0,0.4,0.1,0.6,0.2
		s0.2,0.4,0.2,0.6s-0.1,0.4-0.3,0.6S355.7,173,355.4,173z M354.9,170.2l-0.3-6.5h1.5l-0.3,6.5H354.9z"/>
	<path class="svg-chaining-diagram-st1" d="M359.8,167.4v-0.7c0.3-0.1,0.5-0.2,0.6-0.3c0.1-0.1,0.3-0.3,0.4-0.5c0.1-0.2,0.1-0.5,0.1-0.8
		c-0.4,0-0.6-0.1-0.8-0.3s-0.3-0.4-0.3-0.7c0-0.3,0.1-0.5,0.3-0.7s0.4-0.3,0.7-0.3c0.3,0,0.6,0.1,0.8,0.4c0.2,0.3,0.4,0.7,0.4,1.2
		c0,0.4-0.1,0.8-0.3,1.2c-0.2,0.4-0.4,0.7-0.8,1S360.3,167.3,359.8,167.4z M362.7,167.4v-0.7c0.3-0.1,0.5-0.2,0.6-0.3
		c0.1-0.1,0.3-0.3,0.4-0.5c0.1-0.2,0.1-0.5,0.1-0.8c-0.4,0-0.6-0.1-0.8-0.3s-0.3-0.4-0.3-0.7c0-0.3,0.1-0.5,0.3-0.7s0.4-0.3,0.7-0.3
		c0.3,0,0.6,0.1,0.9,0.4c0.2,0.3,0.4,0.7,0.4,1.2c0,0.4-0.1,0.8-0.3,1.2c-0.2,0.4-0.4,0.7-0.8,1S363.2,167.3,362.7,167.4z"/>
	<path class="svg-chaining-diagram-st1" d="M377.2,169c-0.4-0.2-0.6-0.4-0.8-0.6s-0.3-0.4-0.4-0.6s-0.1-0.4-0.1-0.7c0-0.2,0-0.5,0.1-0.9l0.1-0.7
		c0.1-0.4,0.1-0.6,0.1-0.8c0-0.2-0.1-0.4-0.3-0.6c-0.2-0.2-0.6-0.2-1.1-0.2h-0.9v-0.9h0.9c1.1,0,1.8,0.2,2.1,0.5s0.5,0.7,0.5,1.2
		c0,0.2,0,0.5-0.1,0.8l-0.1,0.5l-0.1,0.5l-0.1,0.3c0,0.1,0,0.3,0,0.4c0,0.4,0.1,0.7,0.4,0.9s0.7,0.4,1.3,0.4h0.5v0.9h-0.5
		c-0.6,0-1,0.1-1.3,0.4s-0.4,0.6-0.4,1c0,0.1,0,0.3,0,0.4l0.1,0.3l0.1,0.5l0.1,0.5c0.1,0.3,0.1,0.5,0.1,0.8c0,0.4-0.2,0.8-0.5,1.2
		s-1,0.5-2.1,0.5h-0.9V174h0.9c0.6,0,1-0.1,1.1-0.2s0.3-0.4,0.3-0.6c0-0.2,0-0.4-0.1-0.8l-0.1-0.7c-0.1-0.4-0.1-0.7-0.1-0.9
		c0-0.2,0-0.5,0.1-0.7s0.2-0.4,0.4-0.6S376.8,169.2,377.2,169z"/>
</g>
<circle class="svg-chaining-diagram-st2" cx="189.2" cy="47.4" r="5"/>
<circle class="svg-chaining-diagram-st2" cx="585.6" cy="47.4" r="5"/>
<circle class="svg-chaining-diagram-st2" cx="862.7" cy="72.3" r="5"/>
<circle class="svg-chaining-diagram-st2" cx="396.2" cy="151.6" r="5"/>
<path class="svg-chaining-diagram-st2" d="M817.7,154.4H396.7v-5h421.1c23.4,0,42.4-19,42.4-42.4V72.3h5v34.6C865.2,133.1,843.9,154.4,817.7,154.4z"/>
<path class="svg-chaining-diagram-st2" d="M405.6,48.4l-15.2,8.4c-1.5,0.8-3.3-0.3-3.3-2V40.1c0-1.7,1.8-2.8,3.3-2l15.2,8.4
	C406.4,46.9,406.4,48,405.6,48.4z"/>
<path class="svg-chaining-diagram-st2" d="M774.5,48.4l-15.2,8.4c-1.5,0.8-3.3-0.3-3.3-2V40.1c0-1.7,1.8-2.8,3.3-2l15.2,8.4
	C775.3,46.9,775.3,48,774.5,48.4z"/>
<path class="svg-chaining-diagram-st2" d="M481.9,150.9l15.2-8.4c1.5-0.8,3.3,0.3,3.3,2v14.8c0,1.7-1.8,2.8-3.3,2l-15.2-8.4
	C481.1,152.4,481.1,151.3,481.9,150.9z"/>
<path class="svg-chaining-diagram-st2" d="M502.6,150.9l15.2-8.4c1.5-0.8,3.3,0.3,3.3,2v14.8c0,1.7-1.8,2.8-3.3,2l-15.2-8.4
	C501.9,152.4,501.9,151.3,502.6,150.9z"/>
<path class="svg-chaining-diagram-st2" d="M462.8,150.9l15.2-8.4c1.5-0.8,3.3,0.3,3.3,2v14.8c0,1.7-1.8,2.8-3.3,2l-15.2-8.4
	C462,152.4,462,151.3,462.8,150.9z"/>
<path class="svg-chaining-diagram-st2" d="M180.2,150.9l15.2-8.4c1.5-0.8,3.3,0.3,3.3,2v14.8c0,1.7-1.8,2.8-3.3,2l-15.2-8.4
	C179.4,152.4,179.4,151.3,180.2,150.9z"/>
</svg>
