<?xml version="1.0" encoding="utf-8"?>
<!-- Generator: Adobe Illustrator 21.1.0, SVG Export Plug-In . SVG Version: 6.00 Build 0)  -->
<svg version="1.1" id="Layer_1" xmlns="http://www.w3.org/2000/svg" xmlns:xlink="http://www.w3.org/1999/xlink" x="0px" y="0px"
	 viewBox="0 0 954.7 187.6" style="enable-background:new 0 0 954.7 187.6;" xml:space="preserve">
<style type="text/css">
	.area0{fill:#E8EBEF;}
	.area1{fill:#72849D;}
	.area2{fill:#397EFF;}
	.area3{fill:#FFFFFF;}
</style>
<path class="area0" d="M189.2,163.4V59.6c0-4.6,0.2-8.8-0.4-13.4v0c-0.6-5-4.6-9-9.6-9.6l0,0c-4.5-0.6-9.1-0.3-13.6-0.4l-142.1,0
	c-4.6,0-8.8-0.2-13.4,0.4h0c-5,0.6-9,4.6-9.6,9.6l0,0C-0.2,50.7,0,55,0,59.6l0,103.9c0,4.6-0.2,9.1,0.4,13.6v0c0.6,5,4.6,9,9.6,9.6
	h0c4.5,0.6,8.8,0.3,13.4,0.4l142.1,0c4.6,0,9.1,0.2,13.6-0.4h0c5-0.6,9-4.6,9.6-9.6l0,0C189.3,172.5,189.1,168,189.2,163.4z"/>
<path class="area0" d="M584.2,163.4V59.6c0-4.6,0.2-8.8-0.4-13.4v0c-0.6-5-4.6-9-9.6-9.6v0c-4.5-0.6-9.1-0.3-13.6-0.4l-142.1,0
	c-4.6,0-8.8-0.2-13.4,0.4l0,0c-5,0.6-9,4.6-9.6,9.6l0,0c-0.6,4.5-0.3,8.8-0.4,13.4v103.9c0,4.6-0.2,9.1,0.4,13.6v0
	c0.6,5,4.6,9,9.6,9.6h0c4.5,0.6,8.8,0.3,13.4,0.4l142.1,0c4.6,0,9.1,0.2,13.6-0.4l0,0c5-0.6,9-4.6,9.6-9.6v0
	C584.4,172.5,584.2,168,584.2,163.4z"/>
<path class="area0" d="M954.7,163.4V59.6c0-4.6,0.2-8.8-0.4-13.4v0c-0.6-5-4.6-9-9.6-9.6v0c-4.5-0.6-9.1-0.3-13.6-0.4l-142.1,0
	c-4.6,0-8.8-0.2-13.4,0.4l0,0c-5,0.6-9,4.6-9.6,9.6v0c-0.6,4.5-0.3,8.8-0.4,13.4v103.9c0,4.6-0.2,9.1,0.4,13.6v0
	c0.6,5,4.6,9,9.6,9.6l0,0c4.5,0.6,8.8,0.3,13.4,0.4l142.1,0c4.6,0,9.1,0.2,13.6-0.4l0,0c5-0.6,9-4.6,9.6-9.6v0
	C954.9,172.5,954.6,168,954.7,163.4z"/>
<g>
	<path class="area1" d="M74.7,13.7c0.9-0.9,2.1-1.4,3.5-1.4c1.9,0,3.3,0.6,4.2,1.9c0.5,0.7,0.8,1.4,0.8,2.1h-2.4
		c-0.2-0.6-0.3-1-0.6-1.2c-0.4-0.5-1.1-0.8-1.9-0.8c-0.9,0-1.5,0.4-2,1.1c-0.5,0.7-0.7,1.7-0.7,3c0,1.3,0.3,2.3,0.8,2.9
		c0.5,0.6,1.2,1,2,1c0.8,0,1.5-0.3,1.9-0.8c0.2-0.3,0.4-0.7,0.6-1.3h2.4c-0.2,1.3-0.7,2.3-1.6,3.1c-0.8,0.8-1.9,1.2-3.3,1.2
		c-1.6,0-2.9-0.5-3.9-1.6c-0.9-1.1-1.4-2.5-1.4-4.4C73.1,16.3,73.6,14.8,74.7,13.7z"/>
	<path class="area1" d="M87.2,24H85V12.5h2.2V24z"/>
	<path class="area1" d="M91.7,14.5h-2.3v-2.1h2.3V14.5z M89.4,15.5h2.3V24h-2.3V15.5z"/>
	<path class="area1" d="M99.4,15.6c0.6,0.3,1.1,0.7,1.5,1.3c0.3,0.5,0.6,1.1,0.7,1.8c0.1,0.4,0.1,1,0.1,1.7h-6.2
		c0,0.9,0.3,1.5,0.9,1.8c0.3,0.2,0.7,0.3,1.2,0.3c0.5,0,0.9-0.1,1.2-0.4c0.2-0.1,0.3-0.3,0.5-0.6h2.3c-0.1,0.5-0.3,1-0.8,1.5
		c-0.8,0.8-1.8,1.2-3.2,1.2c-1.1,0-2.1-0.3-3-1s-1.3-1.8-1.3-3.4c0-1.5,0.4-2.6,1.2-3.4c0.8-0.8,1.8-1.2,3-1.2
		C98.1,15.2,98.8,15.4,99.4,15.6z M96.1,17.6c-0.3,0.3-0.5,0.8-0.6,1.3h3.8c0-0.6-0.2-1-0.6-1.3c-0.4-0.3-0.8-0.5-1.3-0.5
		C96.8,17.1,96.4,17.2,96.1,17.6z"/>
	<path class="area1" d="M109.6,16c0.6,0.5,0.8,1.2,0.8,2.3V24h-2.3v-5.2c0-0.4-0.1-0.8-0.2-1c-0.2-0.4-0.6-0.7-1.2-0.7
		c-0.8,0-1.3,0.3-1.5,1c-0.1,0.3-0.2,0.8-0.2,1.3V24h-2.2v-8.5h2.2v1.2c0.3-0.4,0.6-0.8,0.8-0.9c0.5-0.3,1-0.5,1.7-0.5
		C108.3,15.3,109.1,15.5,109.6,16z"/>
	<path class="area1" d="M111.6,17.1v-1.6h1.2v-2.4h2.2v2.4h1.4v1.6H115v4.5c0,0.3,0,0.6,0.1,0.7s0.4,0.1,0.8,0.1c0.1,0,0.1,0,0.2,0
		s0.1,0,0.2,0v1.7l-1.1,0c-1.1,0-1.8-0.1-2.2-0.5c-0.2-0.3-0.4-0.6-0.4-1.2v-5.2H111.6z"/>
</g>
<path class="area2" d="M765.5,68v-5H554.2v-2.9c0-2.4,0.1-4.6-0.2-6.9v0c-0.3-2.6-2.4-4.7-5-5h0c-2.3-0.3-4.7-0.2-7.1-0.2H440.4
	c-2.4,0-4.6-0.1-6.9,0.2h0c-2.6,0.3-4.7,2.4-5,5v0c-0.3,2.3-0.2,4.6-0.2,6.9v10.1c0,2.4-0.1,4.7,0.2,7.1c0.3,2.6,2.4,4.7,5,5h0
	c2.3,0.3,4.6,0.2,6.9,0.2h101.5c2.4,0,4.7,0.1,7.1-0.2h0c2.6-0.3,4.7-2.4,5-5c0.3-2.3,0.2-4.7,0.2-7.1V68H765.5z"/>
<path class="area3" d="M453.1,62.3c-0.2-0.8-0.6-1.3-1.3-1.6c-0.4-0.2-0.8-0.3-1.3-0.3c-0.9,0-1.7,0.3-2.3,1s-0.9,1.8-0.9,3.2
	c0,1.4,0.3,2.4,1,3c0.6,0.6,1.4,0.9,2.2,0.9c0.8,0,1.5-0.2,2-0.7c0.5-0.5,0.8-1.1,1-1.8h-2.7v-1.9h4.8v6.2h-1.6l-0.2-1.4
	c-0.5,0.5-0.9,0.9-1.2,1.2c-0.6,0.4-1.4,0.6-2.3,0.6c-1.5,0-2.8-0.5-3.8-1.6c-1-1.1-1.5-2.5-1.5-4.4c0-1.9,0.5-3.4,1.5-4.5
	c1-1.1,2.4-1.7,4.1-1.7c1.5,0,2.6,0.4,3.5,1.1s1.4,1.7,1.5,2.8H453.1z"/>
<path class="area3" d="M466.3,60.8h-6.1v2.4h5.6v2h-5.6v3h6.4v2.1h-8.7V58.7h8.4V60.8z"/>
<path class="area3" d="M476.9,58.7v2h-3.4v9.5H471v-9.5h-3.5v-2H476.9z"/>
<path class="area2" d="M405.6,64.5l-15.2-8.4c-1.5-0.8-3.3,0.3-3.3,2V63H157.5v-2.9c0-2.4,0.1-4.6-0.2-6.9v0c-0.3-2.6-2.4-4.7-5-5
	c-2.3-0.3-4.7-0.2-7.1-0.2H43.8c-2.4,0-4.6-0.1-6.9,0.2c-2.6,0.3-4.7,2.4-5,5v0c-0.3,2.3-0.2,4.6-0.2,6.9v10.1
	c0,2.4-0.1,4.7,0.2,7.1c0.3,2.6,2.4,4.7,5,5c2.3,0.3,4.6,0.2,6.9,0.2h101.5c2.4,0,4.7,0.1,7.1-0.2c2.6-0.3,4.7-2.4,5-5
	c0.3-2.3,0.2-4.7,0.2-7.1V68h229.6v4.9c0,1.7,1.8,2.8,3.3,2l15.2-8.4C406.4,66.1,406.4,64.9,405.6,64.5z"/>
<g>
	<path class="area3" d="M490,70.7h-1.3l6.7-11.2h1.2L490,70.7z"/>
	<path class="area3" d="M498,70.4v-11h1.3v5.1c0.4-0.6,0.8-1,1.3-1.4s1-0.5,1.5-0.5c0.4,0,0.8,0.1,1.2,0.3c0.4,0.2,0.6,0.5,0.7,0.8
		c0.1,0.2,0.2,0.5,0.2,0.8s0.1,0.8,0.1,1.7v4.3h-1.3v-4.4c0-0.7,0-1.2-0.1-1.5c-0.1-0.2-0.2-0.4-0.4-0.6c-0.2-0.2-0.4-0.2-0.6-0.2
		c-0.4,0-0.9,0.2-1.4,0.6c-0.5,0.4-0.9,1-1.3,1.6v4.5H498z"/>
	<path class="area3" d="M512.7,69.9c-1,0.5-2,0.7-2.9,0.7c-0.7,0-1.3-0.2-1.8-0.5c-0.5-0.3-1-0.8-1.3-1.5c-0.3-0.6-0.5-1.3-0.5-2
		c0-0.7,0.2-1.4,0.5-2c0.3-0.6,0.7-1.1,1.3-1.5s1.2-0.5,1.9-0.5c0.9,0,1.6,0.3,2.2,1c0.5,0.6,0.8,1.6,0.8,3v0.3h-5.3
		c0,0.5,0.1,1,0.3,1.5c0.2,0.4,0.5,0.8,0.9,1c0.4,0.2,0.8,0.3,1.2,0.3c0.8,0,1.7-0.3,2.7-0.8V69.9z M507.6,65.8h3.8v-0.2
		c0-0.6-0.2-1.1-0.5-1.5c-0.3-0.4-0.7-0.6-1.2-0.6c-0.5,0-1,0.2-1.3,0.6C508,64.5,507.8,65.1,507.6,65.8z"/>
	<path class="area3" d="M516.8,70.4v-10h-2.3v-1.1h3.6v10h2.4v1.1H516.8z"/>
	<path class="area3" d="M525.2,70.4v-10h-2.3v-1.1h3.6v10h2.4v1.1H525.2z"/>
	<path class="area3" d="M534.7,70.6c-1.1,0-2-0.4-2.6-1.1c-0.7-0.8-1-1.7-1-2.9s0.3-2.1,1-2.9c0.7-0.8,1.5-1.1,2.6-1.1
		c1.1,0,2,0.4,2.6,1.1c0.7,0.8,1,1.7,1,2.9s-0.3,2.1-1,2.9C536.7,70.2,535.8,70.6,534.7,70.6z M534.7,69.5c0.7,0,1.2-0.3,1.6-0.8
		s0.6-1.3,0.6-2.2c0-0.9-0.2-1.6-0.6-2.2c-0.4-0.5-0.9-0.8-1.6-0.8c-0.7,0-1.2,0.3-1.6,0.8c-0.4,0.5-0.6,1.3-0.6,2.2
		c0,0.9,0.2,1.7,0.6,2.2S534,69.5,534.7,69.5z"/>
</g>
<g>
	<path class="area3" d="M56.5,62.3c-0.2-0.8-0.6-1.3-1.3-1.6c-0.4-0.2-0.8-0.3-1.3-0.3c-0.9,0-1.7,0.3-2.3,1s-0.9,1.8-0.9,3.2
		c0,1.4,0.3,2.4,1,3c0.6,0.6,1.4,0.9,2.2,0.9c0.8,0,1.5-0.2,2-0.7c0.5-0.5,0.8-1.1,1-1.8h-2.7v-1.9h4.8v6.2h-1.6L57,68.8
		c-0.5,0.5-0.9,0.9-1.2,1.2c-0.6,0.4-1.4,0.6-2.3,0.6c-1.5,0-2.8-0.5-3.8-1.6c-1-1.1-1.5-2.5-1.5-4.4c0-1.9,0.5-3.4,1.5-4.5
		c1-1.1,2.4-1.7,4.1-1.7c1.5,0,2.6,0.4,3.5,1.1s1.4,1.7,1.5,2.8H56.5z"/>
	<path class="area3" d="M69.7,60.8h-6.1v2.4h5.6v2h-5.6v3H70v2.1h-8.7V58.7h8.4V60.8z"/>
	<path class="area3" d="M80.2,58.7v2h-3.4v9.5h-2.4v-9.5h-3.5v-2H80.2z"/>
</g>
<g>
	<path class="area3" d="M93.3,70.7h-1.3l6.7-11.2h1.2L93.3,70.7z"/>
	<path class="area3" d="M101.3,70.4v-11h1.3v5.1c0.4-0.6,0.8-1,1.3-1.4s1-0.5,1.5-0.5c0.4,0,0.8,0.1,1.2,0.3c0.4,0.2,0.6,0.5,0.7,0.8
		c0.1,0.2,0.2,0.5,0.2,0.8s0.1,0.8,0.1,1.7v4.3h-1.3v-4.4c0-0.7,0-1.2-0.1-1.5c-0.1-0.2-0.2-0.4-0.4-0.6c-0.2-0.2-0.4-0.2-0.6-0.2
		c-0.4,0-0.9,0.2-1.4,0.6c-0.5,0.4-0.9,1-1.3,1.6v4.5H101.3z"/>
	<path class="area3" d="M116.1,69.9c-1,0.5-2,0.7-2.9,0.7c-0.7,0-1.3-0.2-1.8-0.5c-0.5-0.3-1-0.8-1.3-1.5c-0.3-0.6-0.5-1.3-0.5-2
		c0-0.7,0.2-1.4,0.5-2c0.3-0.6,0.7-1.1,1.3-1.5s1.2-0.5,1.9-0.5c0.9,0,1.6,0.3,2.2,1c0.5,0.6,0.8,1.6,0.8,3v0.3h-5.3
		c0,0.5,0.1,1,0.3,1.5c0.2,0.4,0.5,0.8,0.9,1c0.4,0.2,0.8,0.3,1.2,0.3c0.8,0,1.7-0.3,2.7-0.8V69.9z M111,65.8h3.8v-0.2
		c0-0.6-0.2-1.1-0.5-1.5c-0.3-0.4-0.7-0.6-1.2-0.6c-0.5,0-1,0.2-1.3,0.6C111.4,64.5,111.1,65.1,111,65.8z"/>
	<path class="area3" d="M120.2,70.4v-10h-2.3v-1.1h3.6v10h2.4v1.1H120.2z"/>
	<path class="area3" d="M128.6,70.4v-10h-2.3v-1.1h3.6v10h2.4v1.1H128.6z"/>
	<path class="area3" d="M138.1,70.6c-1.1,0-2-0.4-2.6-1.1c-0.7-0.8-1-1.7-1-2.9s0.3-2.1,1-2.9c0.7-0.8,1.5-1.1,2.6-1.1
		c1.1,0,2,0.4,2.6,1.1c0.7,0.8,1,1.7,1,2.9s-0.3,2.1-1,2.9C140,70.2,139.1,70.6,138.1,70.6z M138.1,69.5c0.7,0,1.2-0.3,1.6-0.8
		s0.6-1.3,0.6-2.2c0-0.9-0.2-1.6-0.6-2.2c-0.4-0.5-0.9-0.8-1.6-0.8c-0.7,0-1.2,0.3-1.6,0.8c-0.4,0.5-0.6,1.3-0.6,2.2
		c0,0.9,0.2,1.7,0.6,2.2S137.4,69.5,138.1,69.5z"/>
</g>
<g>
	<path class="area1" d="M836.4,72.5h-1.3l6.7-11.2h1.2L836.4,72.5z"/>
	<path class="area1" d="M844.4,72.1v-11h1.3v5.1c0.4-0.6,0.8-1,1.3-1.4s1-0.5,1.5-0.5c0.4,0,0.8,0.1,1.2,0.3c0.4,0.2,0.6,0.5,0.7,0.8
		c0.1,0.2,0.2,0.5,0.2,0.8s0.1,0.8,0.1,1.7v4.3h-1.3v-4.4c0-0.7,0-1.2-0.1-1.5c-0.1-0.2-0.2-0.4-0.4-0.6c-0.2-0.2-0.4-0.2-0.6-0.2
		c-0.4,0-0.9,0.2-1.4,0.6c-0.5,0.4-0.9,1-1.3,1.6v4.5H844.4z"/>
	<path class="area1" d="M859.1,71.6c-1,0.5-2,0.7-2.9,0.7c-0.7,0-1.3-0.2-1.8-0.5c-0.5-0.3-1-0.8-1.3-1.5c-0.3-0.6-0.5-1.3-0.5-2
		c0-0.7,0.2-1.4,0.5-2c0.3-0.6,0.7-1.1,1.3-1.5s1.2-0.5,1.9-0.5c0.9,0,1.6,0.3,2.2,1c0.5,0.6,0.8,1.6,0.8,3v0.3H854
		c0,0.5,0.1,1,0.3,1.5c0.2,0.4,0.5,0.8,0.9,1c0.4,0.2,0.8,0.3,1.2,0.3c0.8,0,1.7-0.3,2.7-0.8V71.6z M854,67.6h3.8v-0.2
		c0-0.6-0.2-1.1-0.5-1.5c-0.3-0.4-0.7-0.6-1.2-0.6c-0.5,0-1,0.2-1.3,0.6C854.4,66.3,854.2,66.8,854,67.6z"/>
	<path class="area1" d="M863.2,72.1v-10h-2.3v-1.1h3.6v10h2.4v1.1H863.2z"/>
	<path class="area1" d="M871.6,72.1v-10h-2.3v-1.1h3.6v10h2.4v1.1H871.6z"/>
	<path class="area1" d="M881.1,72.3c-1.1,0-2-0.4-2.6-1.1c-0.7-0.8-1-1.7-1-2.9s0.3-2.1,1-2.9s1.5-1.1,2.6-1.1c1.1,0,2,0.4,2.6,1.1
		s1,1.7,1,2.9s-0.3,2.1-1,2.9C883.1,72,882.2,72.3,881.1,72.3z M881.1,71.3c0.7,0,1.2-0.3,1.6-0.8s0.6-1.3,0.6-2.2
		c0-0.9-0.2-1.6-0.6-2.2s-0.9-0.8-1.6-0.8c-0.7,0-1.2,0.3-1.6,0.8s-0.6,1.3-0.6,2.2c0,0.9,0.2,1.7,0.6,2.2S880.4,71.3,881.1,71.3z"
		/>
</g>
<g>
	<path class="area1" d="M427.8,19c-0.7,0.6-1.6,0.8-2.9,0.8h-2.4V24h-2.4V12.5h4.9c1.1,0,2,0.3,2.7,0.9s1,1.5,1,2.8
		C428.8,17.5,428.4,18.4,427.8,19z M425.9,14.9c-0.3-0.3-0.7-0.4-1.3-0.4h-2.2v3.4h2.2c0.5,0,1-0.1,1.3-0.4c0.3-0.3,0.5-0.7,0.5-1.3
		C426.4,15.5,426.2,15.1,425.9,14.9z"/>
	<path class="area1" d="M432.8,15.5v5.1c0,0.5,0.1,0.8,0.2,1.1c0.2,0.4,0.6,0.6,1.2,0.6c0.8,0,1.3-0.3,1.6-0.9
		c0.1-0.3,0.2-0.8,0.2-1.3v-4.6h2.3V24H436v-1.2c0,0-0.1,0.1-0.2,0.2c-0.1,0.1-0.2,0.2-0.3,0.3c-0.3,0.3-0.7,0.5-1,0.6
		c-0.3,0.1-0.7,0.2-1.1,0.2c-1.3,0-2.1-0.5-2.5-1.4c-0.2-0.5-0.4-1.2-0.4-2.2v-5.1H432.8z"/>
	<path class="area1" d="M447.6,16.5c0.6,0.8,1,1.8,1,3.1c0,1.3-0.3,2.4-0.9,3.3s-1.5,1.3-2.6,1.3c-0.7,0-1.3-0.1-1.7-0.4
		c-0.3-0.2-0.5-0.5-0.8-0.9V24h-2.2V12.5h2.2v4.1c0.3-0.4,0.6-0.7,0.9-0.9c0.4-0.3,0.9-0.4,1.5-0.4
		C446.1,15.3,446.9,15.7,447.6,16.5z M445.7,21.7c0.3-0.5,0.5-1.1,0.5-1.8c0-0.6-0.1-1.1-0.2-1.5c-0.3-0.8-0.9-1.1-1.7-1.1
		c-0.8,0-1.4,0.4-1.7,1.1c-0.2,0.4-0.2,0.9-0.2,1.5c0,0.7,0.2,1.3,0.5,1.8c0.3,0.5,0.8,0.7,1.5,0.7C445,22.4,445.4,22.1,445.7,21.7z
		"/>
	<path class="area1" d="M452.4,24h-2.2V12.5h2.2V24z"/>
	<path class="area1" d="M456.8,14.5h-2.3v-2.1h2.3V14.5z M454.6,15.5h2.3V24h-2.3V15.5z"/>
	<path class="area1" d="M464.1,18.5c0-0.3-0.1-0.6-0.3-0.9c-0.3-0.3-0.6-0.5-1.2-0.5c-0.8,0-1.3,0.4-1.5,1.1c-0.1,0.4-0.2,0.9-0.2,1.6
		c0,0.6,0.1,1.1,0.2,1.5c0.3,0.7,0.8,1.1,1.5,1.1c0.5,0,0.9-0.1,1.1-0.4s0.4-0.6,0.4-1.1h2.3c-0.1,0.7-0.3,1.3-0.7,1.9
		c-0.7,1-1.7,1.5-3.1,1.5s-2.4-0.4-3-1.2s-1-1.9-1-3.2c0-1.5,0.4-2.6,1.1-3.4c0.7-0.8,1.7-1.2,3-1.2c1.1,0,1.9,0.2,2.6,0.7
		c0.7,0.5,1.1,1.3,1.2,2.5H464.1z"/>
	<path class="area1" d="M468,24V12.5h2.4v4.4h4.5v-4.4h2.4V24h-2.4v-5.1h-4.5V24H468z"/>
	<path class="area1" d="M485,15.6c0.6,0.3,1.1,0.7,1.5,1.3c0.3,0.5,0.6,1.1,0.7,1.8c0.1,0.4,0.1,1,0.1,1.7H481c0,0.9,0.3,1.5,0.9,1.8
		c0.3,0.2,0.7,0.3,1.2,0.3c0.5,0,0.9-0.1,1.2-0.4c0.2-0.1,0.3-0.3,0.5-0.6h2.3c-0.1,0.5-0.3,1-0.8,1.5c-0.8,0.8-1.8,1.2-3.2,1.2
		c-1.1,0-2.1-0.3-3-1s-1.3-1.8-1.3-3.4c0-1.5,0.4-2.6,1.2-3.4c0.8-0.8,1.8-1.2,3-1.2C483.7,15.2,484.4,15.4,485,15.6z M481.6,17.6
		c-0.3,0.3-0.5,0.8-0.6,1.3h3.8c0-0.6-0.2-1-0.6-1.3c-0.4-0.3-0.8-0.5-1.3-0.5C482.4,17.1,482,17.2,481.6,17.6z"/>
	<path class="area1" d="M490.6,24h-2.2V12.5h2.2V24z"/>
	<path class="area1" d="M495,24h-2.2V12.5h2.2V24z"/>
	<path class="area1" d="M504.3,22.9c-0.7,0.9-1.8,1.3-3.3,1.3s-2.6-0.4-3.3-1.3c-0.7-0.9-1.1-2-1.1-3.2c0-1.2,0.4-2.3,1.1-3.2
		c0.7-0.9,1.8-1.4,3.3-1.4s2.6,0.5,3.3,1.4c0.7,0.9,1.1,2,1.1,3.2C505.4,21,505,22.1,504.3,22.9z M502.5,21.7c0.3-0.5,0.5-1.1,0.5-2
		s-0.2-1.5-0.5-2s-0.8-0.7-1.5-0.7s-1.2,0.2-1.5,0.7s-0.5,1.1-0.5,2s0.2,1.5,0.5,2s0.9,0.7,1.5,0.7S502.2,22.2,502.5,21.7z"/>
	<path class="area1" d="M508.9,20.4c0.1,0.5,0.2,0.9,0.4,1.2c0.4,0.5,1.1,0.7,2,0.7c0.6,0,1.1-0.1,1.4-0.2c0.7-0.2,1-0.7,1-1.3
		c0-0.4-0.2-0.7-0.5-0.9c-0.3-0.2-0.9-0.4-1.6-0.5l-1.2-0.3c-1.2-0.3-2.1-0.6-2.5-0.9c-0.8-0.5-1.2-1.4-1.2-2.5c0-1,0.4-1.9,1.1-2.6
		c0.8-0.7,1.9-1,3.3-1c1.2,0,2.3,0.3,3.1,1c0.9,0.6,1.3,1.6,1.4,2.8h-2.3c0-0.7-0.4-1.2-0.9-1.5c-0.4-0.2-0.9-0.3-1.4-0.3
		c-0.6,0-1.1,0.1-1.5,0.4s-0.6,0.6-0.6,1c0,0.4,0.2,0.7,0.6,0.9c0.2,0.1,0.8,0.3,1.5,0.5l2,0.5c0.9,0.2,1.5,0.5,2,0.8
		c0.7,0.5,1,1.3,1,2.4c0,1.1-0.4,1.9-1.2,2.6s-2,1-3.4,1c-1.5,0-2.7-0.3-3.6-1c-0.9-0.7-1.3-1.6-1.3-2.8H508.9z"/>
	<path class="area1" d="M523.2,15.6c0.6,0.3,1.1,0.7,1.5,1.3c0.3,0.5,0.6,1.1,0.7,1.8c0.1,0.4,0.1,1,0.1,1.7h-6.2
		c0,0.9,0.3,1.5,0.9,1.8c0.3,0.2,0.7,0.3,1.2,0.3c0.5,0,0.9-0.1,1.2-0.4c0.2-0.1,0.3-0.3,0.5-0.6h2.3c-0.1,0.5-0.3,1-0.8,1.5
		c-0.8,0.8-1.8,1.2-3.2,1.2c-1.1,0-2.1-0.3-3-1s-1.3-1.8-1.3-3.4c0-1.5,0.4-2.6,1.2-3.4c0.8-0.8,1.8-1.2,3-1.2
		C521.9,15.2,522.6,15.4,523.2,15.6z M519.9,17.6c-0.3,0.3-0.5,0.8-0.6,1.3h3.8c0-0.6-0.2-1-0.6-1.3c-0.4-0.3-0.8-0.5-1.3-0.5
		C520.6,17.1,520.2,17.2,519.9,17.6z"/>
	<path class="area1" d="M531.3,15.3c0,0,0.1,0,0.2,0v2.3c-0.1,0-0.3,0-0.4,0c-0.1,0-0.2,0-0.3,0c-0.9,0-1.5,0.3-1.8,0.9
		c-0.2,0.3-0.3,0.8-0.3,1.5V24h-2.2v-8.5h2.1V17c0.3-0.6,0.6-1,0.9-1.2c0.4-0.3,1-0.5,1.6-0.5C531.2,15.3,531.3,15.3,531.3,15.3z"/>
	<path class="area1" d="M538,15.5h2.4l-3.1,8.5H535l-3.1-8.5h2.5l1.8,6.3L538,15.5z"/>
	<path class="area1" d="M544,14.5h-2.3v-2.1h2.3V14.5z M541.7,15.5h2.3V24h-2.3V15.5z"/>
	<path class="area1" d="M551.2,18.5c0-0.3-0.1-0.6-0.3-0.9c-0.3-0.3-0.6-0.5-1.2-0.5c-0.8,0-1.3,0.4-1.5,1.1c-0.1,0.4-0.2,0.9-0.2,1.6
		c0,0.6,0.1,1.1,0.2,1.5c0.3,0.7,0.8,1.1,1.5,1.1c0.5,0,0.9-0.1,1.1-0.4s0.4-0.6,0.4-1.1h2.3c-0.1,0.7-0.3,1.3-0.7,1.9
		c-0.7,1-1.7,1.5-3.1,1.5s-2.4-0.4-3-1.2s-1-1.9-1-3.2c0-1.5,0.4-2.6,1.1-3.4c0.7-0.8,1.7-1.2,3-1.2c1.1,0,1.9,0.2,2.6,0.7
		c0.7,0.5,1.1,1.3,1.2,2.5H551.2z"/>
	<path class="area1" d="M560.6,15.6c0.6,0.3,1.1,0.7,1.5,1.3c0.3,0.5,0.6,1.1,0.7,1.8c0.1,0.4,0.1,1,0.1,1.7h-6.2
		c0,0.9,0.3,1.5,0.9,1.8c0.3,0.2,0.7,0.3,1.2,0.3c0.5,0,0.9-0.1,1.2-0.4c0.2-0.1,0.3-0.3,0.5-0.6h2.3c-0.1,0.5-0.3,1-0.8,1.5
		c-0.8,0.8-1.8,1.2-3.2,1.2c-1.1,0-2.1-0.3-3-1s-1.3-1.8-1.3-3.4c0-1.5,0.4-2.6,1.2-3.4c0.8-0.8,1.8-1.2,3-1.2
		C559.3,15.2,560,15.4,560.6,15.6z M557.2,17.6c-0.3,0.3-0.5,0.8-0.6,1.3h3.8c0-0.6-0.2-1-0.6-1.3c-0.4-0.3-0.8-0.5-1.3-0.5
		C558,17.1,557.6,17.2,557.2,17.6z"/>
</g>
<g>
	<path class="area1" d="M794.3,19c-0.7,0.6-1.6,0.8-2.9,0.8h-2.4V24h-2.4V12.5h4.9c1.1,0,2,0.3,2.7,0.9s1,1.5,1,2.8
		C795.3,17.5,795,18.4,794.3,19z M792.5,14.9c-0.3-0.3-0.7-0.4-1.3-0.4h-2.2v3.4h2.2c0.5,0,1-0.1,1.3-0.4c0.3-0.3,0.5-0.7,0.5-1.3
		C793,15.5,792.8,15.1,792.5,14.9z"/>
	<path class="area1" d="M801.8,15.3c0,0,0.1,0,0.2,0v2.3c-0.1,0-0.3,0-0.4,0c-0.1,0-0.2,0-0.3,0c-0.9,0-1.5,0.3-1.8,0.9
		c-0.2,0.3-0.3,0.8-0.3,1.5V24h-2.2v-8.5h2.1V17c0.3-0.6,0.6-1,0.9-1.2c0.4-0.3,1-0.5,1.6-0.5C801.8,15.3,801.8,15.3,801.8,15.3z"/>
	<path class="area1" d="M805.6,14.5h-2.3v-2.1h2.3V14.5z M803.4,15.5h2.3V24h-2.3V15.5z"/>
	<path class="area1" d="M813,15.5h2.4l-3.1,8.5H810l-3.1-8.5h2.5l1.8,6.3L813,15.5z"/>
	<path class="area1" d="M820,18.8c0.4-0.1,0.7-0.1,0.9-0.2c0.3-0.1,0.5-0.3,0.5-0.6c0-0.3-0.1-0.6-0.4-0.7s-0.6-0.2-1.1-0.2
		c-0.5,0-0.9,0.1-1.1,0.4c-0.2,0.2-0.3,0.5-0.3,0.8h-2.1c0-0.7,0.3-1.4,0.6-1.8c0.6-0.7,1.6-1.1,3-1.1c0.9,0,1.8,0.2,2.5,0.6
		c0.7,0.4,1.1,1.1,1.1,2.1v3.9c0,0.3,0,0.6,0,1c0,0.3,0.1,0.5,0.1,0.6s0.2,0.2,0.3,0.3V24h-2.4c-0.1-0.2-0.1-0.3-0.1-0.5
		s0-0.3-0.1-0.5c-0.3,0.3-0.7,0.6-1.1,0.9c-0.5,0.3-1,0.4-1.6,0.4c-0.8,0-1.4-0.2-1.9-0.7c-0.5-0.4-0.8-1.1-0.8-1.9
		c0-1,0.4-1.8,1.2-2.3c0.4-0.3,1.1-0.4,2-0.5L820,18.8z M821.4,19.8c-0.1,0.1-0.3,0.2-0.4,0.2c-0.1,0.1-0.3,0.1-0.6,0.2l-0.5,0.1
		c-0.5,0.1-0.8,0.2-1,0.3c-0.4,0.2-0.5,0.5-0.5,0.9c0,0.4,0.1,0.7,0.3,0.8s0.5,0.3,0.8,0.3c0.5,0,0.9-0.1,1.3-0.4s0.6-0.8,0.6-1.5
		V19.8z"/>
	<path class="area1" d="M824.7,17.1v-1.6h1.2v-2.4h2.2v2.4h1.4v1.6h-1.4v4.5c0,0.3,0,0.6,0.1,0.7s0.4,0.1,0.8,0.1c0.1,0,0.1,0,0.2,0
		s0.1,0,0.2,0v1.7l-1.1,0c-1.1,0-1.8-0.1-2.2-0.5c-0.2-0.3-0.4-0.6-0.4-1.2v-5.2H824.7z"/>
	<path class="area1" d="M836.4,15.6c0.6,0.3,1.1,0.7,1.5,1.3c0.3,0.5,0.6,1.1,0.7,1.8c0.1,0.4,0.1,1,0.1,1.7h-6.2
		c0,0.9,0.3,1.5,0.9,1.8c0.3,0.2,0.7,0.3,1.2,0.3c0.5,0,0.9-0.1,1.2-0.4c0.2-0.1,0.3-0.3,0.5-0.6h2.3c-0.1,0.5-0.3,1-0.8,1.5
		c-0.8,0.8-1.8,1.2-3.2,1.2c-1.1,0-2.1-0.3-3-1s-1.3-1.8-1.3-3.4c0-1.5,0.4-2.6,1.2-3.4c0.8-0.8,1.8-1.2,3-1.2
		C835.2,15.2,835.9,15.4,836.4,15.6z M833.1,17.6c-0.3,0.3-0.5,0.8-0.6,1.3h3.8c0-0.6-0.2-1-0.6-1.3c-0.4-0.3-0.8-0.5-1.3-0.5
		C833.9,17.1,833.4,17.2,833.1,17.6z"/>
	<path class="area1" d="M840,24V12.5h2.4v4.4h4.5v-4.4h2.4V24h-2.4v-5.1h-4.5V24H840z"/>
	<path class="area1" d="M856.9,15.6c0.6,0.3,1.1,0.7,1.5,1.3c0.3,0.5,0.6,1.1,0.7,1.8c0.1,0.4,0.1,1,0.1,1.7h-6.2
		c0,0.9,0.3,1.5,0.9,1.8c0.3,0.2,0.7,0.3,1.2,0.3c0.5,0,0.9-0.1,1.2-0.4c0.2-0.1,0.3-0.3,0.5-0.6h2.3c-0.1,0.5-0.3,1-0.8,1.5
		c-0.8,0.8-1.8,1.2-3.2,1.2c-1.1,0-2.1-0.3-3-1s-1.3-1.8-1.3-3.4c0-1.5,0.4-2.6,1.2-3.4c0.8-0.8,1.8-1.2,3-1.2
		C855.6,15.2,856.3,15.4,856.9,15.6z M853.6,17.6c-0.3,0.3-0.5,0.8-0.6,1.3h3.8c0-0.6-0.2-1-0.6-1.3c-0.4-0.3-0.8-0.5-1.3-0.5
		C854.3,17.1,853.9,17.2,853.6,17.6z"/>
	<path class="area1" d="M862.5,24h-2.2V12.5h2.2V24z"/>
	<path class="area1" d="M867,24h-2.2V12.5h2.2V24z"/>
	<path class="area1" d="M876.2,22.9c-0.7,0.9-1.8,1.3-3.3,1.3s-2.6-0.4-3.3-1.3c-0.7-0.9-1.1-2-1.1-3.2c0-1.2,0.4-2.3,1.1-3.2
		c0.7-0.9,1.8-1.4,3.3-1.4s2.6,0.5,3.3,1.4c0.7,0.9,1.1,2,1.1,3.2C877.3,21,877,22.1,876.2,22.9z M874.5,21.7c0.3-0.5,0.5-1.1,0.5-2
		s-0.2-1.5-0.5-2s-0.8-0.7-1.5-0.7s-1.2,0.2-1.5,0.7s-0.5,1.1-0.5,2s0.2,1.5,0.5,2s0.9,0.7,1.5,0.7S874.1,22.2,874.5,21.7z"/>
	<path class="area1" d="M880.8,20.4c0.1,0.5,0.2,0.9,0.4,1.2c0.4,0.5,1.1,0.7,2,0.7c0.6,0,1.1-0.1,1.4-0.2c0.7-0.2,1-0.7,1-1.3
		c0-0.4-0.2-0.7-0.5-0.9c-0.3-0.2-0.9-0.4-1.6-0.5l-1.2-0.3c-1.2-0.3-2.1-0.6-2.5-0.9c-0.8-0.5-1.2-1.4-1.2-2.5c0-1,0.4-1.9,1.1-2.6
		c0.8-0.7,1.9-1,3.3-1c1.2,0,2.3,0.3,3.1,1c0.9,0.6,1.3,1.6,1.4,2.8h-2.3c0-0.7-0.4-1.2-0.9-1.5c-0.4-0.2-0.9-0.3-1.4-0.3
		c-0.6,0-1.1,0.1-1.5,0.4s-0.6,0.6-0.6,1c0,0.4,0.2,0.7,0.6,0.9c0.2,0.1,0.8,0.3,1.5,0.5l2,0.5c0.9,0.2,1.5,0.5,2,0.8
		c0.7,0.5,1,1.3,1,2.4c0,1.1-0.4,1.9-1.2,2.6s-2,1-3.4,1c-1.5,0-2.7-0.3-3.6-1c-0.9-0.7-1.3-1.6-1.3-2.8H880.8z"/>
	<path class="area1" d="M895.1,15.6c0.6,0.3,1.1,0.7,1.5,1.3c0.3,0.5,0.6,1.1,0.7,1.8c0.1,0.4,0.1,1,0.1,1.7h-6.2
		c0,0.9,0.3,1.5,0.9,1.8c0.3,0.2,0.7,0.3,1.2,0.3c0.5,0,0.9-0.1,1.2-0.4c0.2-0.1,0.3-0.3,0.5-0.6h2.3c-0.1,0.5-0.3,1-0.8,1.5
		c-0.8,0.8-1.8,1.2-3.2,1.2c-1.1,0-2.1-0.3-3-1s-1.3-1.8-1.3-3.4c0-1.5,0.4-2.6,1.2-3.4c0.8-0.8,1.8-1.2,3-1.2
		C893.9,15.2,894.5,15.4,895.1,15.6z M891.8,17.6c-0.3,0.3-0.5,0.8-0.6,1.3h3.8c0-0.6-0.2-1-0.6-1.3c-0.4-0.3-0.8-0.5-1.3-0.5
		C892.6,17.1,892.1,17.2,891.8,17.6z"/>
	<path class="area1" d="M903.2,15.3c0,0,0.1,0,0.2,0v2.3c-0.1,0-0.3,0-0.4,0c-0.1,0-0.2,0-0.3,0c-0.9,0-1.5,0.3-1.8,0.9
		c-0.2,0.3-0.3,0.8-0.3,1.5V24h-2.2v-8.5h2.1V17c0.3-0.6,0.6-1,0.9-1.2c0.4-0.3,1-0.5,1.6-0.5C903.1,15.3,903.2,15.3,903.2,15.3z"/>
	<path class="area1" d="M910,15.5h2.4l-3.1,8.5h-2.3l-3.1-8.5h2.5l1.8,6.3L910,15.5z"/>
	<path class="area1" d="M915.9,14.5h-2.3v-2.1h2.3V14.5z M913.6,15.5h2.3V24h-2.3V15.5z"/>
	<path class="area1" d="M923.1,18.5c0-0.3-0.1-0.6-0.3-0.9c-0.3-0.3-0.6-0.5-1.2-0.5c-0.8,0-1.3,0.4-1.5,1.1c-0.1,0.4-0.2,0.9-0.2,1.6
		c0,0.6,0.1,1.1,0.2,1.5c0.3,0.7,0.8,1.1,1.5,1.1c0.5,0,0.9-0.1,1.1-0.4s0.4-0.6,0.4-1.1h2.3c-0.1,0.7-0.3,1.3-0.7,1.9
		c-0.7,1-1.7,1.5-3.1,1.5s-2.4-0.4-3-1.2s-1-1.9-1-3.2c0-1.5,0.4-2.6,1.1-3.4c0.7-0.8,1.7-1.2,3-1.2c1.1,0,1.9,0.2,2.6,0.7
		c0.7,0.5,1.1,1.3,1.2,2.5H923.1z"/>
	<path class="area1" d="M932.5,15.6c0.6,0.3,1.1,0.7,1.5,1.3c0.3,0.5,0.6,1.1,0.7,1.8c0.1,0.4,0.1,1,0.1,1.7h-6.2
		c0,0.9,0.3,1.5,0.9,1.8c0.3,0.2,0.7,0.3,1.2,0.3c0.5,0,0.9-0.1,1.2-0.4c0.2-0.1,0.3-0.3,0.5-0.6h2.3c-0.1,0.5-0.3,1-0.8,1.5
		c-0.8,0.8-1.8,1.2-3.2,1.2c-1.1,0-2.1-0.3-3-1s-1.3-1.8-1.3-3.4c0-1.5,0.4-2.6,1.2-3.4c0.8-0.8,1.8-1.2,3-1.2
		C931.2,15.2,931.9,15.4,932.5,15.6z M929.2,17.6c-0.3,0.3-0.5,0.8-0.6,1.3h3.8c0-0.6-0.2-1-0.6-1.3c-0.4-0.3-0.8-0.5-1.3-0.5
		C929.9,17.1,929.5,17.2,929.2,17.6z"/>
</g>
<path class="area2" d="M946.6,132.7c0-2.4,0.1-4.6-0.2-6.9c-0.3-2.6-2.4-4.7-5-5c-2.3-0.3-4.7-0.2-7.1-0.2h-147
	c-2.4,0-4.6-0.1-6.9,0.2c-2.6,0.3-4.7,2.4-5,5c-0.3,2.3-0.2,4.6-0.2,6.9v20.8H521.1v-4.9c0-1.7-1.8-2.8-3.3-2l-12.4,6.8h-5v-4.9
	c0-1.7-1.8-2.8-3.3-2l-12.4,6.8h-3.3v-4.9c0-1.7-1.8-2.8-3.3-2l-12.4,6.8H198.7v-4.9c0-1.7-1.8-2.8-3.3-2l-15.2,8.4
	c-0.8,0.4-0.8,1.5,0,2l15.2,8.4c1.5,0.8,3.3-0.3,3.3-2v-4.9h266.8l12.4,6.8c1.5,0.8,3.3-0.3,3.3-2v-4.9h3.3l12.4,6.8
	c1.5,0.8,3.3-0.3,3.3-2v-4.9h5l12.4,6.8c1.5,0.8,3.3-0.3,3.3-2v-4.9h254.1v2.5c0,2.4-0.1,4.7,0.2,7.1c0.3,2.6,2.4,4.7,5,5
	c2.3,0.3,4.6,0.2,6.9,0.2l147,0c2.4,0,4.7,0.1,7.1-0.2c2.6-0.3,4.7-2.4,5-5c0.3-2.3,0.2-4.7,0.2-7.1V132.7z"/>
<g>
	<path class="area3" d="M784.9,160.2c0.4,0.2,0.6,0.4,0.8,0.6s0.3,0.4,0.4,0.6c0.1,0.2,0.1,0.4,0.1,0.7c0,0.2,0,0.5-0.1,0.9l-0.1,0.7
		c-0.1,0.4-0.1,0.6-0.1,0.8c0,0.2,0.1,0.4,0.3,0.6s0.6,0.2,1.1,0.2h0.9v0.9h-0.9c-1.1,0-1.8-0.2-2.1-0.5c-0.3-0.3-0.5-0.7-0.5-1.2
		c0-0.2,0-0.5,0.1-0.7l0.1-0.5l0.1-0.5l0.1-0.3c0-0.1,0-0.3,0-0.4c0-0.4-0.1-0.7-0.4-0.9s-0.7-0.4-1.3-0.4h-0.5v-0.9h0.5
		c0.6,0,1-0.1,1.3-0.4s0.4-0.6,0.4-0.9c0-0.1,0-0.3,0-0.4l-0.1-0.3l-0.1-0.5l-0.1-0.5c-0.1-0.3-0.1-0.5-0.1-0.8
		c0-0.4,0.2-0.8,0.5-1.2c0.3-0.3,1-0.5,2.1-0.5h0.9v0.9h-0.9c-0.6,0-1,0.1-1.1,0.2c-0.2,0.2-0.3,0.4-0.3,0.6c0,0.2,0,0.4,0.1,0.8
		l0.1,0.7c0.1,0.4,0.1,0.7,0.1,0.9c0,0.2,0,0.5-0.1,0.7c-0.1,0.2-0.2,0.4-0.4,0.6S785.3,160,784.9,160.2z"/>
	<path class="area3" d="M793.4,163.9v-6.5h1v1.5c0.3-0.6,0.6-1.1,0.8-1.3s0.5-0.4,0.8-0.4c0.3,0,0.6,0.1,0.8,0.4s0.3,0.6,0.3,1.1v0.4
		c0.1-0.4,0.3-0.7,0.5-1s0.4-0.4,0.6-0.6s0.4-0.2,0.7-0.2c0.3,0,0.5,0.1,0.7,0.4s0.3,0.7,0.3,1.4v4.9h-1v-4.5c0-0.4,0-0.6,0-0.8
		s-0.1-0.2-0.1-0.3s-0.1-0.1-0.2-0.1c-0.2,0-0.4,0.2-0.7,0.5s-0.5,0.8-0.7,1.5v3.6h-0.9v-4.5c0-0.6-0.1-0.9-0.2-1
		c-0.1-0.1-0.2-0.2-0.3-0.2c-0.2,0-0.4,0.2-0.6,0.5s-0.4,0.8-0.7,1.3v3.8H793.4z"/>
	<path class="area3" d="M801.2,163.6v-1.2c0.4,0.3,0.9,0.5,1.4,0.6s0.9,0.2,1.2,0.2c0.6,0,0.9-0.1,1.2-0.3s0.4-0.4,0.4-0.7
		c0-0.2-0.1-0.3-0.2-0.5s-0.4-0.3-0.8-0.5l-0.4-0.2l-0.8-0.3c-0.8-0.3-1.3-0.6-1.5-0.9c-0.2-0.3-0.3-0.6-0.3-1c0-0.5,0.2-1,0.6-1.3
		c0.4-0.3,1.1-0.5,2-0.5c0.7,0,1.4,0.1,2,0.3v1c-0.7-0.3-1.4-0.4-2-0.4c-0.5,0-0.8,0.1-1.1,0.2c-0.3,0.2-0.4,0.4-0.4,0.6
		c0,0.2,0.1,0.4,0.3,0.6c0.2,0.1,0.6,0.3,1.1,0.5l0.7,0.3c0.7,0.2,1.2,0.5,1.4,0.8c0.3,0.3,0.4,0.7,0.4,1.1c0,0.6-0.2,1-0.7,1.4
		s-1.1,0.5-2.1,0.5C802.9,164.1,802.1,163.9,801.2,163.6z"/>
	<path class="area3" d="M812.7,162.5c-0.3,0.5-0.7,1-1.2,1.2c-0.5,0.3-0.9,0.4-1.3,0.4c-0.5,0-1-0.2-1.5-0.7c-0.4-0.5-0.7-1.2-0.7-2.2
		c0-0.8,0.1-1.4,0.4-2c0.3-0.6,0.7-1.1,1.2-1.4c0.5-0.3,1.1-0.5,1.8-0.5c0.2,0,0.5,0,0.9,0.1c0.1,0,0.2,0,0.3,0h1.1v4.6
		c0,1.1,0,1.8,0,2s-0.1,0.5-0.1,0.7c-0.2,0.6-0.5,1-1.1,1.4c-0.6,0.3-1.2,0.5-2,0.5c-0.8,0-1.6-0.2-2.4-0.6V165
		c0.3,0.2,0.7,0.4,1.1,0.6c0.5,0.2,0.9,0.2,1.3,0.2c0.3,0,0.6-0.1,0.9-0.2c0.3-0.1,0.5-0.3,0.7-0.5c0.2-0.2,0.3-0.4,0.4-0.7
		s0.1-0.6,0.1-1.1V162.5z M812.7,161.2v-2.8c-0.4-0.1-0.7-0.2-1.1-0.2c-0.7,0-1.2,0.3-1.7,0.8c-0.4,0.5-0.7,1.2-0.7,2.1
		c0,0.6,0.1,1.1,0.4,1.5c0.2,0.3,0.5,0.5,0.8,0.5c0.3,0,0.7-0.2,1.1-0.5C812,162.2,812.4,161.8,812.7,161.2z"/>
	<path class="area3" d="M818.2,159.1c-0.3,0-0.5-0.1-0.7-0.3s-0.3-0.4-0.3-0.7c0-0.3,0.1-0.5,0.3-0.7s0.4-0.3,0.7-0.3s0.5,0.1,0.7,0.3
		s0.3,0.4,0.3,0.7c0,0.3-0.1,0.5-0.3,0.7S818.5,159.1,818.2,159.1z M818.2,164.2c-0.3,0-0.5-0.1-0.7-0.3s-0.3-0.4-0.3-0.7
		c0-0.3,0.1-0.5,0.3-0.7s0.4-0.3,0.7-0.3s0.5,0.1,0.7,0.3s0.3,0.4,0.3,0.7c0,0.3-0.1,0.5-0.3,0.7S818.5,164.2,818.2,164.2z"/>
	<path class="area3" d="M832.3,154.3v0.7c-0.3,0.1-0.5,0.2-0.6,0.3c-0.1,0.1-0.3,0.3-0.4,0.5s-0.1,0.5-0.1,0.8c0.4,0,0.6,0.1,0.8,0.3
		s0.3,0.4,0.3,0.7c0,0.3-0.1,0.5-0.3,0.7s-0.4,0.3-0.7,0.3c-0.3,0-0.6-0.1-0.8-0.4c-0.2-0.3-0.4-0.7-0.4-1.2c0-0.4,0.1-0.8,0.3-1.2
		c0.2-0.4,0.4-0.7,0.8-1C831.4,154.5,831.8,154.4,832.3,154.3z M835.2,154.3v0.7c-0.3,0.1-0.5,0.2-0.6,0.3c-0.1,0.1-0.3,0.3-0.4,0.5
		s-0.1,0.5-0.1,0.8c0.4,0,0.6,0.1,0.8,0.3s0.3,0.4,0.3,0.7c0,0.3-0.1,0.5-0.3,0.7s-0.4,0.3-0.7,0.3c-0.3,0-0.6-0.1-0.9-0.4
		c-0.2-0.3-0.4-0.7-0.4-1.2c0-0.4,0.1-0.8,0.3-1.2c0.2-0.4,0.4-0.7,0.8-1C834.3,154.5,834.7,154.4,835.2,154.3z"/>
	<path class="area3" d="M836.9,163.9v-9.1h1.2v3.9h3.4v-3.9h1.2v9.1h-1.2v-4.3h-3.4v4.3H836.9z"/>
	<path class="area3" d="M849.8,163.5c-0.9,0.4-1.7,0.6-2.5,0.6c-0.6,0-1.1-0.1-1.6-0.4c-0.5-0.3-0.8-0.7-1.1-1.3
		c-0.3-0.5-0.4-1.1-0.4-1.7c0-0.6,0.1-1.2,0.4-1.7c0.3-0.6,0.6-1,1.1-1.3s1-0.5,1.6-0.5c0.8,0,1.4,0.3,1.9,0.8s0.7,1.4,0.7,2.6v0.2
		h-4.5c0,0.5,0.1,0.9,0.3,1.2s0.4,0.7,0.7,0.8c0.3,0.2,0.7,0.3,1.1,0.3c0.7,0,1.5-0.2,2.3-0.7V163.5z M845.4,160h3.3v-0.2
		c0-0.5-0.1-1-0.4-1.3s-0.6-0.5-1-0.5c-0.4,0-0.8,0.2-1.1,0.5S845.5,159.4,845.4,160z"/>
	<path class="area3" d="M853.3,163.9v-8.5h-2v-0.9h3v8.5h2v0.9H853.3z"/>
	<path class="area3" d="M860.5,163.9v-8.5h-2v-0.9h3v8.5h2v0.9H860.5z"/>
	<path class="area3" d="M868.6,164.1c-0.9,0-1.7-0.3-2.2-1c-0.6-0.7-0.8-1.5-0.8-2.5s0.3-1.8,0.8-2.5c0.6-0.7,1.3-1,2.2-1
		c0.9,0,1.7,0.3,2.2,1c0.6,0.7,0.8,1.5,0.8,2.5s-0.3,1.8-0.8,2.5C870.3,163.8,869.5,164.1,868.6,164.1z M868.6,163.2
		c0.6,0,1-0.2,1.4-0.7c0.3-0.5,0.5-1.1,0.5-1.9c0-0.8-0.2-1.4-0.5-1.9c-0.3-0.5-0.8-0.7-1.4-0.7c-0.6,0-1,0.2-1.4,0.7
		c-0.3,0.5-0.5,1.1-0.5,1.9c0,0.8,0.2,1.4,0.5,1.9C867.6,163,868,163.2,868.6,163.2z"/>
	<path class="area3" d="M880.6,163.9l-1.1-6.5h1l0.6,4l0.2,0.9l0.2-0.9l1-4h1l1.2,4l0.2,0.9l0.1-0.9l0.6-4h0.8l-1.1,6.5h-1l-1.3-4.2
		l-0.2-0.9h0l-0.2,0.9l-1.1,4.2H880.6z"/>
	<path class="area3" d="M890.2,164.1c-0.9,0-1.7-0.3-2.2-1c-0.6-0.7-0.8-1.5-0.8-2.5s0.3-1.8,0.8-2.5c0.6-0.7,1.3-1,2.2-1
		c0.9,0,1.7,0.3,2.2,1c0.6,0.7,0.8,1.5,0.8,2.5s-0.3,1.8-0.8,2.5C891.9,163.8,891.1,164.1,890.2,164.1z M890.2,163.2
		c0.6,0,1-0.2,1.4-0.7c0.3-0.5,0.5-1.1,0.5-1.9c0-0.8-0.2-1.4-0.5-1.9c-0.3-0.5-0.8-0.7-1.4-0.7c-0.6,0-1,0.2-1.4,0.7
		c-0.3,0.5-0.5,1.1-0.5,1.9c0,0.8,0.2,1.4,0.5,1.9C889.2,163,889.6,163.2,890.2,163.2z"/>
	<path class="area3" d="M895.3,163.9v-6.5h1.1v1.4c0.3-0.5,0.7-0.9,1.2-1.2s0.9-0.4,1.5-0.4c0.4,0,0.8,0.1,1.2,0.2v2.4h-1v-1.5
		c-0.2,0-0.3,0-0.4,0c-0.4,0-0.8,0.2-1.2,0.5s-0.8,0.8-1.1,1.4v3.8H895.3z"/>
	<path class="area3" d="M903.7,163.9v-8.5h-2v-0.9h3v8.5h2v0.9H903.7z"/>
	<path class="area3" d="M913.5,162.5c-0.3,0.5-0.7,1-1.2,1.2c-0.5,0.3-0.9,0.4-1.3,0.4c-0.5,0-1-0.2-1.5-0.7c-0.4-0.5-0.7-1.2-0.7-2.2
		c0-0.8,0.1-1.4,0.4-2c0.3-0.6,0.7-1.1,1.2-1.4s1.1-0.5,1.8-0.5c0.2,0,0.5,0,0.9,0.1c0.1,0,0.2,0,0.3,0v-2.9h1.1v9.5h-1.1V162.5z
		 M913.5,161.2v-2.8c-0.4-0.1-0.7-0.2-1.1-0.2c-0.7,0-1.2,0.3-1.7,0.8c-0.4,0.5-0.7,1.2-0.7,2.1c0,0.6,0.1,1.1,0.4,1.5
		c0.2,0.3,0.5,0.5,0.8,0.5c0.3,0,0.7-0.2,1.1-0.5C912.8,162.2,913.2,161.8,913.5,161.2z"/>
	<path class="area3" d="M919,164.2c-0.2,0-0.4-0.1-0.6-0.2s-0.2-0.4-0.2-0.6s0.1-0.4,0.2-0.6s0.4-0.2,0.6-0.2c0.2,0,0.4,0.1,0.6,0.2
		s0.2,0.4,0.2,0.6s-0.1,0.4-0.3,0.6S919.2,164.2,919,164.2z M918.5,161.4l-0.3-6.5h1.5l-0.3,6.5H918.5z"/>
	<path class="area3" d="M923.4,158.6v-0.7c0.3-0.1,0.5-0.2,0.6-0.3c0.1-0.1,0.3-0.3,0.4-0.5c0.1-0.2,0.1-0.5,0.1-0.8
		c-0.4,0-0.6-0.1-0.8-0.3s-0.3-0.4-0.3-0.7c0-0.3,0.1-0.5,0.3-0.7s0.4-0.3,0.7-0.3c0.3,0,0.6,0.1,0.8,0.4c0.2,0.3,0.4,0.7,0.4,1.2
		c0,0.4-0.1,0.8-0.3,1.2c-0.2,0.4-0.4,0.7-0.8,1S923.9,158.5,923.4,158.6z M926.3,158.6v-0.7c0.3-0.1,0.5-0.2,0.6-0.3
		c0.1-0.1,0.3-0.3,0.4-0.5c0.1-0.2,0.1-0.5,0.1-0.8c-0.4,0-0.6-0.1-0.8-0.3s-0.3-0.4-0.3-0.7c0-0.3,0.1-0.5,0.3-0.7s0.4-0.3,0.7-0.3
		c0.3,0,0.6,0.1,0.9,0.4c0.2,0.3,0.4,0.7,0.4,1.2c0,0.4-0.1,0.8-0.3,1.2c-0.2,0.4-0.4,0.7-0.8,1S926.8,158.5,926.3,158.6z"/>
	<path class="area3" d="M936.7,160.2c-0.4-0.2-0.6-0.4-0.8-0.6s-0.3-0.4-0.4-0.6s-0.1-0.4-0.1-0.7c0-0.2,0-0.5,0.1-0.9l0.1-0.7
		c0.1-0.4,0.1-0.6,0.1-0.8c0-0.2-0.1-0.4-0.3-0.6c-0.2-0.2-0.6-0.2-1.1-0.2h-0.9v-0.9h0.9c1.1,0,1.8,0.2,2.1,0.5s0.5,0.7,0.5,1.2
		c0,0.2,0,0.5-0.1,0.8l-0.1,0.5l-0.1,0.5l-0.1,0.3c0,0.1,0,0.3,0,0.4c0,0.4,0.1,0.7,0.4,0.9s0.7,0.4,1.3,0.4h0.5v0.9h-0.5
		c-0.6,0-1,0.1-1.3,0.4s-0.4,0.6-0.4,1c0,0.1,0,0.3,0,0.4l0.1,0.3l0.1,0.5l0.1,0.5c0.1,0.3,0.1,0.5,0.1,0.8c0,0.4-0.2,0.8-0.5,1.2
		s-1,0.5-2.1,0.5h-0.9v-0.9h0.9c0.6,0,1-0.1,1.1-0.2s0.3-0.4,0.3-0.6c0-0.2,0-0.4-0.1-0.8l-0.1-0.7c-0.1-0.4-0.1-0.7-0.1-0.9
		c0-0.2,0-0.5,0.1-0.7s0.2-0.4,0.4-0.6S936.4,160.4,936.7,160.2z"/>
</g>
<g>
	<path class="area1" d="M18.7,155.7c0.4,0.2,0.6,0.4,0.8,0.6s0.3,0.4,0.4,0.6c0.1,0.2,0.1,0.4,0.1,0.7c0,0.2,0,0.5-0.1,0.9l-0.1,0.7
		c-0.1,0.4-0.1,0.6-0.1,0.8c0,0.2,0.1,0.4,0.3,0.6s0.6,0.2,1.1,0.2h0.9v0.9H21c-1.1,0-1.8-0.2-2.1-0.5c-0.3-0.3-0.5-0.7-0.5-1.2
		c0-0.2,0-0.5,0.1-0.7l0.1-0.5l0.1-0.5l0.1-0.3c0-0.1,0-0.3,0-0.4c0-0.4-0.1-0.7-0.4-0.9s-0.7-0.4-1.3-0.4h-0.5v-0.9h0.5
		c0.6,0,1-0.1,1.3-0.4s0.4-0.6,0.4-0.9c0-0.1,0-0.3,0-0.4l-0.1-0.3l-0.1-0.5l-0.1-0.5c-0.1-0.3-0.1-0.5-0.1-0.8
		c0-0.4,0.2-0.8,0.5-1.2c0.3-0.3,1-0.5,2.1-0.5h0.9v0.9H21c-0.6,0-1,0.1-1.1,0.2c-0.2,0.2-0.3,0.4-0.3,0.6c0,0.2,0,0.4,0.1,0.8
		l0.1,0.7c0.1,0.4,0.1,0.7,0.1,0.9c0,0.2,0,0.5-0.1,0.7c-0.1,0.2-0.2,0.4-0.4,0.6S19,155.5,18.7,155.7z"/>
	<path class="area1" d="M27.2,159.4v-6.5h1v1.5c0.3-0.6,0.6-1.1,0.8-1.3s0.5-0.4,0.8-0.4c0.3,0,0.6,0.1,0.8,0.4s0.3,0.6,0.3,1.1v0.4
		c0.1-0.4,0.3-0.7,0.5-1s0.4-0.4,0.6-0.6s0.4-0.2,0.7-0.2c0.3,0,0.5,0.1,0.7,0.4s0.3,0.7,0.3,1.4v4.9h-1v-4.5c0-0.4,0-0.6,0-0.8
		s-0.1-0.2-0.1-0.3s-0.1-0.1-0.2-0.1c-0.2,0-0.4,0.2-0.7,0.5s-0.5,0.8-0.7,1.5v3.6h-0.9v-4.5c0-0.6-0.1-0.9-0.2-1
		c-0.1-0.1-0.2-0.2-0.3-0.2c-0.2,0-0.4,0.2-0.6,0.5s-0.4,0.8-0.7,1.3v3.8H27.2z"/>
	<path class="area1" d="M35,159.1v-1.2c0.4,0.3,0.9,0.5,1.4,0.6s0.9,0.2,1.2,0.2c0.6,0,0.9-0.1,1.2-0.3s0.4-0.4,0.4-0.7
		c0-0.2-0.1-0.3-0.2-0.5s-0.4-0.3-0.8-0.5l-0.4-0.2l-0.8-0.3c-0.8-0.3-1.3-0.6-1.5-0.9c-0.2-0.3-0.3-0.6-0.3-1c0-0.5,0.2-1,0.6-1.3
		c0.4-0.3,1.1-0.5,2-0.5c0.7,0,1.4,0.1,2,0.3v1c-0.7-0.3-1.4-0.4-2-0.4c-0.5,0-0.8,0.1-1.1,0.2c-0.3,0.2-0.4,0.4-0.4,0.6
		c0,0.2,0.1,0.4,0.3,0.6c0.2,0.1,0.6,0.3,1.1,0.5l0.7,0.3c0.7,0.2,1.2,0.5,1.4,0.8c0.3,0.3,0.4,0.7,0.4,1.1c0,0.6-0.2,1-0.7,1.4
		s-1.1,0.5-2.1,0.5C36.7,159.6,35.8,159.4,35,159.1z"/>
	<path class="area1" d="M46.5,157.9c-0.3,0.5-0.7,1-1.2,1.2c-0.5,0.3-0.9,0.4-1.3,0.4c-0.5,0-1-0.2-1.5-0.7c-0.4-0.5-0.7-1.2-0.7-2.2
		c0-0.8,0.1-1.4,0.4-2c0.3-0.6,0.7-1.1,1.2-1.4c0.5-0.3,1.1-0.5,1.8-0.5c0.2,0,0.5,0,0.9,0.1c0.1,0,0.2,0,0.3,0h1.1v4.6
		c0,1.1,0,1.8,0,2s-0.1,0.5-0.1,0.7c-0.2,0.6-0.5,1-1.1,1.4c-0.6,0.3-1.2,0.5-2,0.5c-0.8,0-1.6-0.2-2.4-0.6v-1.1
		c0.3,0.2,0.7,0.4,1.1,0.6c0.5,0.2,0.9,0.2,1.3,0.2c0.3,0,0.6-0.1,0.9-0.2c0.3-0.1,0.5-0.3,0.7-0.5c0.2-0.2,0.3-0.4,0.4-0.7
		s0.1-0.6,0.1-1.1V157.9z M46.5,156.6v-2.8c-0.4-0.1-0.7-0.2-1.1-0.2c-0.7,0-1.2,0.3-1.7,0.8c-0.4,0.5-0.7,1.2-0.7,2.1
		c0,0.6,0.1,1.1,0.4,1.5c0.2,0.3,0.5,0.5,0.8,0.5c0.3,0,0.7-0.2,1.1-0.5C45.8,157.7,46.1,157.2,46.5,156.6z"/>
	<path class="area1" d="M52,154.6c-0.3,0-0.5-0.1-0.7-0.3s-0.3-0.4-0.3-0.7c0-0.3,0.1-0.5,0.3-0.7s0.4-0.3,0.7-0.3s0.5,0.1,0.7,0.3
		s0.3,0.4,0.3,0.7c0,0.3-0.1,0.5-0.3,0.7S52.2,154.6,52,154.6z M52,159.7c-0.3,0-0.5-0.1-0.7-0.3S51,159,51,158.7
		c0-0.3,0.1-0.5,0.3-0.7s0.4-0.3,0.7-0.3s0.5,0.1,0.7,0.3s0.3,0.4,0.3,0.7c0,0.3-0.1,0.5-0.3,0.7S52.2,159.7,52,159.7z"/>
	<path class="area1" d="M66.1,149.8v0.7c-0.3,0.1-0.5,0.2-0.6,0.3c-0.1,0.1-0.3,0.3-0.4,0.5s-0.1,0.5-0.1,0.8c0.4,0,0.6,0.1,0.8,0.3
		s0.3,0.4,0.3,0.7c0,0.3-0.1,0.5-0.3,0.7S65.3,154,65,154c-0.3,0-0.6-0.1-0.8-0.4c-0.2-0.3-0.4-0.7-0.4-1.2c0-0.4,0.1-0.8,0.3-1.2
		c0.2-0.4,0.4-0.7,0.8-1C65.2,150,65.6,149.8,66.1,149.8z M68.9,149.8v0.7c-0.3,0.1-0.5,0.2-0.6,0.3c-0.1,0.1-0.3,0.3-0.4,0.5
		s-0.1,0.5-0.1,0.8c0.4,0,0.6,0.1,0.8,0.3s0.3,0.4,0.3,0.7c0,0.3-0.1,0.5-0.3,0.7s-0.4,0.3-0.7,0.3c-0.3,0-0.6-0.1-0.9-0.4
		c-0.2-0.3-0.4-0.7-0.4-1.2c0-0.4,0.1-0.8,0.3-1.2c0.2-0.4,0.4-0.7,0.8-1C68.1,150,68.5,149.8,68.9,149.8z"/>
	<path class="area1" d="M70.7,159.4v-9.1h1.2v3.9h3.4v-3.9h1.2v9.1h-1.2v-4.3h-3.4v4.3H70.7z"/>
	<path class="area1" d="M83.5,159c-0.9,0.4-1.7,0.6-2.5,0.6c-0.6,0-1.1-0.1-1.6-0.4c-0.5-0.3-0.8-0.7-1.1-1.3
		c-0.3-0.5-0.4-1.1-0.4-1.7c0-0.6,0.1-1.2,0.4-1.7c0.3-0.6,0.6-1,1.1-1.3s1-0.5,1.6-0.5c0.8,0,1.4,0.3,1.9,0.8s0.7,1.4,0.7,2.6v0.2
		h-4.5c0,0.5,0.1,0.9,0.3,1.2s0.4,0.7,0.7,0.8c0.3,0.2,0.7,0.3,1.1,0.3c0.7,0,1.5-0.2,2.3-0.7V159z M79.2,155.5h3.3v-0.2
		c0-0.5-0.1-1-0.4-1.3s-0.6-0.5-1-0.5c-0.4,0-0.8,0.2-1.1,0.5S79.3,154.9,79.2,155.5z"/>
	<path class="area1" d="M87,159.4v-8.5h-2V150h3v8.5h2v0.9H87z"/>
	<path class="area1" d="M94.2,159.4v-8.5h-2V150h3v8.5h2v0.9H94.2z"/>
	<path class="area1" d="M102.4,159.6c-0.9,0-1.7-0.3-2.2-1c-0.6-0.7-0.8-1.5-0.8-2.5s0.3-1.8,0.8-2.5c0.6-0.7,1.3-1,2.2-1
		c0.9,0,1.7,0.3,2.2,1c0.6,0.7,0.8,1.5,0.8,2.5s-0.3,1.8-0.8,2.5C104.1,159.3,103.3,159.6,102.4,159.6z M102.4,158.7
		c0.6,0,1-0.2,1.4-0.7c0.3-0.5,0.5-1.1,0.5-1.9c0-0.8-0.2-1.4-0.5-1.9c-0.3-0.5-0.8-0.7-1.4-0.7c-0.6,0-1,0.2-1.4,0.7
		c-0.3,0.5-0.5,1.1-0.5,1.9c0,0.8,0.2,1.4,0.5,1.9C101.3,158.5,101.8,158.7,102.4,158.7z"/>
	<path class="area1" d="M114.4,159.4l-1.1-6.5h1l0.6,4l0.2,0.9l0.2-0.9l1-4h1l1.2,4l0.2,0.9l0.1-0.9l0.6-4h0.8l-1.1,6.5h-1l-1.3-4.2
		l-0.2-0.9h0l-0.2,0.9l-1.1,4.2H114.4z"/>
	<path class="area1" d="M124,159.6c-0.9,0-1.7-0.3-2.2-1c-0.6-0.7-0.8-1.5-0.8-2.5s0.3-1.8,0.8-2.5c0.6-0.7,1.3-1,2.2-1
		c0.9,0,1.7,0.3,2.2,1c0.6,0.7,0.8,1.5,0.8,2.5s-0.3,1.8-0.8,2.5C125.7,159.3,124.9,159.6,124,159.6z M124,158.7
		c0.6,0,1-0.2,1.4-0.7c0.3-0.5,0.5-1.1,0.5-1.9c0-0.8-0.2-1.4-0.5-1.9c-0.3-0.5-0.8-0.7-1.4-0.7c-0.6,0-1,0.2-1.4,0.7
		c-0.3,0.5-0.5,1.1-0.5,1.9c0,0.8,0.2,1.4,0.5,1.9C122.9,158.5,123.4,158.7,124,158.7z"/>
	<path class="area1" d="M129.1,159.4v-6.5h1.1v1.4c0.3-0.5,0.7-0.9,1.2-1.2s0.9-0.4,1.5-0.4c0.4,0,0.8,0.1,1.2,0.2v2.4h-1v-1.5
		c-0.2,0-0.3,0-0.4,0c-0.4,0-0.8,0.2-1.2,0.5s-0.8,0.8-1.1,1.4v3.8H129.1z"/>
	<path class="area1" d="M137.5,159.4v-8.5h-2V150h3v8.5h2v0.9H137.5z"/>
	<path class="area1" d="M147.3,157.9c-0.3,0.5-0.7,1-1.2,1.2c-0.5,0.3-0.9,0.4-1.3,0.4c-0.5,0-1-0.2-1.5-0.7c-0.4-0.5-0.7-1.2-0.7-2.2
		c0-0.8,0.1-1.4,0.4-2c0.3-0.6,0.7-1.1,1.2-1.4s1.1-0.5,1.8-0.5c0.2,0,0.5,0,0.9,0.1c0.1,0,0.2,0,0.3,0V150h1.1v9.5h-1.1V157.9z
		 M147.3,156.6v-2.8c-0.4-0.1-0.7-0.2-1.1-0.2c-0.7,0-1.2,0.3-1.7,0.8c-0.4,0.5-0.7,1.2-0.7,2.1c0,0.6,0.1,1.1,0.4,1.5
		c0.2,0.3,0.5,0.5,0.8,0.5c0.3,0,0.7-0.2,1.1-0.5C146.6,157.7,146.9,157.2,147.3,156.6z"/>
	<path class="area1" d="M152.8,159.7c-0.2,0-0.4-0.1-0.6-0.2s-0.2-0.4-0.2-0.6s0.1-0.4,0.2-0.6s0.4-0.2,0.6-0.2c0.2,0,0.4,0.1,0.6,0.2
		s0.2,0.4,0.2,0.6s-0.1,0.4-0.3,0.6S153,159.7,152.8,159.7z M152.3,156.8l-0.3-6.5h1.5l-0.3,6.5H152.3z"/>
	<path class="area1" d="M157.2,154v-0.7c0.3-0.1,0.5-0.2,0.6-0.3c0.1-0.1,0.3-0.3,0.4-0.5c0.1-0.2,0.1-0.5,0.1-0.8
		c-0.4,0-0.6-0.1-0.8-0.3s-0.3-0.4-0.3-0.7c0-0.3,0.1-0.5,0.3-0.7s0.4-0.3,0.7-0.3c0.3,0,0.6,0.1,0.8,0.4c0.2,0.3,0.4,0.7,0.4,1.2
		c0,0.4-0.1,0.8-0.3,1.2c-0.2,0.4-0.4,0.7-0.8,1S157.7,154,157.2,154z M160.1,154v-0.7c0.3-0.1,0.5-0.2,0.6-0.3
		c0.1-0.1,0.3-0.3,0.4-0.5c0.1-0.2,0.1-0.5,0.1-0.8c-0.4,0-0.6-0.1-0.8-0.3s-0.3-0.4-0.3-0.7c0-0.3,0.1-0.5,0.3-0.7s0.4-0.3,0.7-0.3
		c0.3,0,0.6,0.1,0.9,0.4c0.2,0.3,0.4,0.7,0.4,1.2c0,0.4-0.1,0.8-0.3,1.2c-0.2,0.4-0.4,0.7-0.8,1S160.5,154,160.1,154z"/>
	<path class="area1" d="M170.5,155.7c-0.4-0.2-0.6-0.4-0.8-0.6s-0.3-0.4-0.4-0.6s-0.1-0.4-0.1-0.7c0-0.2,0-0.5,0.1-0.9l0.1-0.7
		c0.1-0.4,0.1-0.6,0.1-0.8c0-0.2-0.1-0.4-0.3-0.6c-0.2-0.2-0.6-0.2-1.1-0.2h-0.9v-0.9h0.9c1.1,0,1.8,0.2,2.1,0.5s0.5,0.7,0.5,1.2
		c0,0.2,0,0.5-0.1,0.8l-0.1,0.5l-0.1,0.5l-0.1,0.3c0,0.1,0,0.3,0,0.4c0,0.4,0.1,0.7,0.4,0.9s0.7,0.4,1.3,0.4h0.5v0.9h-0.5
		c-0.6,0-1,0.1-1.3,0.4s-0.4,0.6-0.4,1c0,0.1,0,0.3,0,0.4l0.1,0.3l0.1,0.5l0.1,0.5c0.1,0.3,0.1,0.5,0.1,0.8c0,0.4-0.2,0.8-0.5,1.2
		s-1,0.5-2.1,0.5h-0.9v-0.9h0.9c0.6,0,1-0.1,1.1-0.2s0.3-0.4,0.3-0.6c0-0.2,0-0.4-0.1-0.8l-0.1-0.7c-0.1-0.4-0.1-0.7-0.1-0.9
		c0-0.2,0-0.5,0.1-0.7s0.2-0.4,0.4-0.6S170.1,155.9,170.5,155.7z"/>
</g>
<path class="area2" d="M774.5,66.5l-15.2,8.4c-1.5,0.8-3.3-0.3-3.3-2V58.1c0-1.7,1.8-2.8,3.3-2l15.2,8.4
	C775.3,64.9,775.3,66.1,774.5,66.5z"/>
<g>
	<path class="area3" d="M850,141.9c0.3-0.8,1.1-1.7,2.4-2.6c1.1-0.8,1.8-1.4,2.1-1.7c0.5-0.5,0.7-1.1,0.7-1.7c0-0.5-0.1-0.9-0.4-1.3
		c-0.3-0.3-0.7-0.5-1.2-0.5c-0.7,0-1.2,0.3-1.5,0.8c-0.2,0.3-0.2,0.8-0.3,1.5h-2.3c0-1,0.2-1.9,0.6-2.5c0.6-1.2,1.8-1.8,3.4-1.8
		c1.3,0,2.3,0.4,3.1,1.1c0.8,0.7,1.1,1.7,1.1,2.8c0,0.9-0.3,1.7-0.8,2.4c-0.4,0.5-0.9,1-1.7,1.6l-1,0.7c-0.6,0.4-1,0.7-1.2,0.9
		c-0.2,0.2-0.4,0.4-0.6,0.7h5.3v2.1h-8.4C849.5,143.4,849.6,142.6,850,141.9z"/>
	<path class="area3" d="M866.5,133.6c0.6,1.1,0.9,2.6,0.9,4.7s-0.3,3.6-0.9,4.6c-0.6,1.1-1.7,1.6-3.3,1.6c-1.6,0-2.6-0.5-3.3-1.6
		c-0.6-1.1-0.9-2.6-0.9-4.6s0.3-3.6,0.9-4.7c0.6-1.1,1.7-1.6,3.3-1.6C864.8,132,865.9,132.5,866.5,133.6z M861.8,141.5
		c0.2,0.7,0.7,1.1,1.4,1.1c0.7,0,1.2-0.4,1.4-1.1c0.2-0.7,0.3-1.8,0.3-3.2c0-1.5-0.1-2.6-0.3-3.3c-0.2-0.7-0.7-1.1-1.4-1.1
		c-0.7,0-1.2,0.4-1.4,1.1c-0.2,0.7-0.3,1.8-0.3,3.3C861.5,139.7,861.6,140.8,861.8,141.5z"/>
	<path class="area3" d="M876.1,133.6c0.6,1.1,0.9,2.6,0.9,4.7s-0.3,3.6-0.9,4.6c-0.6,1.1-1.7,1.6-3.3,1.6c-1.6,0-2.6-0.5-3.3-1.6
		c-0.6-1.1-0.9-2.6-0.9-4.6s0.3-3.6,0.9-4.7c0.6-1.1,1.7-1.6,3.3-1.6C874.4,132,875.4,132.5,876.1,133.6z M871.4,141.5
		c0.2,0.7,0.7,1.1,1.4,1.1c0.7,0,1.2-0.4,1.4-1.1c0.2-0.7,0.3-1.8,0.3-3.2c0-1.5-0.1-2.6-0.3-3.3c-0.2-0.7-0.7-1.1-1.4-1.1
		c-0.7,0-1.2,0.4-1.4,1.1c-0.2,0.7-0.3,1.8-0.3,3.3C871,139.7,871.2,140.8,871.4,141.5z"/>
</g>
</svg>
