<svg id="Layer_1" data-name="Layer 1" xmlns="http://www.w3.org/2000/svg" viewBox="0 0 954.7 175.96" class="<%= className || ''%>"><defs><style>.cls-1{fill:#e8ebef;}.cls-2{fill:#72849d;}.cls-3{fill:#397eff;}.cls-4{fill:#fff;}</style></defs><title>Artboard 1</title><path class="cls-1" d="M189.2,151.76V48a100,100,0,0,0-.4-13.4h0a11,11,0,0,0-9.6-9.6h0c-4.5-.6-9.1-.3-13.6-.4H23.5a100,100,0,0,0-13.4.4h0a11,11,0,0,0-9.6,9.6h0C-.2,39.06,0,43.36,0,48v103.9a102.5,102.5,0,0,0,.4,13.6h0a11,11,0,0,0,9.6,9.6h0c4.5.6,8.8.3,13.4.4H165.5a102.5,102.5,0,0,0,13.6-.4h0a11,11,0,0,0,9.6-9.6h0C189.3,160.86,189.1,156.36,189.2,151.76Z"/><path class="cls-1" d="M584.2,151.76V48a100,100,0,0,0-.4-13.4h0a11,11,0,0,0-9.6-9.6h0c-4.5-.6-9.1-.3-13.6-.4H418.5a100,100,0,0,0-13.4.4h0a11,11,0,0,0-9.6,9.6h0c-.6,4.5-.3,8.8-.4,13.4v103.9a102.5,102.5,0,0,0,.4,13.6h0a11,11,0,0,0,9.6,9.6h0c4.5.6,8.8.3,13.4.4H560.6a102.5,102.5,0,0,0,13.6-.4h0a11,11,0,0,0,9.6-9.6h0A104.52,104.52,0,0,0,584.2,151.76Z"/><path class="cls-1" d="M954.7,151.76V48a100,100,0,0,0-.4-13.4h0a11,11,0,0,0-9.6-9.6h0c-4.5-.6-9.1-.3-13.6-.4H789a100,100,0,0,0-13.4.4h0a11,11,0,0,0-9.6,9.6h0c-.6,4.5-.3,8.8-.4,13.4v103.9a102.5,102.5,0,0,0,.4,13.6h0a11,11,0,0,0,9.6,9.6h0c4.5.6,8.8.3,13.4.4H931.1a102.5,102.5,0,0,0,13.6-.4h0a11,11,0,0,0,9.6-9.6h0C954.9,160.86,954.6,156.36,954.7,151.76Z"/><path class="cls-2" d="M74.7,2.06A4.83,4.83,0,0,1,78.2.66a4.72,4.72,0,0,1,4.2,1.9,3.68,3.68,0,0,1,.8,2.1H80.8c-.2-.6-.3-1-.6-1.2a2.41,2.41,0,0,0-1.9-.8,2.31,2.31,0,0,0-2,1.1,5.13,5.13,0,0,0-.7,3,4.56,4.56,0,0,0,.8,2.9,2.61,2.61,0,0,0,2,1,2.41,2.41,0,0,0,1.9-.8,5.35,5.35,0,0,0,.6-1.3h2.4a4.92,4.92,0,0,1-1.6,3.1,4.46,4.46,0,0,1-3.3,1.2,5,5,0,0,1-3.9-1.6,6.63,6.63,0,0,1-1.4-4.4A6.33,6.33,0,0,1,74.7,2.06Z"/><path class="cls-2" d="M87.2,12.36H85V.86h2.2Z"/><path class="cls-2" d="M91.7,2.86H89.4V.76h2.3Zm-2.3,1h2.3v8.5H89.4Z"/><path class="cls-2" d="M99.4,4a3.74,3.74,0,0,1,1.5,1.3,4.84,4.84,0,0,1,.7,1.8,8.12,8.12,0,0,1,.1,1.7H95.5a1.81,1.81,0,0,0,.9,1.8,2.13,2.13,0,0,0,1.2.3,1.59,1.59,0,0,0,1.2-.4c.2-.1.3-.3.5-.6h2.3a2.78,2.78,0,0,1-.8,1.5,4.22,4.22,0,0,1-3.2,1.2,4.72,4.72,0,0,1-3-1,4,4,0,0,1-1.3-3.4,4.55,4.55,0,0,1,1.2-3.4,4.07,4.07,0,0,1,3-1.2A6.46,6.46,0,0,1,99.4,4ZM96.1,6a2.62,2.62,0,0,0-.6,1.3h3.8A1.49,1.49,0,0,0,98.7,6a2.11,2.11,0,0,0-1.3-.5A1.43,1.43,0,0,0,96.1,6Z"/><path class="cls-2" d="M109.6,4.36a2.7,2.7,0,0,1,.8,2.3v5.7h-2.3V7.16a2.51,2.51,0,0,0-.2-1,1.27,1.27,0,0,0-1.2-.7,1.35,1.35,0,0,0-1.5,1,4.44,4.44,0,0,0-.2,1.3v4.6h-2.2V3.86H105v1.2a3.78,3.78,0,0,1,.8-.9,3.1,3.1,0,0,1,1.7-.5A3,3,0,0,1,109.6,4.36Z"/><path class="cls-2" d="M111.6,5.46V3.86h1.2V1.46H115v2.4h1.4v1.6H115V10c0,.3,0,.6.1.7s.4.1.8.1h.4v1.7h-1.1c-1.1,0-1.8-.1-2.2-.5a1.9,1.9,0,0,1-.4-1.2V5.56h-1Z"/><path class="cls-3" d="M765.5,56.36v-5H554.2v-2.9a52.51,52.51,0,0,0-.2-6.9h0a5.73,5.73,0,0,0-5-5h0a55.61,55.61,0,0,0-7.1-.2H440.4a52.51,52.51,0,0,0-6.9.2h0a5.73,5.73,0,0,0-5,5h0a53,53,0,0,0-.2,6.9v10.1a56.13,56.13,0,0,0,.2,7.1,5.73,5.73,0,0,0,5,5h0a53,53,0,0,0,6.9.2H541.9a56.13,56.13,0,0,0,7.1-.2h0a5.73,5.73,0,0,0,5-5,55.61,55.61,0,0,0,.2-7.1v-2.2Z"/><path class="cls-4" d="M453.1,50.66a2.14,2.14,0,0,0-1.3-1.6,2.77,2.77,0,0,0-1.3-.3,2.9,2.9,0,0,0-2.3,1,4.89,4.89,0,0,0-.9,3.2,3.75,3.75,0,0,0,1,3,3.1,3.1,0,0,0,2.2.9,2.72,2.72,0,0,0,2-.7,4,4,0,0,0,1-1.8h-2.7v-1.9h4.8v6.2H454l-.2-1.4-1.2,1.2a4.14,4.14,0,0,1-2.3.6,4.92,4.92,0,0,1-3.8-1.6,6.18,6.18,0,0,1-1.5-4.4,6.44,6.44,0,0,1,1.5-4.5,5.35,5.35,0,0,1,4.1-1.7,5.42,5.42,0,0,1,3.5,1.1,3.93,3.93,0,0,1,1.5,2.8h-2.5Z"/><path class="cls-4" d="M466.3,49.16h-6.1v2.4h5.6v2h-5.6v3h6.4v2.1h-8.7V47.06h8.4v2.1Z"/><path class="cls-4" d="M476.9,47.06v2h-3.4v9.5H471v-9.5h-3.5v-2Z"/><path class="cls-3" d="M405.6,52.86l-15.2-8.4a2.25,2.25,0,0,0-3.3,2v4.9H157.5v-2.9a52.51,52.51,0,0,0-.2-6.9h0a5.73,5.73,0,0,0-5-5,55.61,55.61,0,0,0-7.1-.2H43.8a52.51,52.51,0,0,0-6.9.2,5.73,5.73,0,0,0-5,5h0a53,53,0,0,0-.2,6.9v10.1a56.13,56.13,0,0,0,.2,7.1,5.73,5.73,0,0,0,5,5,53,53,0,0,0,6.9.2H145.3a56.13,56.13,0,0,0,7.1-.2,5.73,5.73,0,0,0,5-5,55.61,55.61,0,0,0,.2-7.1v-2.2H387.2v4.9a2.25,2.25,0,0,0,3.3,2l15.2-8.4A1.17,1.17,0,0,0,405.6,52.86Z"/><path class="cls-4" d="M490,59.06h-1.3l6.7-11.2h1.2Z"/><path class="cls-4" d="M498,58.76v-11h1.3v5.1a5.84,5.84,0,0,1,1.3-1.4,2.26,2.26,0,0,1,1.5-.5,2.66,2.66,0,0,1,1.2.3,1.34,1.34,0,0,1,.7.8,1.88,1.88,0,0,1,.2.8c0,.3.1.8.1,1.7v4.3H503v-4.4a5.76,5.76,0,0,0-.1-1.5,2.09,2.09,0,0,0-.4-.6.73.73,0,0,0-.6-.2,2.38,2.38,0,0,0-1.4.6,7,7,0,0,0-1.3,1.6v4.5H498Z"/><path class="cls-4" d="M512.7,58.26a6.48,6.48,0,0,1-2.9.7,3.45,3.45,0,0,1-1.8-.5,3.24,3.24,0,0,1-1.3-1.5,4.25,4.25,0,0,1,0-4,3.74,3.74,0,0,1,1.3-1.5,3.2,3.2,0,0,1,1.9-.5,2.7,2.7,0,0,1,2.2,1,4.68,4.68,0,0,1,.8,3v.3h-5.3a4,4,0,0,0,.3,1.5,2.19,2.19,0,0,0,.9,1,2.66,2.66,0,0,0,1.2.3,6.29,6.29,0,0,0,2.7-.8Zm-5.1-4.1h3.8V54a2.46,2.46,0,0,0-.5-1.5,1.43,1.43,0,0,0-1.2-.6,1.61,1.61,0,0,0-1.3.6A3.85,3.85,0,0,0,507.6,54.16Z"/><path class="cls-4" d="M516.8,58.76v-10h-2.3v-1.1h3.6v10h2.4v1.1Z"/><path class="cls-4" d="M525.2,58.76v-10h-2.3v-1.1h3.6v10h2.4v1.1Z"/><path class="cls-4" d="M534.7,59a3.31,3.31,0,0,1-2.6-1.1,4.71,4.71,0,0,1,0-5.8,3.14,3.14,0,0,1,2.6-1.1,3.31,3.31,0,0,1,2.6,1.1,4.7,4.7,0,0,1,0,5.8A3.31,3.31,0,0,1,534.7,59Zm0-1.1a1.94,1.94,0,0,0,1.6-.8,3.59,3.59,0,0,0,.6-2.2,3.8,3.8,0,0,0-.6-2.2,2,2,0,0,0-3.2,0,4.33,4.33,0,0,0,0,4.4A1.94,1.94,0,0,0,534.7,57.86Z"/><path class="cls-4" d="M56.5,50.66a2.14,2.14,0,0,0-1.3-1.6,2.77,2.77,0,0,0-1.3-.3,2.9,2.9,0,0,0-2.3,1,4.89,4.89,0,0,0-.9,3.2,3.75,3.75,0,0,0,1,3,3.1,3.1,0,0,0,2.2.9,2.72,2.72,0,0,0,2-.7,4,4,0,0,0,1-1.8H54.2v-1.9H59v6.2H57.4l-.4-1.5-1.2,1.2a4.14,4.14,0,0,1-2.3.6,4.92,4.92,0,0,1-3.8-1.6A6.18,6.18,0,0,1,48.2,53a6.44,6.44,0,0,1,1.5-4.5,5.35,5.35,0,0,1,4.1-1.7,5.42,5.42,0,0,1,3.5,1.1,3.93,3.93,0,0,1,1.5,2.8Z"/><path class="cls-4" d="M69.7,49.16H63.6v2.4h5.6v2H63.6v3H70v2.1H61.3V47.06h8.4Z"/><path class="cls-4" d="M80.2,47.06v2H76.8v9.5H74.4v-9.5H70.9v-2Z"/><path class="cls-4" d="M93.3,59.06H92l6.7-11.2h1.2Z"/><path class="cls-4" d="M101.3,58.76v-11h1.3v5.1a5.84,5.84,0,0,1,1.3-1.4,2.26,2.26,0,0,1,1.5-.5,2.66,2.66,0,0,1,1.2.3,1.34,1.34,0,0,1,.7.8,1.88,1.88,0,0,1,.2.8c0,.3.1.8.1,1.7v4.3h-1.3v-4.4a5.76,5.76,0,0,0-.1-1.5,2.09,2.09,0,0,0-.4-.6.73.73,0,0,0-.6-.2,2.38,2.38,0,0,0-1.4.6,7,7,0,0,0-1.3,1.6v4.5h-1.2Z"/><path class="cls-4" d="M116.1,58.26a6.48,6.48,0,0,1-2.9.7,3.45,3.45,0,0,1-1.8-.5,3.24,3.24,0,0,1-1.3-1.5,4.25,4.25,0,0,1,0-4,3.74,3.74,0,0,1,1.3-1.5,3.2,3.2,0,0,1,1.9-.5,2.7,2.7,0,0,1,2.2,1,4.68,4.68,0,0,1,.8,3v.3H111a4,4,0,0,0,.3,1.5,2.19,2.19,0,0,0,.9,1,2.66,2.66,0,0,0,1.2.3,6.29,6.29,0,0,0,2.7-.8Zm-5.1-4.1h3.8V54a2.46,2.46,0,0,0-.5-1.5,1.43,1.43,0,0,0-1.2-.6,1.61,1.61,0,0,0-1.3.6A3,3,0,0,0,111,54.16Z"/><path class="cls-4" d="M120.2,58.76v-10h-2.3v-1.1h3.6v10h2.4v1.1Z"/><path class="cls-4" d="M128.6,58.76v-10h-2.3v-1.1h3.6v10h2.4v1.1Z"/><path class="cls-4" d="M138.1,59a3.31,3.31,0,0,1-2.6-1.1,4.71,4.71,0,0,1,0-5.8,3.14,3.14,0,0,1,2.6-1.1,3.31,3.31,0,0,1,2.6,1.1,4.7,4.7,0,0,1,0,5.8A3.63,3.63,0,0,1,138.1,59Zm0-1.1a1.94,1.94,0,0,0,1.6-.8,3.59,3.59,0,0,0,.6-2.2,3.8,3.8,0,0,0-.6-2.2,2,2,0,0,0-3.2,0,4.33,4.33,0,0,0,0,4.4A1.94,1.94,0,0,0,138.1,57.86Z"/><path class="cls-2" d="M836.4,60.86h-1.3l6.7-11.2H843Z"/><path class="cls-2" d="M844.4,60.46v-11h1.3v5.1a5.84,5.84,0,0,1,1.3-1.4,2.26,2.26,0,0,1,1.5-.5,2.66,2.66,0,0,1,1.2.3,1.34,1.34,0,0,1,.7.8,1.88,1.88,0,0,1,.2.8c0,.3.1.8.1,1.7v4.3h-1.3v-4.4a5.76,5.76,0,0,0-.1-1.5,2.09,2.09,0,0,0-.4-.6.73.73,0,0,0-.6-.2,2.38,2.38,0,0,0-1.4.6,7,7,0,0,0-1.3,1.6v4.5h-1.2Z"/><path class="cls-2" d="M859.1,60a6.48,6.48,0,0,1-2.9.7,3.45,3.45,0,0,1-1.8-.5,3.24,3.24,0,0,1-1.3-1.5,4.25,4.25,0,0,1,0-4,3.74,3.74,0,0,1,1.3-1.5,3.2,3.2,0,0,1,1.9-.5,2.7,2.7,0,0,1,2.2,1,4.68,4.68,0,0,1,.8,3V57H854a4,4,0,0,0,.3,1.5,2.19,2.19,0,0,0,.9,1,2.66,2.66,0,0,0,1.2.3,6.29,6.29,0,0,0,2.7-.8v1ZM854,56h3.8v-.2a2.46,2.46,0,0,0-.5-1.5,1.43,1.43,0,0,0-1.2-.6,1.61,1.61,0,0,0-1.3.6A3.38,3.38,0,0,0,854,56Z"/><path class="cls-2" d="M863.2,60.46v-10h-2.3v-1.1h3.6v10h2.4v1.1Z"/><path class="cls-2" d="M871.6,60.46v-10h-2.3v-1.1h3.6v10h2.4v1.1Z"/><path class="cls-2" d="M881.1,60.66a3.31,3.31,0,0,1-2.6-1.1,4.7,4.7,0,0,1,0-5.8,3.14,3.14,0,0,1,2.6-1.1,3.31,3.31,0,0,1,2.6,1.1,4.41,4.41,0,0,1,1,2.9,4.1,4.1,0,0,1-1,2.9A3,3,0,0,1,881.1,60.66Zm0-1a1.94,1.94,0,0,0,1.6-.8,3.59,3.59,0,0,0,.6-2.2,3.8,3.8,0,0,0-.6-2.2,1.72,1.72,0,0,0-1.6-.8,1.94,1.94,0,0,0-1.6.8,4.33,4.33,0,0,0,0,4.4A1.94,1.94,0,0,0,881.1,59.66Z"/><path class="cls-2" d="M427.8,7.36a4.18,4.18,0,0,1-2.9.8h-2.4v4.2h-2.4V.86H425a4,4,0,0,1,2.7.9,3.43,3.43,0,0,1,1,2.8A3.4,3.4,0,0,1,427.8,7.36Zm-1.9-4.1a1.7,1.7,0,0,0-1.3-.4h-2.2v3.4h2.2a1.84,1.84,0,0,0,1.3-.4,1.73,1.73,0,0,0,.5-1.3A1.45,1.45,0,0,0,425.9,3.26Z"/><path class="cls-2" d="M432.8,3.86V9a3.09,3.09,0,0,0,.2,1.1,1.21,1.21,0,0,0,1.2.6,1.6,1.6,0,0,0,1.6-.9,4.44,4.44,0,0,0,.2-1.3V3.86h2.3v8.5H436v-1.2l-.2.2-.3.3a2.66,2.66,0,0,1-1,.6,3.59,3.59,0,0,1-1.1.2,2.45,2.45,0,0,1-2.5-1.4,5.74,5.74,0,0,1-.4-2.2V3.76h2.3Z"/><path class="cls-2" d="M447.6,4.86a5,5,0,0,1,1,3.1,5.82,5.82,0,0,1-.9,3.3,2.93,2.93,0,0,1-2.6,1.3,2.86,2.86,0,0,1-1.7-.4,3.63,3.63,0,0,1-.8-.9v1.1h-2.2V.86h2.2V5a3.82,3.82,0,0,1,.9-.9,2.41,2.41,0,0,1,1.5-.4A3.22,3.22,0,0,1,447.6,4.86Zm-1.9,5.2a3.45,3.45,0,0,0,.5-1.8,6.05,6.05,0,0,0-.2-1.5,1.63,1.63,0,0,0-1.7-1.1,1.75,1.75,0,0,0-1.7,1.1,3.42,3.42,0,0,0-.2,1.5,3.45,3.45,0,0,0,.5,1.8,1.58,1.58,0,0,0,1.5.7A1.56,1.56,0,0,0,445.7,10.06Z"/><path class="cls-2" d="M452.4,12.36h-2.2V.86h2.2Z"/><path class="cls-2" d="M456.8,2.86h-2.3V.76h2.3Zm-2.2,1h2.3v8.5h-2.3Z"/><path class="cls-2" d="M464.1,6.86a1.61,1.61,0,0,0-.3-.9,1.5,1.5,0,0,0-1.2-.5,1.43,1.43,0,0,0-1.5,1.1,6.27,6.27,0,0,0-.2,1.6,6.05,6.05,0,0,0,.2,1.5,1.59,1.59,0,0,0,1.5,1.1,1.25,1.25,0,0,0,1.1-.4,1.82,1.82,0,0,0,.4-1.1h2.3a4.38,4.38,0,0,1-.7,1.9,4.13,4.13,0,0,1-6.1.3,5.3,5.3,0,0,1-1-3.2,5,5,0,0,1,1.1-3.4,3.77,3.77,0,0,1,3-1.2,4.21,4.21,0,0,1,2.6.7,3.17,3.17,0,0,1,1.2,2.5Z"/><path class="cls-2" d="M468,12.36V.86h2.4v4.4h4.5V.86h2.4v11.5h-2.4V7.26h-4.5v5.1Z"/><path class="cls-2" d="M485,4a3.74,3.74,0,0,1,1.5,1.3,4.84,4.84,0,0,1,.7,1.8,8.12,8.12,0,0,1,.1,1.7H481a1.81,1.81,0,0,0,.9,1.8,2.13,2.13,0,0,0,1.2.3,1.59,1.59,0,0,0,1.2-.4c.2-.1.3-.3.5-.6h2.3a2.78,2.78,0,0,1-.8,1.5,4.22,4.22,0,0,1-3.2,1.2,4.72,4.72,0,0,1-3-1,4,4,0,0,1-1.3-3.4,4.55,4.55,0,0,1,1.2-3.4,4.07,4.07,0,0,1,3-1.2A6.47,6.47,0,0,1,485,4Zm-3.4,2a2.62,2.62,0,0,0-.6,1.3h3.8a1.49,1.49,0,0,0-.6-1.3,2.11,2.11,0,0,0-1.3-.5A1.66,1.66,0,0,0,481.6,6Z"/><path class="cls-2" d="M490.6,12.36h-2.2V.86h2.2Z"/><path class="cls-2" d="M495,12.36h-2.2V.86H495Z"/><path class="cls-2" d="M504.3,11.26a4.84,4.84,0,0,1-6.6,0,5.2,5.2,0,0,1,0-6.4,4.59,4.59,0,0,1,6.6,0,5.17,5.17,0,0,1,1.1,3.2A4.77,4.77,0,0,1,504.3,11.26Zm-1.8-1.2a3.68,3.68,0,0,0,.5-2,3.68,3.68,0,0,0-.5-2,2,2,0,0,0-3,0,3.68,3.68,0,0,0-.5,2,3.68,3.68,0,0,0,.5,2,2,2,0,0,0,3,0Z"/><path class="cls-2" d="M508.9,8.76a3.37,3.37,0,0,0,.4,1.2,2.44,2.44,0,0,0,2,.7,4.64,4.64,0,0,0,1.4-.2,1.27,1.27,0,0,0,1-1.3,1.05,1.05,0,0,0-.5-.9,4.3,4.3,0,0,0-1.6-.5l-1.2-.3a8.35,8.35,0,0,1-2.5-.9,2.79,2.79,0,0,1-1.2-2.5,3.63,3.63,0,0,1,1.1-2.6,4.83,4.83,0,0,1,3.3-1,4.62,4.62,0,0,1,3.1,1,3.5,3.5,0,0,1,1.4,2.8h-2.3a1.72,1.72,0,0,0-.9-1.5,3.19,3.19,0,0,0-1.4-.3,2.41,2.41,0,0,0-1.5.4,1.22,1.22,0,0,0-.6,1,1,1,0,0,0,.6.9,12.43,12.43,0,0,0,1.5.5l2,.5a6.37,6.37,0,0,1,2,.8A2.72,2.72,0,0,1,516,9a3.22,3.22,0,0,1-1.2,2.6,5.11,5.11,0,0,1-3.4,1,5.7,5.7,0,0,1-3.6-1,3.29,3.29,0,0,1-1.3-2.8Z"/><path class="cls-2" d="M523.2,4a3.74,3.74,0,0,1,1.5,1.3,4.84,4.84,0,0,1,.7,1.8,8.12,8.12,0,0,1,.1,1.7h-6.2a1.81,1.81,0,0,0,.9,1.8,2.13,2.13,0,0,0,1.2.3,1.59,1.59,0,0,0,1.2-.4c.2-.1.3-.3.5-.6h2.3a2.78,2.78,0,0,1-.8,1.5,4.22,4.22,0,0,1-3.2,1.2,4.72,4.72,0,0,1-3-1,4,4,0,0,1-1.3-3.4,4.55,4.55,0,0,1,1.2-3.4,4.07,4.07,0,0,1,3-1.2A6.46,6.46,0,0,1,523.2,4Zm-3.3,2a2.62,2.62,0,0,0-.6,1.3h3.8a1.49,1.49,0,0,0-.6-1.3,2.11,2.11,0,0,0-1.3-.5A1.43,1.43,0,0,0,519.9,6Z"/><path class="cls-2" d="M531.3,3.66h.2V6h-.7a1.81,1.81,0,0,0-1.8.9,2.81,2.81,0,0,0-.3,1.5v4h-2.2V3.86h2.1v1.5a3.09,3.09,0,0,1,.9-1.2,2.77,2.77,0,0,1,1.6-.5Z"/><path class="cls-2" d="M538,3.86h2.4l-3.1,8.5H535l-3.1-8.5h2.5l1.8,6.3Z"/><path class="cls-2" d="M544,2.86h-2.3V.76H544Zm-2.3,1H544v8.5h-2.3Z"/><path class="cls-2" d="M551.2,6.86a1.61,1.61,0,0,0-.3-.9,1.5,1.5,0,0,0-1.2-.5,1.43,1.43,0,0,0-1.5,1.1,6.27,6.27,0,0,0-.2,1.6,6.05,6.05,0,0,0,.2,1.5,1.59,1.59,0,0,0,1.5,1.1,1.25,1.25,0,0,0,1.1-.4,1.82,1.82,0,0,0,.4-1.1h2.3a4.38,4.38,0,0,1-.7,1.9,4.13,4.13,0,0,1-6.1.3,5.3,5.3,0,0,1-1-3.2,5,5,0,0,1,1.1-3.4,3.77,3.77,0,0,1,3-1.2,4.21,4.21,0,0,1,2.6.7,3.17,3.17,0,0,1,1.2,2.5Z"/><path class="cls-2" d="M560.6,4a3.74,3.74,0,0,1,1.5,1.3,4.84,4.84,0,0,1,.7,1.8,8.12,8.12,0,0,1,.1,1.7h-6.2a1.81,1.81,0,0,0,.9,1.8,2.13,2.13,0,0,0,1.2.3,1.59,1.59,0,0,0,1.2-.4c.2-.1.3-.3.5-.6h2.3a2.78,2.78,0,0,1-.8,1.5,4.22,4.22,0,0,1-3.2,1.2,4.72,4.72,0,0,1-3-1,4,4,0,0,1-1.3-3.4,4.55,4.55,0,0,1,1.2-3.4,4.07,4.07,0,0,1,3-1.2A6.46,6.46,0,0,1,560.6,4Zm-3.4,2a2.62,2.62,0,0,0-.6,1.3h3.8a1.49,1.49,0,0,0-.6-1.3,2.11,2.11,0,0,0-1.3-.5A1.66,1.66,0,0,0,557.2,6Z"/><path class="cls-2" d="M794.3,7.36a4.18,4.18,0,0,1-2.9.8H789v4.2h-2.4V.86h4.9a4,4,0,0,1,2.7.9,3.43,3.43,0,0,1,1,2.8A3.11,3.11,0,0,1,794.3,7.36Zm-1.8-4.1a1.7,1.7,0,0,0-1.3-.4H789v3.4h2.2a1.84,1.84,0,0,0,1.3-.4,1.73,1.73,0,0,0,.5-1.3A1.45,1.45,0,0,0,792.5,3.26Z"/><path class="cls-2" d="M801.8,3.66h.2V6h-.7a1.81,1.81,0,0,0-1.8.9,2.81,2.81,0,0,0-.3,1.5v4H797V3.86h2.1v1.5a3.09,3.09,0,0,1,.9-1.2,2.77,2.77,0,0,1,1.6-.5Z"/><path class="cls-2" d="M805.6,2.86h-2.3V.76h2.3Zm-2.2,1h2.3v8.5h-2.3Z"/><path class="cls-2" d="M813,3.86h2.4l-3.1,8.5H810l-3.1-8.5h2.5l1.8,6.3Z"/><path class="cls-2" d="M820,7.16a6.37,6.37,0,0,0,.9-.2.63.63,0,0,0,.5-.6.67.67,0,0,0-.4-.7,3.09,3.09,0,0,0-1.1-.2,1.25,1.25,0,0,0-1.1.4,1.14,1.14,0,0,0-.3.8h-2.1a3.22,3.22,0,0,1,.6-1.8,3.78,3.78,0,0,1,3-1.1,5.14,5.14,0,0,1,2.5.6,2.25,2.25,0,0,1,1.1,2.1v4.9a3.54,3.54,0,0,0,.1.6c0,.1.2.2.3.3v.1h-2.4a.9.9,0,0,1-.1-.5.9.9,0,0,0-.1-.5,10.63,10.63,0,0,1-1.1.9,2.93,2.93,0,0,1-1.6.4,2.49,2.49,0,0,1-1.9-.7,2.41,2.41,0,0,1-.8-1.9,2.56,2.56,0,0,1,1.2-2.3,4.44,4.44,0,0,1,2-.5Zm1.4,1a.76.76,0,0,1-.4.2c-.1.1-.3.1-.6.2l-.5.1a4.05,4.05,0,0,0-1,.3.87.87,0,0,0-.5.9c0,.4.1.7.3.8a1.91,1.91,0,0,0,.8.3,2,2,0,0,0,1.3-.4,1.75,1.75,0,0,0,.6-1.5v-.9Z"/><path class="cls-2" d="M824.7,5.46V3.86h1.2V1.46h2.2v2.4h1.4v1.6h-1.4V10c0,.3,0,.6.1.7s.4.1.8.1h.4v1.7h-1.1c-1.1,0-1.8-.1-2.2-.5a1.9,1.9,0,0,1-.4-1.2V5.56h-1Z"/><path class="cls-2" d="M836.4,4a3.74,3.74,0,0,1,1.5,1.3,4.84,4.84,0,0,1,.7,1.8,8.12,8.12,0,0,1,.1,1.7h-6.2a1.81,1.81,0,0,0,.9,1.8,2.13,2.13,0,0,0,1.2.3,1.59,1.59,0,0,0,1.2-.4c.2-.1.3-.3.5-.6h2.3a2.78,2.78,0,0,1-.8,1.5,4.22,4.22,0,0,1-3.2,1.2,4.72,4.72,0,0,1-3-1,4,4,0,0,1-1.3-3.4,4.55,4.55,0,0,1,1.2-3.4,4.07,4.07,0,0,1,3-1.2A5.33,5.33,0,0,1,836.4,4Zm-3.3,2a2.62,2.62,0,0,0-.6,1.3h3.8a1.49,1.49,0,0,0-.6-1.3,2.11,2.11,0,0,0-1.3-.5A1.54,1.54,0,0,0,833.1,6Z"/><path class="cls-2" d="M840,12.36V.86h2.4v4.4h4.5V.86h2.4v11.5h-2.4V7.26h-4.5v5.1Z"/><path class="cls-2" d="M856.9,4a3.74,3.74,0,0,1,1.5,1.3,4.84,4.84,0,0,1,.7,1.8,8.12,8.12,0,0,1,.1,1.7H853a1.81,1.81,0,0,0,.9,1.8,2.13,2.13,0,0,0,1.2.3,1.59,1.59,0,0,0,1.2-.4c.2-.1.3-.3.5-.6h2.3a2.78,2.78,0,0,1-.8,1.5,4.22,4.22,0,0,1-3.2,1.2,4.72,4.72,0,0,1-3-1,4,4,0,0,1-1.3-3.4,4.55,4.55,0,0,1,1.2-3.4,4.07,4.07,0,0,1,3-1.2A6.46,6.46,0,0,1,856.9,4Zm-3.3,2a2.62,2.62,0,0,0-.6,1.3h3.8a1.49,1.49,0,0,0-.6-1.3,2.11,2.11,0,0,0-1.3-.5A1.43,1.43,0,0,0,853.6,6Z"/><path class="cls-2" d="M862.5,12.36h-2.2V.86h2.2Z"/><path class="cls-2" d="M867,12.36h-2.2V.86H867Z"/><path class="cls-2" d="M876.2,11.26a4.84,4.84,0,0,1-6.6,0,5.2,5.2,0,0,1,0-6.4,4.59,4.59,0,0,1,6.6,0,5.17,5.17,0,0,1,1.1,3.2A4.32,4.32,0,0,1,876.2,11.26Zm-1.7-1.2a3.68,3.68,0,0,0,.5-2,3.68,3.68,0,0,0-.5-2,2,2,0,0,0-3,0,3.68,3.68,0,0,0-.5,2,3.68,3.68,0,0,0,.5,2,1.68,1.68,0,0,0,1.5.7A1.8,1.8,0,0,0,874.5,10.06Z"/><path class="cls-2" d="M880.8,8.76a3.37,3.37,0,0,0,.4,1.2,2.44,2.44,0,0,0,2,.7,4.64,4.64,0,0,0,1.4-.2,1.27,1.27,0,0,0,1-1.3,1.05,1.05,0,0,0-.5-.9,4.3,4.3,0,0,0-1.6-.5l-1.2-.3a8.35,8.35,0,0,1-2.5-.9,2.79,2.79,0,0,1-1.2-2.5,3.63,3.63,0,0,1,1.1-2.6,4.83,4.83,0,0,1,3.3-1,4.62,4.62,0,0,1,3.1,1,3.5,3.5,0,0,1,1.4,2.8h-2.3a1.72,1.72,0,0,0-.9-1.5,3.19,3.19,0,0,0-1.4-.3,2.41,2.41,0,0,0-1.5.4,1.22,1.22,0,0,0-.6,1,1,1,0,0,0,.6.9,12.43,12.43,0,0,0,1.5.5l2,.5a6.37,6.37,0,0,1,2,.8,2.72,2.72,0,0,1,1,2.4,3.22,3.22,0,0,1-1.2,2.6,5.11,5.11,0,0,1-3.4,1,5.7,5.7,0,0,1-3.6-1,3.29,3.29,0,0,1-1.3-2.8Z"/><path class="cls-2" d="M895.1,4a3.74,3.74,0,0,1,1.5,1.3,4.84,4.84,0,0,1,.7,1.8,8.12,8.12,0,0,1,.1,1.7h-6.2a1.81,1.81,0,0,0,.9,1.8,2.13,2.13,0,0,0,1.2.3,1.59,1.59,0,0,0,1.2-.4c.2-.1.3-.3.5-.6h2.3a2.78,2.78,0,0,1-.8,1.5,4.22,4.22,0,0,1-3.2,1.2,4.72,4.72,0,0,1-3-1,4,4,0,0,1-1.3-3.4,4.55,4.55,0,0,1,1.2-3.4,4.07,4.07,0,0,1,3-1.2A5.85,5.85,0,0,1,895.1,4Zm-3.3,2a2.62,2.62,0,0,0-.6,1.3H895a1.49,1.49,0,0,0-.6-1.3,2.11,2.11,0,0,0-1.3-.5A1.54,1.54,0,0,0,891.8,6Z"/><path class="cls-2" d="M903.2,3.66h.2V6h-.7a1.81,1.81,0,0,0-1.8.9,2.81,2.81,0,0,0-.3,1.5v4h-2.2V3.86h2.1v1.5a3.09,3.09,0,0,1,.9-1.2,2.77,2.77,0,0,1,1.6-.5Z"/><path class="cls-2" d="M910,3.86h2.4l-3.1,8.5H907l-3.1-8.5h2.5l1.8,6.3Z"/><path class="cls-2" d="M915.9,2.86h-2.3V.76h2.3Zm-2.3,1h2.3v8.5h-2.3Z"/><path class="cls-2" d="M923.1,6.86a1.61,1.61,0,0,0-.3-.9,1.5,1.5,0,0,0-1.2-.5,1.43,1.43,0,0,0-1.5,1.1,6.27,6.27,0,0,0-.2,1.6,6.05,6.05,0,0,0,.2,1.5,1.59,1.59,0,0,0,1.5,1.1,1.25,1.25,0,0,0,1.1-.4,1.82,1.82,0,0,0,.4-1.1h2.3a4.38,4.38,0,0,1-.7,1.9,4.13,4.13,0,0,1-6.1.3,5.3,5.3,0,0,1-1-3.2,5,5,0,0,1,1.1-3.4,3.77,3.77,0,0,1,3-1.2,4.21,4.21,0,0,1,2.6.7,3.17,3.17,0,0,1,1.2,2.5Z"/><path class="cls-2" d="M932.5,4a3.74,3.74,0,0,1,1.5,1.3,4.84,4.84,0,0,1,.7,1.8,8.12,8.12,0,0,1,.1,1.7h-6.2a1.81,1.81,0,0,0,.9,1.8,2.13,2.13,0,0,0,1.2.3,1.59,1.59,0,0,0,1.2-.4c.2-.1.3-.3.5-.6h2.3a2.78,2.78,0,0,1-.8,1.5,4.22,4.22,0,0,1-3.2,1.2,4.72,4.72,0,0,1-3-1,4,4,0,0,1-1.3-3.4,4.55,4.55,0,0,1,1.2-3.4,4.07,4.07,0,0,1,3-1.2A6.46,6.46,0,0,1,932.5,4Zm-3.3,2a2.62,2.62,0,0,0-.6,1.3h3.8a1.49,1.49,0,0,0-.6-1.3,2.11,2.11,0,0,0-1.3-.5A1.43,1.43,0,0,0,929.2,6Z"/><path class="cls-3" d="M946.6,121.06a52.51,52.51,0,0,0-.2-6.9,5.73,5.73,0,0,0-5-5,55.61,55.61,0,0,0-7.1-.2h-147a52.51,52.51,0,0,0-6.9.2,5.73,5.73,0,0,0-5,5,53,53,0,0,0-.2,6.9v20.8H521.1V137a2.25,2.25,0,0,0-3.3-2l-12.4,6.8h-5v-4.9a2.25,2.25,0,0,0-3.3-2l-12.4,6.8h-3.3v-4.9a2.25,2.25,0,0,0-3.3-2l-12.4,6.8h-267v-4.9a2.25,2.25,0,0,0-3.3-2l-15.2,8.4a1.13,1.13,0,0,0,0,2l15.2,8.4a2.25,2.25,0,0,0,3.3-2v-4.9H465.5l12.4,6.8a2.25,2.25,0,0,0,3.3-2v-4.9h3.3l12.4,6.8a2.25,2.25,0,0,0,3.3-2v-4.9h5l12.4,6.8a2.25,2.25,0,0,0,3.3-2v-4.9H775v2.5a56.13,56.13,0,0,0,.2,7.1,5.73,5.73,0,0,0,5,5,53,53,0,0,0,6.9.2h147a56.13,56.13,0,0,0,7.1-.2,5.73,5.73,0,0,0,5-5,55.61,55.61,0,0,0,.2-7.1v-27.7Z"/><path class="cls-3" d="M774.5,54.86l-15.2,8.4a2.25,2.25,0,0,1-3.3-2V46.46a2.25,2.25,0,0,1,3.3-2l15.2,8.4A1.13,1.13,0,0,1,774.5,54.86Z"/><path class="cls-4" d="M850,130.26a6.23,6.23,0,0,1,2.4-2.6,19.8,19.8,0,0,0,2.1-1.7,2.34,2.34,0,0,0,.7-1.7,2,2,0,0,0-.4-1.3,1.76,1.76,0,0,0-2.7.3,4.31,4.31,0,0,0-.3,1.5h-2.3a4.63,4.63,0,0,1,.6-2.5,3.5,3.5,0,0,1,3.4-1.8,4.5,4.5,0,0,1,3.1,1.1,3.55,3.55,0,0,1,1.1,2.8,4.07,4.07,0,0,1-.8,2.4,8.94,8.94,0,0,1-1.7,1.6l-1,.7a8.94,8.94,0,0,0-1.2.9,4.35,4.35,0,0,0-.6.7h5.3v2.1h-8.4A8.23,8.23,0,0,1,850,130.26Z"/><path class="cls-4" d="M866.5,122a9.79,9.79,0,0,1,.9,4.7,9.09,9.09,0,0,1-.9,4.6,3.39,3.39,0,0,1-3.3,1.6,3.49,3.49,0,0,1-3.3-1.6,9.62,9.62,0,0,1-.9-4.6,10.06,10.06,0,0,1,.9-4.7,4.2,4.2,0,0,1,6.6,0Zm-4.7,7.9a1.44,1.44,0,0,0,2.8,0,12.75,12.75,0,0,0,.3-3.2,13.11,13.11,0,0,0-.3-3.3,1.44,1.44,0,0,0-2.8,0,13.11,13.11,0,0,0-.3,3.3A12.75,12.75,0,0,0,861.8,129.86Z"/><path class="cls-4" d="M876.1,122a9.79,9.79,0,0,1,.9,4.7,9.09,9.09,0,0,1-.9,4.6,3.39,3.39,0,0,1-3.3,1.6,3.49,3.49,0,0,1-3.3-1.6,9.62,9.62,0,0,1-.9-4.6,10.06,10.06,0,0,1,.9-4.7,3.39,3.39,0,0,1,3.3-1.6A3.49,3.49,0,0,1,876.1,122Zm-4.7,7.9a1.44,1.44,0,0,0,2.8,0,12.75,12.75,0,0,0,.3-3.2,13.11,13.11,0,0,0-.3-3.3,1.44,1.44,0,0,0-2.8,0,13.11,13.11,0,0,0-.3,3.3A9.3,9.3,0,0,0,871.4,129.86Z"/><path class="cls-4" d="M792.87,148.46a3.13,3.13,0,0,1,.8.56,2.36,2.36,0,0,1,.38.57,1.69,1.69,0,0,1,.12.66,4.86,4.86,0,0,1-.11.88l-.15.67a4.15,4.15,0,0,0-.12.8.81.81,0,0,0,.28.61,1.82,1.82,0,0,0,1.15.25h.9v.91h-.91a2.85,2.85,0,0,1-2.07-.52,1.68,1.68,0,0,1-.46-1.16,3.47,3.47,0,0,1,.09-.75l.1-.47.1-.51.07-.31a2,2,0,0,0,0-.42,1.32,1.32,0,0,0-.36-.93,1.75,1.75,0,0,0-1.29-.39h-.52V148h.52a1.72,1.72,0,0,0,1.28-.38,1.29,1.29,0,0,0,.37-1,1.9,1.9,0,0,0,0-.41L793,146l-.1-.51-.1-.47a3.47,3.47,0,0,1-.09-.75,1.68,1.68,0,0,1,.46-1.16,2.85,2.85,0,0,1,2.07-.52h.91v.91h-.9a1.82,1.82,0,0,0-1.15.25.8.8,0,0,0-.28.61,4.33,4.33,0,0,0,.12.81l.15.67a4.77,4.77,0,0,1,.11.87,1.69,1.69,0,0,1-.12.66,2,2,0,0,1-.38.57A3.13,3.13,0,0,1,792.87,148.46Z"/><path class="cls-4" d="M799.08,152.19v-6.55h1v1.5a4.7,4.7,0,0,1,.84-1.32,1.16,1.16,0,0,1,.79-.36.92.92,0,0,1,.76.37,1.65,1.65,0,0,1,.29,1.06v.35a3.51,3.51,0,0,1,.47-1,2.9,2.9,0,0,1,.56-.59,1.09,1.09,0,0,1,.68-.22.91.91,0,0,1,.72.36,2.35,2.35,0,0,1,.3,1.42v4.95h-1v-4.47a6.3,6.3,0,0,0,0-.76.6.6,0,0,0-.14-.3.33.33,0,0,0-.23-.11c-.2,0-.42.16-.65.47a5.72,5.72,0,0,0-.72,1.54v3.63h-.9v-4.47c0-.58-.06-.91-.18-1a.47.47,0,0,0-.3-.15c-.2,0-.42.17-.64.52a7.27,7.27,0,0,0-.66,1.34v3.78Z"/><path class="cls-4" d="M806.79,151.84v-1.15a4.61,4.61,0,0,0,1.39.6,5.94,5.94,0,0,0,1.25.17,2,2,0,0,0,1.18-.27.76.76,0,0,0,.37-.66.64.64,0,0,0-.17-.45,2.61,2.61,0,0,0-.85-.46l-.37-.16-.76-.3a3.79,3.79,0,0,1-1.53-.87,1.48,1.48,0,0,1-.32-1,1.64,1.64,0,0,1,.62-1.33,3.21,3.21,0,0,1,2-.52,6.23,6.23,0,0,1,2,.31v1a6,6,0,0,0-2-.39,2.07,2.07,0,0,0-1.09.24.71.71,0,0,0-.39.61.65.65,0,0,0,.34.56,7.12,7.12,0,0,0,1.09.49l.74.27a3.71,3.71,0,0,1,1.43.8,1.52,1.52,0,0,1,.4,1.08,1.72,1.72,0,0,1-.65,1.4,3.19,3.19,0,0,1-2.09.55A7,7,0,0,1,806.79,151.84Z"/><path class="cls-4" d="M817.76,150.72a3.63,3.63,0,0,1-1.2,1.23,2.57,2.57,0,0,1-1.29.42,2,2,0,0,1-1.48-.71,3.11,3.11,0,0,1-.65-2.15,4.58,4.58,0,0,1,.43-2,3.62,3.62,0,0,1,1.16-1.41,3,3,0,0,1,1.81-.52q.3,0,.93.06l.28,0h1.1v4.63c0,1.1,0,1.78-.05,2a4,4,0,0,1-.14.74,2.24,2.24,0,0,1-1.07,1.38,3.88,3.88,0,0,1-2,.5,5.35,5.35,0,0,1-2.41-.61v-1.1a5,5,0,0,0,1.14.56,4,4,0,0,0,1.31.24,3,3,0,0,0,.95-.15,1.76,1.76,0,0,0,.72-.46,1.65,1.65,0,0,0,.38-.7,4.77,4.77,0,0,0,.1-1.05Zm0-1.3v-2.81a4.37,4.37,0,0,0-1.08-.15,2.14,2.14,0,0,0-1.69.78,3.19,3.19,0,0,0-.67,2.12,2.42,2.42,0,0,0,.37,1.47,1,1,0,0,0,.84.5,1.85,1.85,0,0,0,1.12-.52A5,5,0,0,0,817.76,149.42Z"/><path class="cls-4" d="M822.73,147.37a.89.89,0,0,1-.67-.28.93.93,0,0,1,0-1.35,1,1,0,0,1,1.34,1.35A.89.89,0,0,1,822.73,147.37Zm0,5.09a.89.89,0,0,1-.67-.28.93.93,0,0,1,0-1.35.94.94,0,0,1,1.34,0,1,1,0,0,1,0,1.35A.89.89,0,0,1,822.73,152.46Z"/><path class="cls-4" d="M833.74,146H833l-.38-3.28h1.47Zm2.53,0h-.74l-.34-3.28h1.43Z"/><path class="cls-4" d="M838.41,152.19v-9.1h1.19V147H843v-3.92h1.18v9.1H843v-4.27H839.6v4.27Z"/><path class="cls-4" d="M850.69,151.75a5.84,5.84,0,0,1-2.47.62,3,3,0,0,1-1.59-.44,3.12,3.12,0,0,1-1.11-1.26,3.73,3.73,0,0,1-.42-1.74,3.84,3.84,0,0,1,.4-1.72,3,3,0,0,1,1.11-1.29,2.87,2.87,0,0,1,1.59-.46,2.36,2.36,0,0,1,1.88.83,3.91,3.91,0,0,1,.7,2.56v.24h-4.51a2.7,2.7,0,0,0,.29,1.24,1.94,1.94,0,0,0,.74.85,2,2,0,0,0,1.06.28,4.89,4.89,0,0,0,2.33-.7Zm-4.35-3.48h3.26v-.15a2,2,0,0,0-.39-1.28,1.3,1.3,0,0,0-1.05-.47,1.58,1.58,0,0,0-1.15.48A2.7,2.7,0,0,0,846.34,148.27Z"/><path class="cls-4" d="M853.66,152.19v-8.55h-1.95v-.91h3v8.55h2v.91Z"/><path class="cls-4" d="M860.33,152.19v-8.55h-2v-.91h3v8.55h2v.91Z"/><path class="cls-4" d="M867.92,152.37a2.85,2.85,0,0,1-2.25-1,4.07,4.07,0,0,1,0-4.95,2.85,2.85,0,0,1,2.25-1,2.82,2.82,0,0,1,2.24,1,4,4,0,0,1,0,4.95A2.82,2.82,0,0,1,867.92,152.37Zm0-.91a1.67,1.67,0,0,0,1.39-.68,3.67,3.67,0,0,0,0-3.73,1.76,1.76,0,0,0-2.78,0,3.6,3.6,0,0,0,0,3.73A1.66,1.66,0,0,0,867.92,151.46Z"/><path class="cls-4" d="M878.83,152.19l-1.07-6.55h1l.62,4,.16.92.16-.92,1-4h1l1.18,4,.2.92.14-.92.63-4h.83l-1.06,6.55h-1L881.39,148l-.2-.92h0L881,148l-1.09,4.22Z"/><path class="cls-4" d="M887.91,152.37a2.82,2.82,0,0,1-2.25-1,4,4,0,0,1,0-4.95,3.06,3.06,0,0,1,4.49,0,4.07,4.07,0,0,1,0,4.95A2.83,2.83,0,0,1,887.91,152.37Zm0-.91a1.64,1.64,0,0,0,1.38-.68,3.6,3.6,0,0,0,0-3.73,1.64,1.64,0,0,0-1.38-.68,1.68,1.68,0,0,0-1.4.68,3.67,3.67,0,0,0,0,3.73A1.68,1.68,0,0,0,887.91,151.46Z"/><path class="cls-4" d="M892.43,152.19v-6.55h1.09v1.43a3.68,3.68,0,0,1,1.17-1.21,2.84,2.84,0,0,1,1.47-.4,4,4,0,0,1,1.18.18V148h-1.05v-1.49a3,3,0,0,0-.43,0,1.88,1.88,0,0,0-1.2.48,5.15,5.15,0,0,0-1.14,1.45v3.8Z"/><path class="cls-4" d="M900.29,152.19v-8.55h-1.95v-.91h3v8.55h2v.91Z"/><path class="cls-4" d="M909.57,150.72a3.46,3.46,0,0,1-1.2,1.23,2.51,2.51,0,0,1-1.28.42,2,2,0,0,1-1.48-.71,3.06,3.06,0,0,1-.65-2.15,4.58,4.58,0,0,1,.43-2,3.62,3.62,0,0,1,1.16-1.41,3,3,0,0,1,1.8-.52c.21,0,.52,0,.94.06l.28,0v-2.91h1.09v9.46h-1.09Zm0-1.3v-2.81a4.25,4.25,0,0,0-1.08-.15,2.13,2.13,0,0,0-1.68.78,3.13,3.13,0,0,0-.67,2.12,2.42,2.42,0,0,0,.37,1.47,1,1,0,0,0,.83.5,1.87,1.87,0,0,0,1.13-.52A4.8,4.8,0,0,0,909.57,149.42Z"/><path class="cls-4" d="M914.55,152.46a.84.84,0,0,1,0-1.68.81.81,0,0,1,.59.24.84.84,0,0,1-.59,1.44ZM914,149.6l-.27-6.51h1.46L915,149.6Z"/><path class="cls-4" d="M920.34,146h-.76l-.37-3.28h1.46Zm2.53,0h-.75l-.33-3.28h1.43Z"/><path class="cls-4" d="M930.12,148.46a3.13,3.13,0,0,1-.8-.56,1.8,1.8,0,0,1-.37-.57,1.53,1.53,0,0,1-.13-.66,4.77,4.77,0,0,1,.11-.87l.15-.67a4.33,4.33,0,0,0,.12-.81.8.8,0,0,0-.28-.61,1.82,1.82,0,0,0-1.15-.25h-.91v-.91h.92a2.86,2.86,0,0,1,2.08.52,1.68,1.68,0,0,1,.46,1.16,3.33,3.33,0,0,1-.09.75l-.11.47-.1.51-.07.3a3.44,3.44,0,0,0,0,.43,1.29,1.29,0,0,0,.37.93,1.72,1.72,0,0,0,1.29.38h.52v.91h-.52a1.75,1.75,0,0,0-1.29.39,1.33,1.33,0,0,0-.37.95,2.58,2.58,0,0,0,0,.4l.07.31.1.51.11.47a3.47,3.47,0,0,1,.09.75,1.66,1.66,0,0,1-.46,1.16,2.86,2.86,0,0,1-2.08.52h-.92v-.91h.91a1.82,1.82,0,0,0,1.15-.25.81.81,0,0,0,.28-.61,4.15,4.15,0,0,0-.12-.8l-.15-.67a4.86,4.86,0,0,1-.11-.88,1.53,1.53,0,0,1,.13-.66,2,2,0,0,1,.37-.57A3.13,3.13,0,0,1,930.12,148.46Z"/><path class="cls-2" d="M22.53,143.89a3,3,0,0,1,.8.56,2.1,2.1,0,0,1,.38.57,1.74,1.74,0,0,1,.13.67,4.22,4.22,0,0,1-.12.87l-.15.67a4.84,4.84,0,0,0-.11.8.79.79,0,0,0,.27.61,1.82,1.82,0,0,0,1.15.25h.91v.91h-.92a2.85,2.85,0,0,1-2.07-.52,1.72,1.72,0,0,1-.46-1.16,3.47,3.47,0,0,1,.09-.75l.1-.47.1-.51.07-.31a2,2,0,0,0,.05-.42,1.33,1.33,0,0,0-.37-.93,1.71,1.71,0,0,0-1.29-.39h-.52v-.9h.52a1.7,1.7,0,0,0,1.28-.39,1.29,1.29,0,0,0,.38-.94,1.93,1.93,0,0,0-.05-.42l-.07-.3-.1-.51-.1-.47a3.47,3.47,0,0,1-.09-.75,1.72,1.72,0,0,1,.46-1.16,2.85,2.85,0,0,1,2.07-.52h.92v.91h-.91a1.78,1.78,0,0,0-1.14.25.78.78,0,0,0-.28.61,4.93,4.93,0,0,0,.11.81l.15.67a4.22,4.22,0,0,1,.12.87,1.69,1.69,0,0,1-.13.66,1.83,1.83,0,0,1-.38.57A3,3,0,0,1,22.53,143.89Z"/><path class="cls-2" d="M28.75,147.62v-6.55h.95v1.5a4.47,4.47,0,0,1,.84-1.31,1.15,1.15,0,0,1,.79-.37,1,1,0,0,1,.77.37,1.71,1.71,0,0,1,.29,1.06v.35a3.51,3.51,0,0,1,.46-1,2.92,2.92,0,0,1,.57-.59,1.12,1.12,0,0,1,.67-.22.91.91,0,0,1,.72.36,2.35,2.35,0,0,1,.3,1.42v5h-1v-4.47a5.42,5.42,0,0,0,0-.75.53.53,0,0,0-.14-.31.33.33,0,0,0-.23-.11c-.2,0-.42.16-.65.47a5.76,5.76,0,0,0-.71,1.54v3.63h-.91v-4.47a1.78,1.78,0,0,0-.17-1A.52.52,0,0,0,31,142c-.2,0-.41.18-.64.52a7.27,7.27,0,0,0-.66,1.34v3.78Z"/><path class="cls-2" d="M36.46,147.27v-1.15a4.51,4.51,0,0,0,1.39.6,5.77,5.77,0,0,0,1.24.17,2.12,2.12,0,0,0,1.19-.26.81.81,0,0,0,.36-.67.64.64,0,0,0-.17-.45,2.42,2.42,0,0,0-.84-.46l-.38-.16-.75-.29a3.88,3.88,0,0,1-1.54-.88,1.54,1.54,0,0,1-.32-1,1.67,1.67,0,0,1,.62-1.33,3.23,3.23,0,0,1,2-.52,6.23,6.23,0,0,1,2,.31v1a6,6,0,0,0-2-.39,2.06,2.06,0,0,0-1.08.24.72.72,0,0,0-.39.61.63.63,0,0,0,.34.56,5.61,5.61,0,0,0,1.09.49L40,144a3.66,3.66,0,0,1,1.42.8,1.54,1.54,0,0,1,.41,1.09,1.72,1.72,0,0,1-.66,1.39,3.18,3.18,0,0,1-2.08.55A7,7,0,0,1,36.46,147.27Z"/><path class="cls-2" d="M47.42,146.15a3.46,3.46,0,0,1-1.2,1.23,2.57,2.57,0,0,1-1.29.42,2,2,0,0,1-1.47-.71,3.06,3.06,0,0,1-.66-2.15,4.59,4.59,0,0,1,.44-2,3.6,3.6,0,0,1,1.16-1.41,3,3,0,0,1,1.8-.52c.21,0,.52,0,.94.06l.28,0h1.09v4.63c0,1.1,0,1.78,0,2a6.42,6.42,0,0,1-.14.74,2.32,2.32,0,0,1-1.07,1.38,3.81,3.81,0,0,1-2,.5,5.28,5.28,0,0,1-2.41-.61v-1.1a4.84,4.84,0,0,0,1.14.56,3.94,3.94,0,0,0,1.31.25,2.9,2.9,0,0,0,.94-.16,1.76,1.76,0,0,0,.72-.46,1.57,1.57,0,0,0,.38-.69,4.37,4.37,0,0,0,.1-1.06Zm0-1.3V142a4.37,4.37,0,0,0-1.08-.15,2.13,2.13,0,0,0-1.68.78,3.13,3.13,0,0,0-.67,2.12,2.49,2.49,0,0,0,.36,1.47,1.07,1.07,0,0,0,.84.5,1.81,1.81,0,0,0,1.13-.52A5,5,0,0,0,47.42,144.85Z"/><path class="cls-2" d="M52.39,142.8a1,1,0,0,1-.67-1.63.92.92,0,0,1,.67-.28.91.91,0,0,1,.67.28.92.92,0,0,1,.29.68,1,1,0,0,1-.28.67A.93.93,0,0,1,52.39,142.8Zm0,5.09a.91.91,0,0,1-.67-.28.89.89,0,0,1-.28-.67.91.91,0,0,1,.28-.68,1,1,0,0,1,.67-.28,1,1,0,0,1,.67.28,1,1,0,0,1-.67,1.63Z"/><path class="cls-2" d="M63.41,141.44h-.76l-.37-3.28h1.46Zm2.52,0h-.74l-.33-3.28h1.43Z"/><path class="cls-2" d="M68.08,147.62v-9.1h1.18v3.92h3.35v-3.92H73.8v9.1H72.61v-4.27H69.26v4.27Z"/><path class="cls-2" d="M80.35,147.18a5.81,5.81,0,0,1-2.47.62,2.91,2.91,0,0,1-1.58-.44,3.1,3.1,0,0,1-1.12-1.25,3.79,3.79,0,0,1-.42-1.75,4,4,0,0,1,.4-1.72,3.19,3.19,0,0,1,1.11-1.29,3,3,0,0,1,1.6-.46,2.34,2.34,0,0,1,1.87.83,3.91,3.91,0,0,1,.71,2.56v.24H75.93a2.7,2.7,0,0,0,.29,1.24,2,2,0,0,0,.75.85,1.94,1.94,0,0,0,1,.28,4.89,4.89,0,0,0,2.33-.7ZM76,143.7h3.26v-.15a2,2,0,0,0-.39-1.28,1.3,1.3,0,0,0-1.05-.47,1.56,1.56,0,0,0-1.14.48A2.7,2.7,0,0,0,76,143.7Z"/><path class="cls-2" d="M83.33,147.62v-8.55h-2v-.91h3v8.55h2v.91Z"/><path class="cls-2" d="M90,147.62v-8.55H88v-.91h3v8.55h2v.91Z"/><path class="cls-2" d="M97.58,147.8a2.82,2.82,0,0,1-2.24-1,4,4,0,0,1,0-4.95,3.06,3.06,0,0,1,4.49,0,4.07,4.07,0,0,1,0,4.95A2.84,2.84,0,0,1,97.58,147.8Zm0-.91a1.62,1.62,0,0,0,1.39-.68,3.6,3.6,0,0,0,0-3.73,1.65,1.65,0,0,0-1.39-.68,1.67,1.67,0,0,0-1.39.68,3.67,3.67,0,0,0,0,3.73A1.65,1.65,0,0,0,97.58,146.89Z"/><path class="cls-2" d="M108.49,147.62l-1.07-6.55h1l.62,4,.17.92.15-.92,1-4h1l1.18,4,.21.92.13-.92.63-4h.83l-1.06,6.55h-1l-1.25-4.21-.2-.93h0l-.18.92-1.09,4.22Z"/><path class="cls-2" d="M117.57,147.8a2.82,2.82,0,0,1-2.25-1,4.07,4.07,0,0,1,0-4.95,3.06,3.06,0,0,1,4.49,0,4.07,4.07,0,0,1,0,4.95A2.82,2.82,0,0,1,117.57,147.8Zm0-.91a1.65,1.65,0,0,0,1.39-.68,3.67,3.67,0,0,0,0-3.73,1.67,1.67,0,0,0-1.39-.68,1.65,1.65,0,0,0-1.39.68,3.6,3.6,0,0,0,0,3.73A1.62,1.62,0,0,0,117.57,146.89Z"/><path class="cls-2" d="M122.09,147.62v-6.55h1.09v1.43a3.68,3.68,0,0,1,1.17-1.21,2.84,2.84,0,0,1,1.47-.4,4,4,0,0,1,1.18.18v2.37h-1v-1.5a3.09,3.09,0,0,0-.44-.05,1.88,1.88,0,0,0-1.19.48,5.31,5.31,0,0,0-1.15,1.45v3.8Z"/><path class="cls-2" d="M130,147.62v-8.55h-2v-.91h3.05v8.55h2v.91Z"/><path class="cls-2" d="M139.24,146.15a3.63,3.63,0,0,1-1.2,1.23,2.57,2.57,0,0,1-1.29.42,2,2,0,0,1-1.48-.71,3.11,3.11,0,0,1-.65-2.15,4.58,4.58,0,0,1,.43-2,3.69,3.69,0,0,1,1.16-1.41A3,3,0,0,1,138,141c.2,0,.52,0,.94.06l.28,0v-2.91h1.09v9.46h-1.09Zm0-1.3V142a4.37,4.37,0,0,0-1.08-.15,2.14,2.14,0,0,0-1.69.78,3.19,3.19,0,0,0-.67,2.12,2.42,2.42,0,0,0,.37,1.47,1,1,0,0,0,.84.5,1.79,1.79,0,0,0,1.12-.52A5,5,0,0,0,139.24,144.85Z"/><path class="cls-2" d="M144.22,147.89a.85.85,0,0,1-.6-.24.86.86,0,0,1-.25-.6.85.85,0,0,1,.85-.84.85.85,0,0,1,.83.84.84.84,0,0,1-.83.84Zm-.51-2.86-.27-6.51h1.46l-.27,6.51Z"/><path class="cls-2" d="M150,141.44h-.75l-.38-3.28h1.47Zm2.53,0h-.74l-.34-3.28h1.43Z"/><path class="cls-2" d="M159.79,143.89a3,3,0,0,1-.8-.56,1.83,1.83,0,0,1-.38-.57,1.69,1.69,0,0,1-.12-.66,4.09,4.09,0,0,1,.11-.87l.14-.67a4.33,4.33,0,0,0,.12-.81.78.78,0,0,0-.28-.61,1.78,1.78,0,0,0-1.14-.25h-.91V138h.92a2.85,2.85,0,0,1,2.07.52,1.69,1.69,0,0,1,.47,1.16,3.37,3.37,0,0,1-.1.75l-.1.47-.1.51-.07.3a2.22,2.22,0,0,0,0,.43,1.32,1.32,0,0,0,.36.93,1.75,1.75,0,0,0,1.29.39h.52v.9h-.52a1.72,1.72,0,0,0-1.28.39,1.29,1.29,0,0,0-.37,1,1.75,1.75,0,0,0,0,.4l.07.31.1.51.1.47a3.52,3.52,0,0,1,.1.75,1.71,1.71,0,0,1-.47,1.17,2.91,2.91,0,0,1-2.07.51h-.92v-.91h.91a1.78,1.78,0,0,0,1.14-.25.77.77,0,0,0,.28-.61,4.15,4.15,0,0,0-.12-.8l-.14-.67a4.09,4.09,0,0,1-.11-.87,1.74,1.74,0,0,1,.12-.67,2.1,2.1,0,0,1,.38-.57A3,3,0,0,1,159.79,143.89Z"/></svg>