<?xml version="1.0" encoding="utf-8"?>
<!-- Generator: Adobe Illustrator 21.1.0, SVG Export Plug-In . SVG Version: 6.00 Build 0)  -->
<svg class="<%= className || '' %>" version="1.1" id="Layer_1" xmlns="http://www.w3.org/2000/svg" xmlns:xlink="http://www.w3.org/1999/xlink" x="0px" y="0px"
	 viewBox="0 0 649.5 498.7" style="enable-background:new 0 0 649.5 498.7;" xml:space="preserve">
<style type="text/css">
	.svg-logo-mark--light{fill:#F9FAFC;}
</style>
<path class="svg-logo-mark--light" d="M283.2,270.9v-47.6c0-38.8,16.4-49.2,56.5-49.2c26.8,0,44.6,6,59.6,13.3V122c-14.9-6-34.2-13.3-61-13.3
	c-81.8,0-123.5,44.6-123.5,113.1v50.6c0,72.9,38.8,113.1,126.5,113.1c25.3,0,43.2-6,64-11.9v-64c-19.3,6-37.2,10.4-59.6,10.4
	C301.1,321.6,283.2,309.6,283.2,270.9z"/>
<path class="svg-logo-mark--light" d="M633.1,215.9c-28.3,0-43.2-29.7-43.2-75.9v-34.2c0-68.5-38.8-105.7-95.3-105.7h-31.3v56.5h23.8
	c28.3,0,40.2,19.3,40.2,61v32.8c0,35.7,8.9,74.5,43.2,93.8c-34.2,17.9-43.2,56.5-43.2,93.8v43.2c0,41.7-11.9,61-40.2,61h-23.8v56.5
	h31.3c55,0,95.3-37.2,95.3-105.7v-44.6c0-46.1,14.9-75.9,43.2-75.9h16.4V216C649.5,215.9,633.1,215.9,633.1,215.9z"/>
<path class="svg-logo-mark--light" d="M59.6,105.7v34.2c0,46.1-14.9,75.9-43.2,75.9H0v56.5h16.4c28.3,0,43.2,28.3,43.2,75.9v44.6
	c0,68.5,40.2,105.7,95.3,105.7h31.3v-56.5h-23.8c-28.3,0-40.2-19.3-40.2-61v-43.2c0-37.2-8.9-77.4-43.2-93.8
	c35.7-19.3,43.2-58.1,43.2-93.8v-32.5c0-41.7,11.9-61,40.2-61h23.8V0h-31.3C98.2,0,59.6,35.8,59.6,105.7z"/>
</svg>
