<?xml version="1.0" encoding="utf-8"?>
<!-- Generator: Adobe Illustrator 21.1.0, SVG Export Plug-In . SVG Version: 6.00 Build 0)  -->
<svg version="1.1" id="Layer_1" xmlns="http://www.w3.org/2000/svg" xmlns:xlink="http://www.w3.org/1999/xlink" x="0px" y="0px"
	 viewBox="0 0 512 512" style="enable-background:new 0 0 512 512;" xml:space="preserve">
<style type="text/css">
	.st0{fill:#397EFF;}
	.st1{fill:#ACA8AB;}
	.st2{fill:#E4B62C;}
</style>
<path class="st0" d="M134.1,150.7H63.9c-9.7,0-17.6-7.8-17.6-17.6l0,0c0-9.7,7.8-17.5,17.5-17.5H134c9.7,0,17.6,7.8,17.6,17.6l0,0
	C151.6,142.8,143.8,150.7,134.1,150.7z"/>
<path class="st1" d="M256.9,150.7h-70.2c-9.7,0-17.6-7.8-17.6-17.6l0,0c0-9.7,7.8-17.6,17.6-17.6h70.2c9.7,0,17.6,7.8,17.6,17.6l0,0
	C274.5,142.8,266.7,150.7,256.9,150.7z"/>
<path class="st1" d="M450,150.7h-70.2c-9.7,0-17.6-7.8-17.6-17.6l0,0c0-9.7,7.8-17.6,17.6-17.6H450c9.7,0,17.6,7.8,17.6,17.6l0,0
	C467.6,142.8,459.7,150.7,450,150.7z"/>
<path class="st1" d="M327.2,150.7h-17.6c-9.7,0-17.6-7.8-17.6-17.6l0,0c0-9.7,7.8-17.6,17.6-17.6h17.6c9.7,0,17.6,7.8,17.6,17.6l0,0
	C344.7,142.8,336.9,150.7,327.2,150.7z"/>
<path class="st1" d="M327.2,203.3H257c-9.7,0-17.6-7.8-17.6-17.6l0,0c0-9.7,7.8-17.6,17.6-17.6h70.2c9.7,0,17.6,7.8,17.6,17.6l0,0
	C344.7,195.5,336.9,203.3,327.2,203.3z"/>
<path class="st1" d="M450,203.3h-70.2c-9.7,0-17.6-7.8-17.6-17.6l0,0c0-9.7,7.8-17.6,17.6-17.6H450c9.7,0,17.6,7.8,17.6,17.6l0,0
	C467.6,195.5,459.7,203.3,450,203.3z"/>
<path class="st1" d="M274.5,256h-87.8c-9.7,0-17.6-7.8-17.6-17.6l0,0c0-9.7,7.8-17.6,17.6-17.6h87.8c9.7,0,17.6,7.8,17.6,17.6l0,0
	C292.1,248.1,284.2,256,274.5,256z"/>
<path class="st1" d="M204.3,203.3h-17.6c-9.7,0-17.6-7.8-17.6-17.6l0,0c0-9.7,7.8-17.6,17.6-17.6h17.6c9.7,0,17.6,7.8,17.6,17.6l0,0
	C221.8,195.5,214,203.3,204.3,203.3z"/>
<path class="st2" d="M344.7,256h-17.5c-9.7,0-17.6-7.8-17.6-17.6l0,0c0-9.7,7.8-17.6,17.6-17.6h17.6c9.7,0,17.6,7.8,17.6,17.6l0,0
	C362.3,248.1,354.4,256,344.7,256z"/>
<path class="st0" d="M134.1,343.8H63.9c-9.7,0-17.6-7.8-17.6-17.6l0,0c0-9.7,7.8-17.6,17.6-17.6h70.2c9.7,0,17.6,7.8,17.6,17.6l0,0
	C151.6,335.9,143.8,343.8,134.1,343.8z"/>
<path class="st1" d="M327.2,343.8H257c-9.7,0-17.6-7.8-17.6-17.6l0,0c0-9.7,7.8-17.6,17.6-17.6h70.2c9.7,0,17.6,7.8,17.6,17.6l0,0
	C344.7,335.9,336.9,343.8,327.2,343.8z"/>
<path class="st1" d="M450,343.8h-70.2c-9.7,0-17.6-7.8-17.6-17.6l0,0c0-9.7,7.8-17.6,17.6-17.6H450c9.7,0,17.6,7.8,17.6,17.6l0,0
	C467.6,335.9,459.7,343.8,450,343.8z"/>
<path class="st1" d="M274.5,396.4h-87.8c-9.7,0-17.6-7.8-17.6-17.6l0,0c0-9.7,7.8-17.6,17.6-17.6h87.8c9.7,0,17.6,7.8,17.6,17.6l0,0
	C292.1,388.5,284.2,396.4,274.5,396.4z"/>
<path class="st1" d="M204.3,343.8h-17.6c-9.7,0-17.6-7.8-17.6-17.6l0,0c0-9.7,7.8-17.6,17.6-17.6h17.6c9.7,0,17.6,7.8,17.6,17.6l0,0
	C221.8,335.9,214,343.8,204.3,343.8z"/>
<path class="st2" d="M344.7,396.4h-17.5c-9.7,0-17.6-7.8-17.6-17.6l0,0c0-9.7,7.8-17.6,17.6-17.6h17.6c9.7,0,17.6,7.8,17.6,17.6l0,0
	C362.3,388.5,354.4,396.4,344.7,396.4z"/>
</svg>
