<?xml version="1.0" encoding="utf-8"?>
<!-- Generator: Adobe Illustrator 21.1.0, SVG Export Plug-In . SVG Version: 6.00 Build 0)  -->
<svg version="1.1" id="Layer_1" xmlns="http://www.w3.org/2000/svg" xmlns:xlink="http://www.w3.org/1999/xlink" x="0px" y="0px"
	 viewBox="0 0 512 512" style="enable-background:new 0 0 512 512;" xml:space="preserve">
<style type="text/css">
	.st0{fill:#397EFF;}
	.st1{fill:#16C690;}
	.st2{fill:#E4B62C;}
	.st3{fill:#ACA8AB;}
</style>
<path class="st0" d="M214.7,148.6H16.5c-9.1,0-16.5-7.4-16.5-16.5l0,0c0-9.1,7.4-16.5,16.5-16.5h198.2c9.1,0,16.5,7.4,16.5,16.5l0,0
	C231.2,141.3,223.8,148.6,214.7,148.6z"/>
<path class="st0" d="M495.5,247.7H198.2c-9.1,0-16.5-7.4-16.5-16.5l0,0c0-9.1,7.4-16.5,16.5-16.5h297.3c9.1,0,16.5,7.4,16.5,16.5
	l0,0C512,240.3,504.6,247.7,495.5,247.7z"/>
<path class="st1" d="M247.7,297.3h-66.1c-9.1,0-16.5-7.4-16.5-16.5l0,0c0-9.1,7.4-16.5,16.5-16.5h66.1c9.1,0,16.5,7.4,16.5,16.5l0,0
	C264.3,289.9,256.9,297.3,247.7,297.3z"/>
<path class="st2" d="M264.3,198.2H49.5c-9.1,0-16.5-7.4-16.5-16.5l0,0c0-9.1,7.4-16.5,16.5-16.5h214.7c9.1,0,16.5,7.4,16.5,16.5l0,0
	C280.8,190.8,273.4,198.2,264.3,198.2z"/>
<path class="st2" d="M379.9,198.2h-66.1c-9.1,0-16.5-7.4-16.5-16.5l0,0c0-9.1,7.4-16.5,16.5-16.5h66.1c9.1,0,16.5,7.4,16.5,16.5l0,0
	C396.4,190.8,389,198.2,379.9,198.2z"/>
<path class="st3" d="M280.8,148.6h-16.5c-9.1,0-16.5-7.4-16.5-16.5l0,0c0-9.1,7.4-16.5,16.5-16.5h16.5c9.1,0,16.5,7.4,16.5,16.5l0,0
	C297.3,141.3,289.9,148.6,280.8,148.6z"/>
<path class="st3" d="M445.9,198.2h-16.5c-9.1,0-16.5-7.4-16.5-16.5l0,0c0-9.1,7.4-16.5,16.5-16.5h16.5c9.1,0,16.5,7.4,16.5,16.5l0,0
	C462.5,190.8,455.1,198.2,445.9,198.2z"/>
<path class="st3" d="M66.1,346.8H49.5c-9.1,0-16.5-7.4-16.5-16.5l0,0c0-9.1,7.4-16.5,16.5-16.5H66c9.1,0,16.5,7.4,16.5,16.5l0,0
	C82.6,339.4,75.2,346.8,66.1,346.8z"/>
<path class="st3" d="M148.6,247.7h-66c-9.1,0-16.5-7.4-16.5-16.5l0,0c0-9.1,7.4-16.5,16.5-16.5h66.1c9.1,0,16.5,7.4,16.5,16.5l0,0
	C165.2,240.3,157.8,247.7,148.6,247.7z"/>
<path class="st3" d="M132.1,297.3H82.6c-9.1,0-16.5-7.4-16.5-16.5l0,0c0-9.1,7.4-16.5,16.5-16.5h49.5c9.1,0,16.5,7.4,16.5,16.5l0,0
	C148.6,289.9,141.3,297.3,132.1,297.3z"/>
<path class="st3" d="M330.3,148.6L330.3,148.6c-9.1,0-16.5-7.4-16.5-16.5l0,0c0-9.1,7.4-16.5,16.5-16.5l0,0
	c9.1,0,16.5,7.4,16.5,16.5l0,0C346.8,141.3,339.4,148.6,330.3,148.6z"/>
<path class="st3" d="M16.5,396.4L16.5,396.4C7.4,396.4,0,389,0,379.9l0,0c0-9.1,7.4-16.5,16.5-16.5l0,0c9.1,0,16.5,7.4,16.5,16.5
	l0,0C33,389,25.6,396.4,16.5,396.4z"/>
</svg>
