<?xml version="1.0" standalone="no"?>
<!DOCTYPE svg PUBLIC "-//W3C//DTD SVG 20010904//EN"
 "http://www.w3.org/TR/2001/REC-SVG-20010904/DTD/svg10.dtd">
<svg version="1.0" xmlns="http://www.w3.org/2000/svg"
 width="500.000000pt" height="500.000000pt" viewBox="0 0 500.000000 500.000000"
 preserveAspectRatio="xMidYMid meet">
<metadata>
Created by potrace 1.11, written by Peter Selinger 2001-2013
</metadata>
<g transform="translate(0.000000,500.000000) scale(0.100000,-0.100000)"
fill="#000000" stroke="none">
<path d="M1280 4165 c-242 -49 -406 -206 -472 -454 -17 -63 -21 -123 -28 -361
-9 -312 -15 -355 -73 -470 -35 -71 -92 -122 -155 -140 -20 -5 -70 -10 -109
-10 l-73 0 0 -189 0 -189 92 -4 c136 -6 197 -44 251 -153 52 -105 58 -148 67
-490 7 -276 10 -331 29 -398 59 -221 202 -377 405 -443 71 -24 102 -27 259
-32 l177 -4 0 191 0 191 -102 0 c-153 0 -213 24 -270 105 -51 74 -59 131 -68
480 -7 306 -8 324 -34 408 -14 49 -35 105 -45 126 -34 65 -97 136 -155 175
l-57 38 43 27 c66 43 136 124 173 204 61 127 66 165 75 477 9 306 18 371 65
442 55 83 118 108 273 108 l102 0 0 190 0 190 -152 -1 c-84 0 -182 -7 -218
-14z"/>
<path d="M3350 3990 l0 -190 103 0 c154 0 217 -25 272 -108 46 -70 56 -137 65
-437 7 -241 11 -290 30 -355 43 -149 118 -264 215 -328 l46 -30 -43 -30 c-116
-80 -194 -208 -228 -373 -16 -76 -20 -136 -20 -319 0 -335 -18 -447 -83 -525
-52 -63 -96 -79 -234 -83 l-123 -4 0 -190 0 -190 178 4 c156 5 187 8 258 32
203 66 346 222 406 443 18 67 21 121 28 393 8 345 14 382 73 500 35 71 92 122
155 140 20 5 70 10 110 10 l72 0 0 190 0 190 -72 0 c-40 0 -90 5 -110 10 -63
18 -120 69 -155 140 -58 114 -65 158 -73 465 -6 237 -11 292 -29 360 -51 194
-154 327 -311 403 -113 55 -204 72 -385 72 l-145 0 0 -190z"/>
<path d="M2480 3440 c-197 -28 -348 -98 -465 -215 -92 -91 -140 -174 -177
-300 -22 -76 -23 -95 -23 -405 0 -372 7 -421 77 -563 103 -207 305 -324 619
-358 186 -21 360 -3 566 57 l53 15 0 215 c0 201 -1 215 -17 210 -155 -49 -313
-70 -473 -63 -143 6 -208 23 -263 68 -84 69 -101 157 -95 473 6 257 14 291 83
355 66 61 128 76 310 75 160 0 235 -13 346 -58 l59 -24 0 220 0 219 -37 16
c-21 8 -81 27 -133 40 -107 28 -312 39 -430 23z"/>
</g>
</svg>
